<svg width="500" height="500" viewBox="0 0 500 500" fill="none" xmlns="http://www.w3.org/2000/svg">
<g clip-path="url(#clip0_37_7152)">
<path d="M251.369 398.721C336.624 398.721 420.578 369.823 465.315 325.087C488.019 302.337 500.045 276.132 500.045 249.165C500.045 222.197 488.199 196.486 465.763 174.05C421.386 129.673 337.207 101 251.369 101C191.241 101 129.857 115.134 83.0118 139.814C29.4804 167.993 0 206.851 0 249.165C0 275.728 11.8909 301.664 34.4162 324.145C56.9416 346.625 89.563 365.561 128.915 378.842C168.394 392.029 209.746 398.742 251.369 398.721Z" fill="white"/>
<path d="M86.7363 146.859C35.9421 173.781 7.9873 209.948 7.9873 249.165C7.9873 273.575 19.0705 297.536 40.0703 318.536C61.07 339.536 93.2874 358.382 131.473 371.304C170.133 384.188 210.619 390.748 251.369 390.734C334.605 390.734 416.36 362.734 459.661 319.433C480.885 298.254 492.058 273.979 492.058 249.165C492.058 224.351 481.02 200.57 460.155 179.704C417.168 136.718 335.233 108.942 251.369 108.942C192.498 108.942 132.505 122.763 86.7363 146.859Z" fill="black"/>
<path d="M251.234 376.644C324.688 376.644 394.328 352.638 432.918 314.049C452.392 294.575 462.667 272.364 462.667 249.748C462.667 227.133 452.392 204.877 432.918 185.493C394.328 146.904 324.688 122.942 251.234 122.942C197.388 122.942 143.543 136.404 103.877 159.468C62.5055 183.653 39.7559 215.736 39.7559 249.748C39.7559 272.184 50.0314 294.62 69.5055 314.049C108.095 352.683 177.735 376.644 251.234 376.644Z" fill="#AF925D"/>
<path d="M251.593 372.112C359.284 372.112 446.603 316.337 446.603 249.075C446.603 181.814 359.284 127.385 251.593 127.385C143.902 127.385 56.5825 181.858 56.5825 249.075C56.5825 316.293 143.902 372.112 251.593 372.112Z" fill="#AA0000"/>
<path d="M404.11 233.819H403.572V229.332H326.304C324.38 220.313 319.519 212.185 312.483 206.223C304.92 197.711 294.765 191.924 283.586 189.756L278.785 188.769C267.612 186.39 258.772 184.551 223.279 184.73C223.279 184.73 216.459 184.506 209.818 183.608C208.282 183.247 206.78 182.752 205.331 182.128C205.824 179.166 211.254 175.128 217.311 174.32C244.861 170.925 272.719 177.463 295.881 192.762L296.868 193.39H322.848V153.635H318.361V149.147H282.689L276.676 153.635C266.445 151.077 216.145 140.173 172.754 159.064C154.492 166.602 143.184 180.826 143.992 195.275C144.226 198.899 145.232 202.431 146.942 205.635C148.652 208.839 151.027 211.64 153.908 213.852C159.295 220.023 166.457 224.38 174.414 226.326C185.579 229.584 197.082 231.541 208.696 232.159V250.108H213.183V254.595H226.645C232.253 254.595 233.689 257.691 234.048 259.082C216.728 257.96 190.433 253.024 171.229 235.121L170.511 234.313C169.434 233.281 168.402 232.249 167.37 231.127L166.203 229.871H146.729V286.453H151.216V290.94H167.1C169.434 290.94 176.838 290.312 181.908 275.415C199.283 281.274 217.426 284.54 235.753 285.107V320.286C234.901 332.132 208.831 335.812 199.856 336.171H196.132V353.67H200.619V358.157H314.951V341.42L312.035 340.658L310.509 340.254V336.395L306.919 336.126C301.743 335.734 296.635 334.709 291.708 333.074C284.528 329.036 283.272 325.76 283.137 325.222V306.466H316.656C319.947 307.04 323.036 308.446 325.63 310.549C328.665 314.429 331.045 318.779 332.675 323.427L333.528 326.164H336.489C336.893 327.196 337.118 327.825 337.118 327.869L337.97 330.606H355.919V262.672H351.431V258.184H333.483L332.81 261.281C328.323 283.716 301.983 283.716 278.695 280.171C283.354 278.94 287.939 277.441 292.426 275.684C303.268 271.816 312.833 265.031 320.066 256.075H370.277C373.454 256.125 376.557 257.04 379.252 258.723C382.597 264.57 384.23 271.241 383.963 277.973L383.739 282.056H388.45V282.37L388.226 286.498H408.238V233.819H404.11Z" fill="black"/>
<path d="M324.015 247.729H365.656C389.392 248.491 387.687 278.151 387.687 278.151H399.668V233.28H327.874C327.872 238.351 326.541 243.332 324.015 247.729Z" fill="white"/>
<path d="M239.298 286.094V320.555C238.087 338.504 199.587 340.119 199.587 340.119V349.946H306.112V340.119C274.433 337.382 274.298 321.273 274.298 321.273V298.254H312.124C329.445 300.722 336.086 322.395 336.086 322.395H347.303V262.133H336.489C328.951 298.434 273.311 282.1 269.183 282.998C259.377 285.196 249.347 286.236 239.298 286.094Z" fill="white"/>
<path d="M272.458 226.774C286.907 230.992 288.253 242.03 279.817 252.395C272.076 258.825 262.452 262.558 252.401 263.03C252.401 263.03 196.715 269.042 164.184 233.863H150.408V282.638H162.568C162.568 282.638 169.972 283.805 174.729 265.901C174.729 265.901 231.939 289.19 286.368 267.607C339.047 246.652 318.99 200.793 282.734 193.614C268.779 190.877 263.259 188.454 223.234 188.678C223.234 188.678 216.01 188.454 208.965 187.511C186.889 181.992 199.453 167.723 212.375 166.063C240.857 162.394 269.704 169.151 293.592 185.088H314.502V153.14H284.08L277.618 158.076C277.618 158.076 221.215 142.326 174.414 162.832C143.005 175.845 136.768 208.376 171.139 218.293C201.427 227.043 220.497 223.364 251.413 224.53C258.49 224.498 265.548 225.25 272.458 226.774Z" fill="white"/>
<path d="M227.093 246.563H212.645V233.595C223.817 233.595 246.702 233.595 262.855 233.595C279.009 233.595 281.297 243.018 274.432 249.389C267.567 255.761 254.464 259.62 238.535 256.703C238.195 253.907 236.844 251.332 234.736 249.464C232.628 247.596 229.91 246.564 227.093 246.563Z" fill="white"/>
</g>
<defs>
<clipPath id="clip0_37_7152">
<rect width="500" height="297.721" fill="white" transform="translate(0 101)"/>
</clipPath>
</defs>
</svg>
