<?xml version="1.0" encoding="utf-8"?>
<!-- Generator: Adobe Illustrator 27.4.1, SVG Export Plug-In . SVG Version: 6.00 Build 0)  -->
<svg version="1.1" id="Layer_1" xmlns="http://www.w3.org/2000/svg" xmlns:xlink="http://www.w3.org/1999/xlink" x="0px" y="0px"
	 viewBox="0 0 500 500" style="enable-background:new 0 0 500 500;" xml:space="preserve">
<style type="text/css">
	.st0{fill:#FFFFFF;}
	.st1{fill:#E64100;}
	.st2{fill:#0B162A;}
</style>
<g>
	<path class="st0" d="M289.6,492.2c0,0-0.1,0-0.1,0.1c-0.1,0-0.2,0.1-0.3,0.2C289.3,492.4,289.5,492.3,289.6,492.2z M488,114.9
		c0,0-0.1,0.1-0.1,0.1c-0.1,0.1-0.2,0.2-0.3,0.4C487.8,115.3,487.9,115.1,488,114.9z M496.9,94c0,0-0.1,0.1-0.1,0.1
		c0,0.1-0.1,0.2-0.1,0.3C496.8,94.2,496.8,94.1,496.9,94z M496.9,94c0-0.1,0.1-0.1,0.1-0.2C497,93.8,497,93.8,496.9,94
		C496.9,93.9,496.9,93.9,496.9,94z M499.2,76.6c0-1.1-0.2-2.1-0.5-3.2c-11-30.7-40.7-26.8-58.5-24.5c-4.2,0.5-10.3,1.3-12.9,1
		c-5.9-6.5-12.2-12.5-19-17.8c0.3-2.7-0.7-5.6-2.8-7.6c-1.9-1.8-4.5-2.6-7-2.4c-1.2,0.1-4.7,0.2-8,0.2c-0.7-1.5-1.7-2.8-3-3.8
		c-2.8-2.1-6-2.4-8.3-2.5c-1-1.6-2.5-2.8-4.4-3.6c-16.2-6.5-33.7-9.8-52-9.7c-23.6,0.1-48.8,5.8-74.9,17c-13.5-2-25-5.5-36.1-8.9
		c-14.4-4.4-28-8.6-43.9-8.7c-12.8-0.1-25.7,2.4-39.6,7.8c-2.3,0.9-4.1,2.6-5.1,4.7c-3-0.6-5.6-1.2-6.6-1.5c0,0,0,0,0,0
		c-2.5-0.8-5.2-0.6-7.5,0.8c-1.6,0.9-2.8,2.3-3.5,3.9c-1.3,0.2-2.5,0.5-3.5,1.1c-2.1,1.1-3.7,3-4.5,5.3c0,0.1-0.1,0.2-0.1,0.3
		c-0.2,0.6-0.3,1.3-0.3,1.9c0,0.1,0,0.1,0,0.2c0,0,0,0,0,0c0,0,0,0,0,0.1c0,0,0,0,0-0.1c-4,1-7.1,2.8-9.6,4.4
		c-0.6-0.2-1.2-0.3-1.8-0.5c-0.4-0.1-0.8-0.2-1.1-0.2l-0.3-0.1c-0.7-0.2-1.4-0.3-2-0.4c-0.4-0.1-0.8-0.1-1.2-0.2l-0.3,0
		c-0.7-0.1-1.3-0.2-2-0.3c-0.5-0.1-0.9-0.1-1.3-0.1l-0.3,0c-0.6,0-1.3-0.1-2-0.1c-0.5,0-1,0-1.5,0l-0.2,0c-0.6,0-1.3,0-2,0
		c-0.6,0-1.2,0-1.8,0c-0.7,0-1.4,0.1-2,0.1c-0.6,0-1.2,0.1-1.8,0.1c-0.7,0.1-1.4,0.1-2,0.2c-0.6,0.1-1.3,0.2-1.9,0.3
		c-0.6,0.1-1.2,0.2-2,0.3c-0.7,0.1-1.3,0.2-1.9,0.4c-0.8,0.2-1.4,0.3-2.1,0.5c-0.6,0.1-1.2,0.3-1.9,0.5c-0.7,0.2-1.4,0.4-2.1,0.6
		c0,0-0.3,0.1-0.3,0.1c-0.5,0.1-1,0.3-1.6,0.5c-0.7,0.2-1.3,0.5-1.9,0.7L48,33.4l-0.3,0.1c-0.5,0.2-1,0.4-1.5,0.6
		c-0.6,0.3-1.3,0.5-1.8,0.8l-0.3,0.1l-0.4,0.2c-0.4,0.2-0.9,0.4-1.4,0.6c-0.6,0.3-1.2,0.6-1.8,0.9L40.1,37c0,0-0.4,0.2-0.4,0.2
		c-0.4,0.2-0.8,0.4-1.3,0.7c-0.2,0.1-0.4,0.3-0.6,0.4c-0.2,0-0.4-0.1-0.6-0.1c-1.6,0-3.2,0.4-4.6,1.3c-1.1,0.6-2.1,1.3-3.3,2.1
		c-0.4,0.2-0.7,0.5-1.2,0.8c-0.8,0.6-1.6,1.2-2.3,1.7c-0.2,0.1-0.3,0.3-0.5,0.4c-1,0.4-2,0.8-3,1.3c-0.5,0.2-0.8,0.4-1,0.5
		c-0.1,0.1-0.3,0.1-0.4,0.2c-0.2,0.1-0.5,0.3-0.7,0.4c0,0-0.2,0.1-0.2,0.1c0,0,0,0,0,0c0,0-0.3,0.1-0.3,0.2
		c-0.3,0.2-0.5,0.3-0.7,0.4c-0.1,0-0.1,0.1-0.1,0.1c-0.1,0.1-0.2,0.2-0.4,0.3c-0.3,0.2-0.5,0.4-0.7,0.5c-0.1,0.1-0.4,0.3-0.4,0.3
		c-0.3,0.2-0.4,0.3-0.6,0.5c-0.2,0.2-0.4,0.3-0.5,0.4c-0.2,0.2-0.5,0.4-0.6,0.5c-0.2,0.2-0.3,0.3-0.5,0.4c-0.2,0.2-0.4,0.3-0.5,0.5
		c-0.1,0.1-0.6,0.5-0.6,0.5c-0.2,0.2-0.4,0.4-0.6,0.5c-0.1,0.1-0.3,0.3-0.5,0.5l-0.5,0.5c-0.1,0.1-0.5,0.5-0.5,0.5
		c0,0-0.5,0.6-0.5,0.6c0,0-0.5,0.5-0.5,0.5c-0.2,0.2-0.3,0.4-0.5,0.6c-0.1,0.1-0.3,0.3-0.4,0.5c0,0-0.4,0.5-0.4,0.5
		c-0.3,0.4-0.4,0.6-0.6,0.8c-0.1,0.2-0.3,0.4-0.4,0.6c-0.2,0.2-0.3,0.4-0.5,0.6c0,0-0.4,0.6-0.4,0.6c-0.2,0.2-0.3,0.4-0.4,0.7
		c-0.1,0.2-0.3,0.4-0.4,0.6c0,0-0.4,0.7-0.4,0.7c0,0-0.4,0.6-0.4,0.6c-0.2,0.3-0.3,0.5-0.4,0.8c-0.1,0.2-0.2,0.4-0.3,0.6
		c-0.1,0.2-0.2,0.5-0.4,0.8c0,0-0.3,0.6-0.3,0.6c-0.1,0.3-0.3,0.6-0.4,0.8c-0.1,0.2-0.2,0.4-0.3,0.6c-0.1,0.3-0.3,0.6-0.4,0.8
		c0,0.1-0.3,0.6-0.3,0.6c-0.1,0.3-0.3,0.6-0.4,0.9c0,0-0.2,0.6-0.2,0.6c-0.1,0.4-0.2,0.7-0.3,1C2.1,69.9,2.1,70,2,70.2
		c-0.1,0.4-0.2,0.7-0.3,1c-0.1,0.2-0.1,0.4-0.2,0.6c-0.1,0.4-0.2,0.7-0.3,1c-0.1,0.2-0.1,0.4-0.1,0.5C1,73.7,1,74.1,0.9,74.4
		c0,0.2-0.1,0.3-0.1,0.5c-0.1,0.4-0.2,0.9-0.2,1.2c0,0.1,0,0.3-0.1,0.4c-0.1,0.5-0.1,1-0.2,1.4c0,0,0,0.1,0,0.3
		c-0.3,2.3-0.3,4.6-0.2,6.9c0,0.1,0,0.3,0,0.4c0,0.4,0.1,0.9,0.1,1.4c0,0.1,0,0.3,0,0.4v0c0,0.4,0.1,0.8,0.2,1.3
		c0,0.2,0.1,0.3,0.1,0.4c0.1,0.4,0.1,0.9,0.2,1.3c0,0.2,0.1,0.4,0.1,0.5c0.1,0.5,0.2,0.8,0.3,1.3c0,0.2,0.1,0.4,0.1,0.5
		c0.1,0.4,0.2,0.8,0.4,1.3c0.1,0.2,0.1,0.4,0.2,0.5c0.2,0.5,0.3,0.9,0.4,1.3c0.1,0.2,0.2,0.4,0.2,0.6c0.1,0.4,0.3,0.8,0.5,1.2
		c0.1,0.2,0.2,0.4,0.2,0.5c0.2,0.5,0.4,0.8,0.5,1.2c0.1,0.2,0.2,0.4,0.3,0.6c0.2,0.4,0.4,0.7,0.6,1.1c0.1,0.2,0.2,0.4,0.3,0.6
		c0.3,0.5,0.5,0.8,0.6,1.1c0.2,0.3,0.3,0.5,0.4,0.7c0.2,0.3,0.4,0.7,0.6,1c0.1,0.2,0.3,0.4,0.4,0.7c0.2,0.4,0.5,0.7,0.7,1
		c0.2,0.2,0.3,0.4,0.5,0.7c0.2,0.3,0.5,0.6,0.7,1c0.2,0.2,0.4,0.4,0.5,0.7c0.3,0.3,0.5,0.6,0.8,0.9c0,0,0.6,0.6,0.6,0.6
		c0.3,0.3,0.5,0.6,0.8,0.9c0.2,0.3,0.4,0.5,0.6,0.7c0.3,0.3,0.6,0.6,0.9,0.9c0,0,0.7,0.6,0.7,0.6c0.3,0.3,0.6,0.5,1,0.9
		c0.1,0.1,0.7,0.6,0.7,0.6c0.4,0.3,0.7,0.6,1,0.8c0,0,0.7,0.6,0.7,0.6c0.4,0.3,0.7,0.5,1.1,0.8c0.3,0.2,0.5,0.4,0.8,0.6
		c0.4,0.3,0.8,0.5,1.1,0.8c0.1,0.1,0.8,0.6,0.8,0.6c0.4,0.3,0.8,0.5,1.2,0.8l0.2,0.1l0.7,0.4c0.4,0.3,0.8,0.5,1.1,0.7
		c0.1,0.1,0.3,0.2,0.3,0.2l0.6,0.4c0.5,0.3,0.9,0.5,1.3,0.7c0,0,0.2,0.1,0.2,0.1c0.2,0.1,0.4,0.3,0.7,0.4c0.4,0.2,0.8,0.4,1.1,0.6
		l0.3,0.1c0,0,0.3,0.1,0.3,0.1l0.6,0.3c0.5,0.3,1,0.5,1.5,0.7c0,0,0.3,0.1,0.3,0.1c0.2,0.1,0.4,0.2,0.7,0.3c0.5,0.3,1.1,0.5,1.6,0.7
		c0.1,0,0.3,0.1,0.3,0.1c0.1,0,0.2,0.1,0.3,0.1c-0.1,8.8-2.4,12.9-5.8,19c-3,5.4-6.7,12-9.4,22.8c-0.6,2.4-0.2,4.8,1.1,6.9
		c1.3,2.1,3.3,3.5,5.7,4.1c0.3,0.1,0.5,0.1,0.5,0.2c1.9,2.1,0.5,14-0.2,20.4c-1.7,14.4-3.8,32.2,5.4,44.8l0.7,8.4
		c-0.1,0.2-0.2,0.4-0.2,0.4c0,0-0.1,0.2-0.1,0.2c-0.2,0.4-0.4,0.8-0.6,1.2c-0.1,0.1-0.1,0.2-0.1,0.2c-0.2,0.5-0.4,0.9-0.5,1.2
		c0,0-0.1,0.3-0.1,0.3c-0.2,0.4-0.3,0.8-0.5,1.1c0,0-0.1,0.2-0.1,0.3l0,0.1c-0.2,0.4-0.3,0.8-0.4,1.1c0,0-0.1,0.2-0.1,0.2l0,0.1
		c-0.2,0.5-0.3,0.8-0.4,1.2c0,0-0.1,0.2-0.1,0.3l0,0.1c-0.1,0.4-0.2,0.7-0.3,1.2c0,0.1-0.1,0.3-0.1,0.4c-0.1,0.5-0.2,0.8-0.3,1.1
		c0,0.2-0.1,0.3-0.1,0.4c-0.1,0.5-0.2,0.8-0.2,1.2c0,0.1,0,0.3-0.1,0.4l0,0c0,0.3-0.1,0.7-0.2,1.1c0,0.2,0,0.4,0,0.5
		c0,0.4-0.1,0.7-0.1,1.2c0,0.1,0,0.4,0,0.4v0c0,0.3,0,0.7,0,1.1c0,0.1,0,0.4,0,0.5v0c0,0.3,0,0.8,0.1,1.2c0,0.2,0,0.4,0.1,0.5
		c0,0.3,0.1,0.7,0.2,1.2c0,0.2,0.1,0.4,0.1,0.5c0.1,0.3,0.1,0.7,0.2,1.1c0.1,0.3,0.1,0.4,0.1,0.6c0.1,0.3,0.2,0.7,0.3,1.1
		c0.1,0.3,0.2,0.4,0.2,0.5c0.1,0.3,0.2,0.7,0.4,1.1c0.1,0.2,0.2,0.4,0.2,0.6c0.1,0.3,0.3,0.6,0.5,1c0.1,0.2,0.2,0.4,0.3,0.5
		c0.2,0.3,0.3,0.6,0.6,1c0.1,0.2,0.2,0.3,0.3,0.4c0.1,0.1,0.1,0.1,0.1,0.1c0.1,0.2,0.3,0.5,0.5,0.9c0.1,0.2,0.3,0.4,0.3,0.5
		c0.1,0.1,0.1,0.2,0.1,0.2c0.1,0.2,0.3,0.5,0.6,0.8c0.2,0.2,0.3,0.4,0.4,0.5c0.1,0.1,0.2,0.2,0.2,0.2c0.1,0.2,0.3,0.4,0.6,0.7
		c0.1,0.2,0.3,0.3,0.4,0.5c0.1,0.1,0.2,0.2,0.2,0.2c0.1,0.2,0.3,0.4,0.6,0.6c0.2,0.2,0.3,0.4,0.5,0.5c0.1,0.1,0.2,0.2,0.2,0.2
		c0.1,0.2,0.3,0.4,0.5,0.6c0.2,0.2,0.4,0.4,0.6,0.6c0.1,0.1,0.2,0.2,0.2,0.2c0.1,0.1,0.3,0.3,0.5,0.5c0.3,0.2,0.5,0.4,0.7,0.6
		c0.1,0.1,0.3,0.2,0.3,0.2c0.1,0.1,0.3,0.3,0.5,0.4c0.3,0.3,0.6,0.5,0.8,0.7l0.1,0.1c0.2,0.2,0.4,0.3,0.6,0.5
		c0.3,0.3,0.6,0.5,0.9,0.7l0.2,0.1c0,0,0.2,0.1,0.2,0.1l0.3,0.3c0.5,0.4,0.9,0.7,1.5,1.1c0,0,0.2,0.2,0.2,0.2
		c0.1,0.1,0.2,0.2,0.3,0.2c3.9,24,11.3,42.5,22.1,55.1c1.7,2,4.2,3.2,6.9,3.2c0.9,0,1.7-0.1,2.5-0.4c3.8-1.1,7.1-1.7,10-1.8
		c4.2-0.1,7.1,0.8,8.5,2.8c1.5,2.1,1.4,5.5,0.8,7.1c-1.4,3.5-0.5,7.5,2.3,10.1c30.5,27.7,48.2,31.7,60,34.4c9,2,12.4,2.8,18.8,13.8
		c6.7,12.2,10.8,23,14.5,32.5c9.3,24,16.6,42.9,53.6,46.3c6.8,0.6,14.4,0.8,23.5,0.4c1.2,0,2.6-0.1,4-0.2c1.2-0.1,2.2-0.3,3.2-0.4
		c-0.1,0,0,0,0,0c0.2,0,0.4,0,0.8-0.1c2.3-0.4,4.6-0.9,6.8-1.6c0.4-0.1,0.8-0.2,1.2-0.3c0.1,0,0.1,0,0.2,0c0,0,0,0,0,0c0,0,0,0,0,0
		c0,0,0,0,0,0c0.8-0.2,1.5-0.5,2.1-0.8c0.4-0.2,0.8-0.4,1.1-0.5l0.3-0.2c-0.2,0.1-0.3,0.2-0.5,0.2c0.9-0.4,1.8-0.8,2.7-1.2
		c-0.2,0.1-0.5,0.2-0.7,0.3c0.3-0.1,0.7-0.3,1-0.5c2.4-1.2,4.7-2.7,6.9-4.3c0.2-0.1,0.3-0.3,0.5-0.4c2-1.6,3.9-3.3,5.6-5.2
		c0.2-0.3,0.5-0.6,0.8-0.9c0.5-0.6,0.9-1.1,1.4-1.7c0.3-0.4,0.6-0.8,0.9-1.2c0,0,0.1-0.2,0.1-0.2c0.6-0.8,1.1-1.5,1.6-2.3
		c0.5-0.8,0.9-1.4,1.3-2c0.3-0.5,0.6-1,0.8-1.5c0.4-0.7,0.8-1.4,1.2-2.2l0.2-0.3c0.1-0.3,0.3-0.6,0.5-0.9c0.6-1.1,1.1-2.3,1.6-3.5
		c0.1-0.3,0.2-0.5,0.3-0.7l0.1-0.3c0.4-1,0.8-2,1.2-3c0,0,0.1-0.2,0.1-0.2l0.3-0.9c0.3-0.7,0.5-1.4,0.7-2.1c0.4-0.6,0.8-1.3,1.1-2.1
		l1-3c3.9-11.7,5-19.1,5.4-25.6c11.7-5.9,21.5-19.7,31.8-34.2c7.6-10.8,17.1-24.2,23.5-26.5c0.3-0.1,0.6-0.2,0.9-0.4
		c4.8-2.3,10.8-3.6,17.2-5c5.9-1.3,12.6-2.7,19.3-5.2c-0.3,0.1-0.7,0.2-1,0.3c1.4-0.3,2.7-0.9,3.8-1.5c0.1,0,0.1,0.1,0.2,0.1
		c0.4,0.2,0.8,0.3,1.3,0.4c0.1,0,0.1,0,0.2,0c0.4,0.1,0.7,0.1,1.1,0.2c0.1,0,0.3,0,0.4,0c0.2,0,0.3,0,0.5,0c0.1,0,0.2,0,0.3,0
		c0.4,0,0.7,0,1.1-0.1c0.2,0,0.3,0,0.5-0.1c0.5-0.1,0.9-0.2,1.4-0.4c0.1,0,0.1,0,0.2-0.1c0.5-0.2,0.9-0.4,1.4-0.7
		c0,0,0.1-0.1,0.1-0.1l0,0c0,0,0.1,0,0.1-0.1c0.5-0.3,0.9-0.7,1.3-1.1c-0.4,0.4-0.9,0.8-1.3,1.1c5.9-3.8,9.1-8.9,11-13.6
		c0.6-0.3,1.2-0.6,1.7-1.1c0.7-0.5,1.3-1,2-1.6c0.1-0.1,0.3-0.2,0.5-0.5c0.8-0.8,1.4-1.7,2-2.6c0.1-0.1,0.2-0.4,0.3-0.5
		c0,0,0,0.1-0.1,0.1c0.3-0.5,0.5-0.9,0.7-1.4c1.4-0.7,2.6-1.8,3.5-3.1c0.9-1.4,1.9-2.9,2.9-4.5c0.1-0.1,0.2-0.2,0.2-0.2
		c2.9-2.9,8.2-8.2,9.7-18.4c0.1-0.4,0.1-0.8,0.2-1.3c0.1-1,0.3-2.2,0.4-3.5c2-5.1,4.2-9.2,6.4-13.2c2.5-4.5,4.8-8.7,6.5-13.7
		c0-0.1,0-0.2,0.1-0.2c0,0.1,0,0.2-0.1,0.3c0.3-0.8,0.5-1.5,0.7-2.3c0-0.1,0.1-0.3,0.1-0.4c0.2-0.7,0.4-1.4,0.5-2
		c0-0.2,0.1-0.4,0.1-0.6c0.2-0.8,0.3-1.3,0.4-1.9c0-0.3,0.1-0.5,0.1-0.8c0.1-0.7,0.2-1.3,0.2-1.8c0-0.3,0.1-0.6,0.1-0.8
		c0.1-0.8,0.1-1.3,0.1-1.8c0-0.4,0-0.8,0-1.1c0-0.6,0-1.2,0-1.7c0-0.4,0-0.8,0-1.2c0-0.6,0-1.2-0.1-1.7c0-0.4,0-0.9-0.1-1.3
		c0-0.5-0.1-1.1-0.2-1.7c0-0.4-0.1-0.9-0.1-1.4c-0.1-0.7-0.2-1.3-0.2-1.8c-0.1-0.4-0.1-0.9-0.2-1.4c-0.1-0.6-0.2-1.3-0.3-1.9
		c-0.1-0.6-0.2-1-0.3-1.5c-0.1-0.7-0.3-1.4-0.4-2c0,0-0.1-0.2-0.1-0.2l-0.3-1.3c-0.2-0.7-0.4-1.4-0.5-2.1c0,0-0.1-0.4-0.1-0.4
		l-0.3-1.2c-0.2-0.7-0.4-1.4-0.6-2.1c0-0.2-0.2-0.6-0.2-0.6l-0.4-1.2c0,0-0.1-0.2-0.1-0.5c1.9-1.7,3-4.1,3.1-6.7
		c0.8-45.3-3.5-74.9-14-95.6c0.3-0.1,0.6-0.3,0.9-0.4l0.4-0.2c0,0,0.4-0.2,0.4-0.2c0.3-0.1,0.7-0.3,1-0.4c1.1-0.5,2.1-0.9,3-1.4
		c0.1,0,0.2-0.1,0.3-0.1c0.2-0.1,0.5-0.2,0.8-0.4c1.1-0.6,2.2-1.1,3-1.6l0.1-0.1c0.2-0.1,0.4-0.2,0.7-0.4c1.2-0.7,2.2-1.3,3-1.8
		c-0.1,0,0,0,0,0c0.1-0.1,0.3-0.2,0.6-0.4c0.9-0.6,1.9-1.3,2.9-2.1c0,0,0.1-0.1,0.3-0.2c0.9-0.7,1.9-1.5,2.9-2.4
		c-0.1,0.1-0.1,0.1-0.2,0.2c0.1-0.1,0.3-0.2,0.5-0.4c0.9-0.8,1.8-1.7,2.6-2.6c-0.1,0.1-0.1,0.2-0.2,0.2c0.1-0.1,0.2-0.2,0.3-0.3
		c0.8-0.9,1.6-1.8,2.4-2.8c0-0.1,0.1-0.1,0.1-0.2c4-5.3,6.3-11.2,6.9-17.7c0.7-1,1.3-2,1.9-3.1c0-0.1,0.1-0.2,0.1-0.2
		C500.1,88.1,500.8,82,499.2,76.6z M282.4,495.2C282.4,495.2,282.3,495.2,282.4,495.2c0,0,0.2,0,0.3-0.1
		C282.6,495.2,282.5,495.2,282.4,495.2z M422.2,356.2c-0.2,0-0.3,0-0.5,0c0.2,0,0.5,0,0.7,0C422.4,356.2,422.3,356.2,422.2,356.2z
		 M427.2,354.7C427.2,354.7,427.3,354.7,427.2,354.7C427.3,354.7,427.2,354.7,427.2,354.7L427.2,354.7z M427.3,354.7
		C427.3,354.7,427.3,354.7,427.3,354.7L427.3,354.7C427.3,354.7,427.3,354.7,427.3,354.7z M97.2,26.5c0-0.1,0-0.2,0-0.3
		C97.3,26.2,97.2,26.3,97.2,26.5c0,0.1,0,0.1,0,0.2c0,0,0,0,0,0C97.2,26.6,97.2,26.5,97.2,26.5z"/>
	<path class="st1" d="M44.8,48.9L73,39l22.2,6.8L117.6,34l27.4-6.8l5.4-9.9l22.8-1.9l33.6,4.3l25.5,8.1l13.1,2.5l8.2,1.8l16.8-8
		l28.2-4.3L337,21l48.6,21.1l19.2,15.5l59.4,9.9l22.1,5.2c8.9,5.9,5.4,14.5-0.9,21.5L446.2,125l3,8l11.6,39.8l-0.8,21.7l-3,22.1
		l3,6.8l-5.3,10.2l0.5,41.8c0,0-1.8,21.1-3,29.1c-1.2,8-5.1,9.5-7.5,12c-2.4,2.5-5.5-0.4-5.5-0.4L373,348.5l-45.6,51.4l-16.2,14.2
		l-18.6,65c0,0-4.4,3.3-11,6.4c-6.6,3.1-54.2,1.1-60.2-7.6c-6-8.7-11-16.7-11-16.7L196,424.7L185.8,403l-30-11.1l-18.6-11.8
		l-29.8-31.5l-19.9-13.9l-15.1-27.1l-16-16.9L41.6,258l0.2-3.7l-2-14.9l16.4-127.9l-16.8-5l-15.1-9.4C14.4,91,14,79.2,19.6,68.7
		c2.1-8.6,6-14.8,17.8-19.1L44.8,48.9z"/>
	<path class="st2" d="M39.9,240.2L62.7,197c-4.2-50.8-4.1-82.1,24.4-106.8C77,73.2,64.7,66.7,50,70.7c-16.5,7.8-16.2,21.3-3.3,34.4
		c-16.4-6.3-41.2-15.5-15-53c-19.6,3.1-44,46.6,11.5,67.7c1.7,25.9-9.4,26.2-15.3,50.1C48.4,174.8,22.6,220.7,39.9,240.2z M422,57.5
		c-5.7-6.5-12.6-13.3-20.8-19.5c-1.6-1.2-8-0.6-9.7-1.8c-1.7-1.2,7.2-3.5,7.9-5c0.1,0.1-16,0.6-17.7-0.3c-2.6-0.6,1.7-4.3,0.4-5
		c-2.4-1.8-12.5,1-14.8-1.2c-4.5-2.5,6.3-2.8,4.2-3.6c-29.8-12-69.5-14.5-120.6,7.4l-0.5,0.9c-47.5-5.9-69.5-29.9-118.8-10.9
		c-2,0.8,9.3,6.9,7.2,7.8c-2.1,0.9-24.9-4.2-24.9-4.5c0,0,12.7,6.9,11.5,7.5c-1.4,0.7-17.4-3.1-18.9-2.4c-1.5,0.8,7.2,6.4,5.6,7.3
		c-1.4,0.8-7.1,0-8.5,0.9c-6.6-0.2-9.9,3.1-14.4,6c-13.7-5.3-35.4-4.2-52.8,9c31,0.2,55.1,5.3,72.3,15.3l-2.6-15.9
		c5.8-3.2,9-4.9,16-6.8c1.2-0.3-3.5-2.3-11-3.9c7.2-2.4,21.1,1.4,22.7,1.1c2-0.4-4.5-3-2.4-3.3c1.7-0.3,11,0.2,14.5,0
		c12.4-0.4,21.2-1.3,33.1-2.4l-12.7-11.6c26.3-0.2,53.4,4,81.1,12.6l-0.3,0.6c4.6,15.9,6.9,33.8,1.6,66
		c36.7-37.4,30.1-13.2,34.6-6.9c17,16.5,32.3-28,84.3-14.7c-24.4-31.8-60.5-17.4-67.1-15.4c-28.9,17.9-44.5-2.7-33.9-19
		c18.7,7,41.1,2.9,56.6-7.7c-14.7,1.2-29.4-0.2-43.8-4c18.4-12.7,96.6-8.9,96.6,23.3c9.7-2.2,17.1,1.7,22.2,11.6
		c58.2-14.3,69.8,10.1,92,7.4C477.5,41.1,433,64.9,422,57.5z M412.2,80.9c-8.2,24.9,2.5,41.2,32.2,48.9
		c15.4,36.6,16.5,68.8,3.4,96.6c7.1,14.5,7.6,36.8,1.3,67l3,11.2c9.1-29.4,27.2-29.1,8.2-79l6.9,2.6c0.9-56.2-6.3-83.5-18.5-100.5
		c25.3-7.3,37.8-18.7,37.3-34.3C479.2,85.6,427.7,97.6,412.2,80.9z M205.7,103.6c13.3,9.7,21.1,21.6,23.6,35.6l16.3,6.4
		c3.6-12.6,6.4-22.9,3.9-27c-4.7-9.9-20.2,22.8-14.6-31.8c4.9-20.6,3.5-35.6-4.3-45.1C232.4,66.2,224.1,86.8,205.7,103.6z
		 M333.2,131.5c-5.5-24.2-25.3-8.4-36.1-27c-20.3,14.6-21,10.5-26.6,1.3l-19.8,51.9c17.5-17.9,23.7,11,33.2,38.1
		c-0.5-37,13.8-40.9,17.5-34.6c2.8-6.5,6-11.2,9.4-14.6c-4,4.4-3.8,12.5,4,18c18.9,9.9,28.3-11.6,15.9-18.9l-8.2,4.3l-3-6.4
		c-3.2-0.4-5.9,0.6-7.9,2.3c13.7-12.7,29.7-3.1,31.1,8.4c0.1,5.1-4.1,11.6-12.4,19.3c16.1-8.2,24.3-14.1,24-18.3
		c20.2,18.7,17.9,24.9-29,31.6c25.7,23.8,45.5,26.6,59.4,8.3c6.2,14.9-45.9,93.5-68.7,45.7c3.6,15.2,4.2,30.4,1.9,45.7
		c12.8-2.9,17.6-3.5,25.1-0.7c8.9,9.1,12.6,22.7,11.1,40.7c4.2-4.2,10.3-18,15-21c2.6-1.6-2.3,10.9,0.4,9.5
		c2.8-1.4,14.8-19.1,17.6-20.3c4.9-2.1-2.8,13.1,1.8,11.3c0.4,0.4,14-22.6,19.8-28.5c9.5,7.7-4.6,21.1-2.2,19.9
		c7.9-4.3,21.3-12,23.7-20.3c1-20.4,5.3-32.7,12.9-37.1l-15.9-23.8c-5.3,21.6-14.7,33.4-28.5,35.3c15.2-27,51.2-133.7-25-155.6
		c6.6,7.6-0.1,7-7.2,8.8c-16.5-12.2-28.8-10.4-36.8,5.5c7.9-1,15.1-0.9,25.7,4.5c0,0.1-0.1,0.2-0.1,0.3
		c23.9,11.4,22.6,34.8,4.7,29.1c-14.8-19.5-22.6-17-27.3-8.1c-13.1-2.7-23.1-0.2-31.6,14.2C302.3,135.4,312.6,128.5,333.2,131.5z
		 M55.3,260.2c15.8-18.6,14.8-26.1,3.8-44C54.6,223.1,56.1,245.4,55.3,260.2z M371.3,328.2c-1.2,10.2-3.5,17.4-6.9,21.6l-8.9-8.8
		c-3.5,14.9-17.5,35.2-42.1,60.8l-5-8.9c8.8-25.6,46.3-65.1,22.6-99.1c-1.9,8.1-7.8,10.9-16.1,8.8c0,0,0,0.1,0,0.1l-14.7-7.9
		c7.6,8,9.9,17.3,6.9,27.7c-2.1,11.5-8.5,22.9-18.1,34.9c2-27.5,0.9-44.9-3.5-52.4l-9.4,12.1c-1.2-11.7-2.8-16.9-4.6-15.7l-7.1,5.3
		l-7.4-2.5l-4.2,2.8l-4.4-2l-6.3,2.7l-7.7-6.9c-2.5,2.2-5.1,7.8-7.7,16.8c-6.6-2.5-9-14.9-14-17.8c-6.9,17.5-9,19.2-7.4,48.4
		c-0.2,0.6-0.4,1.3-0.5,2v0c-13.6-23.2-17.9-42.8-8-57.4c-11.4-7.5-18.5-18-12.9-51.1c-6.4,1.7-6-4.2-0.3-13.2
		c-9.1,1.3-9-3.5,0.3-14.3c-15.9-3.4,11.2-22.3,20.8-43.9c-8.4-1.2-16.5,3.5-29.4,19.8c-10.3,7.3-24.9,6-15-12.5
		c-5.8-4-7.6-7.9-5.5-11.9c2.2,3.3,6.5,6.1,12.8,8.3c-3.5-3.8-6-7.1-7.7-10.2c18.5,12.6,29.9,5.6,31.3-13.6
		c2.4,2.8,4.3,6.4,5.7,11.4c9.7-6.9,17.8-3.7,26.8,13.4c9-22.8-3.4-28.8-23.6-35.4c8.2-4.5,12.9-2.8,23.9,3.1
		c-10.1-37.7-43.6-20.1-49-33.9c-0.1-10,13.2-12,21.5-13.3c-29.9-15.3-38.4-13.7-52.7-6.6c-30.8,20.3-5.4,59-45.7,68.8
		c-4.1-26.5,7.7-55.4,17.8-70.1c-9,0.4-16.9,5.3-23.1,14.4c-1.6,2.4,4.4,2,3,5c-1.3,2.9,1.9,5-11.2,12.4c-0.8,2.3,5.6,1.7,5,4.2
		c-1,3.8-13.2,8.9-12.8,21.3c11.6-10.8,9.7-4.6,6.2,2.3c-0.2,2.9-5.2,11.3-5.3,14.4c-0.7,14.3-0.1,30.4,1.7,48.3l10.9-10.6
		c0,0-29.7,111.7,86.7,160.8c2.9,23-17.5,15.5-39,0.3c-4.9-4.6-7.1,10.1-7.5,9.4c-2.2-1.7-3.6-17.7-5.8-19.5c-2-1.6-2.6,8.1-4.5,6.5
		c-2-1.8-5.4-15-7.3-16.7c-6.5-6.1-12.1-11.9-15.8-16.7C76,327.9,68,300,65.7,271.2c-6.2,3.5-8.9,8.2-10.7,12.3
		c-1.2-5.8-3.4-15.7,0-22.9c-7.9,2.1-12.3-0.2-13.3-6.9c-7.9,14.7-8.4,22.6,10.6,35.3c3.5,24.3,10.4,42.5,20.6,54.5
		c30.2-8.8,33.6,11.5,30.2,20.1c53.5,48.5,62.3,19.2,80.6,50.4c27.6,50.5,14.2,77.3,83.3,74.6c20.4-0.4,33.9-12,40.6-34.7
		c0.2-0.2,0.4-0.4,0.6-0.5c5.5-15.8,5.9-23,6.3-32c21.4-4.4,41.7-55.9,60.9-62.8c10.7-5.1,24-5.6,37.3-10.5c5.2-1.2,9-8.7,10.5-9.5
		c1.6-0.9,3.5-0.3-0.9,8.5c10.3-6.5,9.4-19.3,10.6-20.2c1.5-1.2,0.3,7.4,1.7,5.9c4.9-2.8,4-11.9,5.2-13.3c1.3-1.5,0.6,7.5,1.8,5.7
		c2.5-3.7,5-7.9,7.3-12.7l-7.9-12.7C416.1,302.1,412.3,345.1,371.3,328.2z M180,142.1c1.1,0.6,2.2,1.1,3.2,1.8l-5.6,5.9l-2.9-8.1
		C176.4,141.7,178.2,141.8,180,142.1z M139.7,251.8c-5.7-1.8-2.6,18.5-3.9,17.6c-8.3-5.4-8.7-25.9-10.1-27.1c-1.8-1.5-1.7,7-3.3,5.4
		c-1.6-1.6-4.7-13.2-6-14.9c-1.3-1.7-3.2,10.5-4.3,8.7c-5.2-4.4-0.7-16.4-1.3-17.7c-0.8-1.8-3.4,5.9-3.9,4c-0.4-1.4,1.2-12.3,1-13.7
		c-1.5-9.2,0.4-19.8,6.7-32.2c4.6,24.4,20.2,40.7,46.7,49c-4.7,14,0.7,48.8,10.5,80.2C144.9,305.8,155.3,266.1,139.7,251.8z
		 M263.3,482.2c-32,3.1-40.2-7.6-40.5-18.8c8.5,11.6,41.4,13.4,67,1.9C291.9,474.4,283.1,480,263.3,482.2z M228.7,441.7
		c-20.9,5.2-26.5-16.2-19.6-45.8c0.1,0.6,0.2,1.1,0.3,1.7c6.9,17.7,3.2,25.4,17.8,31.7l1.7,7.1l8.3-5.8c8.6,5.7,10.1,5.9,17,0
		l8.3,3.8l13.2-7.4l-10.7-0.8l-7.1,1.7l-7.4-4.4c-4.1,3-10,3.8-17.7,2.4c-14.4-32.9-22.8-69.1-7.4-97.3c7.8-3.9,13.7,12.2,18.8,11.3
		c12.1,3.8,19.2-14.3,31-6c7.4,23.1,8.1,56.4,2.3,92c7.2-3.3,14-24.3,19.3-42.2c6.1,29.7,2.5,63.5-21.4,58c-7.3,3.6-26,13.8-46,0.3
		L228.7,441.7z M237.5,256.8l4.2-10.1c-5.7-6.3-16.9,1.2-22.1-1.2c-9.4-4.5-11.6-10.2-6.6-17.1l14.3,8.3c0.7-6.9,4.4-9,11.1-6.3
		c0.2-14.9-6.1-20.2-18.9-16.1c-11.8-1.4-8.6-8.5-7.2-16.4c-10.9,11.5-31.9,52.1-12.6,86.5l12,3.4l-7.4,5.6c27.7-4.1,85.5,0,85.5,0
		l-8.3-6.5c16.4-13.4,20-24.7,10.9-33.8l-8.9,4.7c3.4-9.8,22.6-20.3,7.5-38.1c1.5,12-5.5,20.9-20.9,26.6l-9.8,20.3
		C264.2,248.7,245,257.3,237.5,256.8z M260.3,219.7c-4,13.7,12.8,17.7,16.5,13.9c3.7-5.5,3.8-11.4,0.3-17.7
		C271.1,208.1,266.1,209.6,260.3,219.7z"/>
</g>
</svg>
