<svg width="500" height="500" viewBox="0 0 500 500" fill="none" xmlns="http://www.w3.org/2000/svg">
<g clip-path="url(#clip0_37_7175)">
<path d="M52.7496 319.878C87.4819 297.695 98.4172 272.7 98.4172 272.7L0.0522461 286.812L41.7102 212.452L125.755 205.37C150.826 184.531 178.919 167.622 209.071 155.225C209.071 155.225 214.279 146.06 243.231 129.188C261.312 118.901 280.314 110.324 299.99 103.569C308.638 100.478 317.495 98.0071 326.495 96.1744L324.724 89.6654L363.31 86.3848L364.299 82.6875C375.114 83.3952 385.782 85.5674 396.011 89.1446L398.303 86.1243C417.312 96.1953 433.441 110.945 445.168 128.98C457.843 128.619 470.438 131.092 482.035 136.218C487.534 138.669 492.163 142.726 495.313 147.856C498.464 152.986 499.989 158.949 499.688 164.962C499.226 183.397 496.426 201.699 491.356 219.43C490.685 221.729 489.885 223.989 488.961 226.199C487.457 228.95 485.714 231.564 483.754 234.01C478.693 239.261 474.429 245.226 471.1 251.715C471.1 251.715 469.173 257.235 465.372 267.337C465.372 267.337 462.404 281.084 442.408 281.865C433.794 292.931 424.581 303.518 414.81 313.577L414.081 307.589C406.143 314.899 397.666 321.601 388.721 327.637L392.679 292.748C392.679 292.748 393.668 286.499 389.711 286.031H379.557C379.557 286.031 382.889 306.86 378.827 316.753C378.827 316.753 376.276 331.959 352.791 339.249C340.004 343.041 326.868 345.536 313.581 346.695L309.102 345.966L276.193 359.453L285.826 324.929C285.826 324.929 273.485 326.178 272.391 324.668L235.941 340.29L250.365 299.049L260.258 293.842L257.082 289.519H236.826L229.38 295.3C218.28 292.575 206.844 291.47 195.428 292.019L110.238 361.171L88.8879 408.349L63.3724 374.293L71.3915 363.879L68.3193 361.588L56.7592 370.701L39.6794 416.785L14.4763 381.219L20.9854 366.743L19.5274 357.943C25.4147 354.455 30.8383 350.239 35.6698 345.393C38.0041 342.997 40.033 340.321 41.7102 337.426C43.9494 331.959 44.0535 326.022 46.5529 324.148C49.0524 322.273 52.1247 320.451 52.7496 319.878Z" fill="white"/>
<path d="M46.6049 220.003L14.0596 277.282L434.337 214.796C434.337 214.796 419.704 203.704 440.898 186.104L46.6049 220.003Z" fill="#D50A0A"/>
<path d="M473.235 178.084C473.235 178.084 440.429 200.528 451.781 219.742C451.781 219.742 439.856 226.356 453.031 235.625C453.031 235.625 432.722 244.789 438.086 219.69L107.634 269.732C107.634 269.732 100.604 299.674 53.7387 328.001C52.7236 328.625 51.8603 329.468 51.2118 330.468C50.5632 331.468 50.1457 332.6 49.9895 333.781C49.8795 337.599 48.4852 341.268 46.032 344.196C41.5345 351.098 35.5581 356.915 28.5357 361.223L29.4209 367.368L23.6929 380.542L37.7004 400.694L50.4061 366.378L75.5571 347.06C75.5571 347.06 100.187 308.578 140.648 293.477C140.648 293.477 176.317 278.272 228.494 286.864L233.233 282.334L293.585 280.98C293.585 280.98 295.876 281.5 294.366 282.75C287.023 288.2 278.461 291.774 269.423 293.165L270.621 296.862C270.621 296.862 270.985 298.163 270.048 298.476L257.394 303.683L249.011 326.908L272.756 316.493L274.057 317.482C291.439 317.813 308.798 316.065 325.765 312.275C325.765 312.275 347.323 308.057 353.312 280.146L394.345 278.324C394.345 278.324 402.885 280.146 401.791 288.114L398.875 311.338L417.621 294.623L418.923 298.997C425.831 291.694 431.829 283.581 436.784 274.835C436.784 274.835 452.406 275.147 456.259 268.847C459.221 263.981 461.482 258.722 462.976 253.225C465.269 245.935 469.392 239.356 474.953 234.114C474.953 234.114 482.451 227.085 486.565 208.755C486.565 208.755 491.773 182.198 491.512 177.095C491.512 177.095 496.719 150.798 478.911 143.04C478.911 143.04 465.476 135.645 440.429 137.832C440.429 137.832 435.222 120.388 400.854 96.1744L398.354 99.9236C389.777 94.6518 379.886 91.9082 369.819 92.0085L368.986 94.2997C368.986 94.2997 358.571 94.2997 336.649 96.5388L338.523 103.1C338.523 103.1 292.803 105.235 227.973 148.611L226.776 152.204L218.548 156.058L222.974 158.453C222.974 158.453 173.401 176.366 137.367 205.839L473.235 178.084Z" fill="#0C2E82"/>
<path d="M357.425 285.354H371.641C373.085 294.286 373.47 303.357 372.787 312.379C371.705 316.276 369.729 319.867 367.018 322.868C364.306 325.869 360.933 328.197 357.165 329.667C342.127 335.262 326.323 338.528 310.3 339.353L308.946 338.207L287.752 347.112L294.73 322.481C307.155 321.617 319.518 320.017 331.754 317.691C331.754 317.691 354.145 313.108 357.425 285.354Z" fill="#0C2E82"/>
<path d="M182.774 292.54C166.67 293.103 150.848 296.94 136.274 303.815C121.699 310.691 108.677 320.461 98.0005 332.531C98.0005 332.531 98.0005 347.268 80.0355 357.266L80.7125 361.9L72.2246 373.877L87.2736 394.029L104.197 356.172L182.774 292.54Z" fill="#0C2E82"/>
</g>
<defs>
<clipPath id="clip0_37_7175">
<rect width="500" height="333.785" fill="white" transform="translate(0 83)"/>
</clipPath>
</defs>
</svg>
