<svg width="500" height="500" viewBox="0 0 500 500" fill="none" xmlns="http://www.w3.org/2000/svg">
<g clip-path="url(#clip0_37_7167)">
<path d="M253.289 393.118C253.23 393.846 252.981 394.546 252.568 395.147C252.029 395.668 251.339 396.005 250.596 396.109C250.032 396.241 249.445 396.246 248.878 396.125C248.311 396.004 247.778 395.758 247.317 395.407C246.959 395.152 246.658 394.826 246.432 394.448C246.207 394.071 246.063 393.651 246.01 393.214L237.249 364.712C232.345 350.096 224.931 334.412 210.555 320.536C193.179 303.785 167.571 292.197 132.26 285.12C101.489 278.956 81.2276 273.657 66.5822 267.936C55.4138 263.798 45.0864 257.673 36.0991 249.857C15.3668 232.279 0.942569 209.873 -0.019043 181.698C-0.019043 181.698 20.5883 210.825 43.2535 196.911C53.9659 190.334 61.6588 191.276 61.6588 191.276C54.3619 183.319 49.6655 173.325 48.1962 162.629C47.0904 153.898 47.8116 144.205 50.3117 133.781C54.5813 116.116 66.9957 103.173 67.1207 102.961C67.1207 102.961 62.2358 145.407 82.5065 160.466C90.2491 164.68 99.185 166.163 107.874 164.678C107.874 164.678 91.0168 156.869 88.6416 131.819C87.9494 124.516 88.2926 117.151 89.6609 109.943C89.6609 109.943 111.903 141.339 134.193 128.444C139.184 125.559 165.484 111.962 176.831 108.943C192.818 104.529 209.658 104.198 225.806 107.981C239.567 111.426 252.531 117.503 263.982 125.877C285.686 141.397 299.744 161.552 304.783 169.495C304.783 169.495 348.479 167.572 372.385 198.132V198.18L427.754 222.663L421.475 226.673L421.206 226.856L421.485 227.029C439.38 238.405 470.69 258.56 479.181 265.83L495.019 273.359L492.134 281.052C491.942 281.571 487.643 293.861 495.759 299.948L499.827 303.006L499.914 303.073V303.169L487.413 336.162L484.259 331.921C466.892 307.977 450.477 303.554 442.217 303.381C432.88 303.188 432.226 308.189 433.38 310.304C437.14 317.247 458.074 320.882 465.824 321.632L471.104 322.315L450.91 340.384L414.369 338.085H414.215V337.931L414.83 330.758V330.71C414.647 329.354 412.176 317.093 382.289 304.794H382.203H382.116C373.203 308.879 363.612 311.278 353.826 311.872C338.711 312.766 323.75 308.43 311.457 299.592L311.37 299.534H311.265C302.285 302.61 293.755 306.865 285.897 312.189C267.117 325.094 256.876 341.999 255.453 362.366C255.453 362.366 253.799 379.165 253.289 393.138" fill="#0A2343"/>
<path d="M134.116 168.39C107.912 176.438 89.3436 176.342 77.3234 168.111C67.0822 161.12 60.9087 148.619 60.3509 127.463C52.4561 152.071 56.2352 171.573 67.6784 184.66C76.7561 195.046 92.2188 201.921 109.028 203.056C142.627 187.67 177.187 177.842 211.747 173.89C202.371 157.841 174.821 155.898 134.116 168.39Z" fill="#FC4C02"/>
<path d="M260.636 135.089C250.02 126.943 237.914 120.952 224.998 117.453C209.972 113.591 194.194 113.744 179.245 117.895C169.177 120.598 146.425 131.771 137.895 136.166C115.499 147.782 101.008 132.752 95.5845 127.098L95.3345 126.848C96.089 131.801 97.4419 136.645 99.3636 141.272C102.47 148.407 106.951 153.658 112.701 156.87C122.981 162.639 137.29 161.803 155.233 154.446C175.206 146.263 191.967 143.753 205.035 147.003C216.815 149.936 227.652 159.322 234.047 172.121C255.655 171.252 277.293 172.787 298.562 176.698C287.676 159.908 274.589 145.523 260.636 135.089Z" fill="#FC4C02"/>
<path d="M481.749 288.668C481.802 285.046 482.408 281.453 483.547 278.013L474.152 273.628C468.324 267.33 405.281 227.683 404.646 227.279L404.406 227.125L404.637 226.971L409.301 223.865L366.567 205.767H366.519V205.719C349.21 179.756 314.995 178.794 308.428 178.794C321.448 182.814 325.429 186.776 326.429 189.372C326.646 189.822 326.759 190.315 326.759 190.814C326.759 191.314 326.646 191.807 326.429 192.257L326.362 192.372H326.237C178.802 152.186 58.1968 244.645 53.1387 248.598C58.9083 254.444 71.9382 262.32 118.711 272.696C129.039 264.512 178.841 229.135 253.846 231.221L241.663 212.806C241.663 212.806 288.176 224.894 314.745 239.655C313.895 247.965 315.552 256.341 319.503 263.701C323.454 271.062 329.518 277.072 336.914 280.956C344.31 284.84 352.7 286.422 361.003 285.496C369.306 284.571 377.141 281.181 383.501 275.763L416.859 297.053L384.856 284.639C377.085 290.268 367.964 293.744 358.418 294.716C348.871 295.688 339.237 294.12 330.491 290.173C321.745 286.225 314.196 280.037 308.61 272.235C303.023 264.433 299.596 255.293 298.677 245.742C226.633 227.644 173.504 273.205 162.887 283.245C170.973 285.753 178.874 288.821 186.534 292.428C194.876 296.376 202.768 301.212 210.074 306.852C215.411 300.332 236.691 278.004 277.492 277.638C277.492 277.638 237.432 288.005 224.661 320.642C236.008 333.777 241.845 347.663 246.336 360.924C247.255 348.591 251.419 336.721 258.404 326.517C264.534 317.752 272.259 310.22 281.175 304.313C290.958 297.697 301.722 292.663 313.072 289.399H313.159L313.236 289.457C345.69 315.622 381.424 295.024 381.779 294.803H381.856H381.943C390.778 298.025 399.195 302.297 407.012 307.525C411.801 310.7 416.026 314.652 419.513 319.218C424.09 325.507 424.215 330.037 424.186 330.979L448.4 332.566L455.497 326.498C433.495 323.613 426.831 316.814 425.465 310.958C423.09 296.784 437.514 295.034 444.063 295.89C459.391 297.89 478.017 311.622 485.037 321.171L490.23 307.227C483.153 301.852 481.749 294.178 481.749 288.668Z" fill="white"/>
<path d="M13.5205 204.239C13.5205 204.239 22.9828 253.079 93.1901 212.739C73.7463 206.594 69.7844 193.43 46.5134 205.354C25.8195 215.932 13.5205 204.239 13.5205 204.239Z" fill="#FC4C02"/>
<path d="M396.415 231.933C396.285 232.797 395.951 233.618 395.439 234.327C394.928 235.036 394.254 235.612 393.475 236.008C392.695 236.403 391.832 236.606 390.958 236.601C390.084 236.595 389.224 236.38 388.45 235.974C387.676 235.569 387.01 234.984 386.508 234.268C386.006 233.553 385.682 232.727 385.564 231.861C385.445 230.995 385.536 230.114 385.828 229.29C386.12 228.466 386.604 227.724 387.241 227.125C371.057 219.182 362.585 217.97 362.585 217.97C382.193 230.981 390.559 241.838 390.559 241.838L395.857 238.222L445.419 265.936C425.706 249.8 409.301 239.078 396.415 231.933Z" fill="#0A2343"/>
<path d="M385.52 230.702C385.439 231.418 385.5 232.142 385.699 232.834C385.898 233.526 386.232 234.171 386.68 234.734C387.129 235.297 387.684 235.767 388.314 236.115C388.944 236.463 389.637 236.684 390.352 236.765C391.067 236.846 391.792 236.785 392.484 236.586C393.175 236.387 393.821 236.053 394.384 235.605C394.947 235.156 395.416 234.601 395.765 233.971C396.113 233.341 396.334 232.648 396.415 231.933C395.636 231.5 394.876 231.077 394.107 230.673L388.703 234.645L390.203 228.615C389.193 228.087 388.203 227.596 387.241 227.125C386.242 228.062 385.628 229.337 385.52 230.702Z" fill="#FC4C02"/>
<path d="M388.703 234.645L394.107 230.673C392.771 229.942 391.463 229.26 390.203 228.615L388.703 234.645Z" fill="#0A2343"/>
<path d="M474.806 279.167C463.132 283.831 478.171 297.217 478.171 297.217C445.467 271.398 474.806 279.167 474.806 279.167Z" fill="#0A2343"/>
<path d="M332.535 194.863C353.691 195.296 332.699 186.314 332.699 186.314C332.699 186.314 347.921 188.661 356.739 202.777C348.83 199.675 340.749 197.033 332.535 194.863Z" fill="#0A2343"/>
</g>
<defs>
<clipPath id="clip0_37_7167">
<rect width="500" height="293.167" fill="white" transform="translate(0 103)"/>
</clipPath>
</defs>
</svg>
