<svg width="500" height="500" viewBox="0 0 500 500" fill="none" xmlns="http://www.w3.org/2000/svg">
<g clip-path="url(#clip0_5_2507)">
<path d="M382.586 321.746C377.882 328.879 340.847 381.868 338.325 385.306C338.12 385.142 331.758 379.697 331.532 379.501C340.971 366.387 367.661 326.543 368.196 325.73C372.931 324.577 377.614 323.321 382.215 321.88L382.586 321.746Z" fill="white"/>
<path d="M400.229 315.333C393.517 325.945 356.905 381.117 348.248 393.643L348.042 393.489C346.776 392.336 345.14 390.946 343.328 389.433C346.282 385.223 380.126 334.88 390.049 319.296C393.476 318.071 396.852 316.733 400.229 315.333Z" fill="#B1BABF"/>
<path d="M305.058 413.963C303.833 417.051 302.66 422.3 303.143 426.139C303.244 426.928 303.399 427.709 303.607 428.476C300.714 441.764 295.115 441.981 293.633 441.785C293.507 441.77 293.384 441.746 293.262 441.713C298.789 436.813 298.615 427.941 304.255 415.61C304.513 415.043 304.801 414.467 305.079 413.891C305.078 413.916 305.071 413.941 305.058 413.963Z" fill="white"/>
<path d="M337.78 423.411C337.934 425.902 335.021 429.587 332.438 430.503C330.279 431.304 327.988 431.692 325.685 431.645C324.924 431.645 324.172 431.645 323.442 431.542C324.121 430.4 324.944 429.01 325.86 427.518C327.919 424.152 330.472 420.23 332.685 417.338C334.673 418.256 336.32 419.78 337.389 421.692C337.649 422.227 337.783 422.815 337.78 423.411Z" fill="#B1BABF"/>
<path d="M322.639 405.646C320.975 404.149 319.667 402.299 318.81 400.231C313.531 407.515 309.012 415.32 305.326 423.525C305.48 424.194 305.701 424.845 305.984 425.47C307.94 429.639 309.669 430.781 313.128 430.617C313.128 430.617 321.208 416.834 326.91 409.464C325.737 408.445 324.327 407.2 322.639 405.646Z" fill="#B1BABF"/>
<path d="M318.81 400.231C317.937 397.523 317.612 394.668 317.852 391.832L317.544 392.295C315.372 395.671 313.231 399.068 311.193 402.527C309.155 405.985 305.398 413.252 305.254 413.54C305.11 413.828 304.296 419.222 305.326 423.514C305.326 423.422 305.418 423.288 305.326 423.514C309.013 415.313 313.531 407.511 318.81 400.231Z" fill="white"/>
<path d="M354.414 416.268C352.705 408.765 343.163 401.446 340.961 399.799C336.246 395.682 324.059 386.109 322.906 384.051C321.661 381.807 316.02 374.159 308.3 372.615C308.3 372.615 307.014 372.43 306.828 373.428C306.736 374.036 306.993 374.602 307.909 374.849C310.526 375.288 312.947 376.516 314.847 378.369C316.234 379.693 317.33 381.293 318.062 383.066C318.794 384.838 319.147 386.745 319.098 388.662C319.024 390.783 319.451 392.891 320.345 394.816C321.24 396.74 322.576 398.427 324.244 399.738C328.31 402.774 333.107 407.9 337.317 409.073C337.566 409.143 337.821 409.188 338.078 409.207C340.868 409.454 343.513 406.943 343.091 405.533C343.51 406.684 343.612 407.927 343.385 409.131C343.159 410.335 342.613 411.457 341.805 412.378C346.478 416.979 348.742 422.228 347.281 426.953C345.417 433.026 338.634 441.188 326.231 441.023C317.399 440.91 312.212 438.45 309.947 437.04L310.76 435.218C305.614 436.464 303.689 428.795 303.607 428.455C300.714 441.744 295.115 441.96 293.633 441.764C293.507 441.75 293.384 441.726 293.262 441.692C293.688 443.074 294.389 444.356 295.323 445.46C296.257 446.563 297.404 447.467 298.697 448.115C297.596 447.78 296.41 447.853 295.359 448.322C294.307 448.791 293.46 449.623 292.974 450.667C292.488 451.711 292.396 452.895 292.713 454.001C293.031 455.108 293.737 456.063 294.703 456.69C295.228 457.037 295.815 457.278 296.433 457.398C297.05 457.518 297.685 457.516 298.302 457.39C298.918 457.265 299.504 457.02 300.026 456.668C300.548 456.317 300.995 455.866 301.342 455.341C301.69 454.817 301.93 454.229 302.051 453.611C302.171 452.994 302.168 452.359 302.043 451.742C301.918 451.126 301.672 450.54 301.321 450.018C300.969 449.497 300.518 449.049 299.994 448.702C299.881 448.63 299.778 448.589 299.664 448.527C300.273 448.764 300.904 448.94 301.548 449.052C307.312 450.009 309.206 447.23 309.206 447.23C308.924 446.619 308.703 445.981 308.547 445.326C308.547 445.326 302.845 449.34 296.546 442.969C298.46 443.51 300.476 443.58 302.423 443.175C307.765 442.382 308.496 440.704 308.856 440.395C308.85 440.344 308.85 440.292 308.856 440.241C313.478 442.753 318.583 443.926 325.85 444.07C334.002 444.225 341.805 441.672 346.436 437.668C351.068 433.664 356.441 425.223 354.414 416.268Z" fill="#B1BABF"/>
<path d="M480.062 28.041C480.062 28.041 481.225 49.3581 477.201 68.8739C473.31 87.731 471.169 94.9156 471.169 94.9156C462.934 99.7431 449.605 105.682 430.12 108.925C393.754 114.987 360.754 105.219 324.728 91.0763C288.702 76.9335 240.479 61.6996 195.745 66.8359C163.109 70.5067 131.883 82.174 104.836 100.803C88.3667 112.249 85.2787 115.275 71.1565 119.331C71.1565 119.331 82.2731 123.706 87.9961 123.706C87.9961 123.706 85.2993 134.832 86.3081 138.528C86.3081 138.528 109.879 127.751 112.576 132.805C115.273 137.859 104.156 141.235 96.4159 143.242C88.6755 145.249 68.4597 144.92 68.4597 144.92C68.4597 144.92 77.9397 152.259 81.285 157.354C81.285 157.354 63.4161 165.135 43.54 162.439C43.54 162.439 42.8813 169.798 59.2165 181.852C55.7374 183.097 51.3319 185.114 48.6042 188.027C48.6042 188.027 65.7218 184.497 76.4781 196.478C77.7611 197.935 78.7288 199.642 79.3204 201.492C79.912 203.341 80.1148 205.293 79.916 207.224C79.3293 214.501 76.5398 217.281 69.6846 221.81C65.4902 223.498 61.4387 225.522 57.5696 227.862C38.6405 239.493 24.7962 257.197 15.0795 277.423C10.8803 286.479 7.54756 295.912 5.12598 305.596C3.30031 313.04 2.02736 320.609 1.31752 328.241C0.761692 333.387 0 349.568 0 349.568C0 349.568 8.49184 337.669 12.4753 331.967C16.4587 326.264 41.5534 294.706 78.1353 285.555C89.413 282.722 101 281.304 112.628 281.335C139.39 281.335 163.311 288.54 177.474 295.508C198.061 305.452 231.771 328.92 276.021 336.259C287.029 338.017 298.162 338.878 309.309 338.832C320.775 338.808 332.227 338.01 343.585 336.444C337.059 346.182 330.815 355.271 324.852 363.711C320.894 360.195 315.941 357.997 310.678 357.422C300.756 356.485 295.784 362.568 295.784 362.568C293.638 364.886 292.208 367.774 291.667 370.885C291.207 373.728 291.451 376.64 292.377 379.367C294.271 385.378 299.407 388.116 301.404 388.991C286.87 408.239 282.66 430.503 282.66 430.503L276.042 436.339L278.43 446.015C274.745 457.883 280.488 466.786 288.033 470.471C292.607 472.704 297.82 473.261 302.763 472.046C307.403 470.749 311.422 467.827 314.085 463.812C314.495 463.199 314.87 462.563 315.207 461.908C316.645 461.14 317.989 460.207 319.211 459.128C321.27 459.365 326.653 459.53 326.653 459.53C337.626 459.437 348.351 456.329 356.503 449.381C362.947 443.617 370.039 433.787 370.286 420.354C370.467 416.414 369.859 412.477 368.496 408.775C367.133 405.074 365.043 401.682 362.35 398.8C415.349 320.984 449.759 270.887 471.725 219.916C529.922 84.818 480.278 28.4836 480.062 28.041ZM385.581 353.603C374.259 370.762 363.451 386.541 354.702 399.274C357.82 401.782 360.305 404.988 361.956 408.634C363.606 412.28 364.376 416.263 364.203 420.261C364.007 431.512 358.027 439.911 352.53 444.821C345.706 450.637 336.38 453.457 326.54 453.529C323.278 453.47 320.023 453.212 316.792 452.757C315.188 454.902 312.997 456.536 310.483 457.461C310.11 458.531 309.605 459.552 308.98 460.497C307.699 462.424 305.963 464.006 303.925 465.101C301.887 466.196 299.611 466.772 297.297 466.776C294.551 466.656 291.877 465.856 289.515 464.45C287.575 463.175 285.982 461.438 284.879 459.396C283.776 457.353 283.197 455.068 283.195 452.747V452.623C283.206 450.403 283.75 448.218 284.781 446.252C284.307 445.13 282.65 438.429 282.65 438.429L287.004 434.62C287.354 434.415 288.424 432.798 289.629 428.671C291.226 422.88 293.228 417.208 295.619 411.698C299.661 403.271 304.28 395.134 309.443 387.344C309.042 385.285 306.911 384.38 305.377 384.009C303.233 383.446 301.307 382.252 299.85 380.581C298.793 379.422 298.027 378.027 297.615 376.513C297.203 374.999 297.158 373.409 297.482 371.873C297.778 370.24 298.455 368.7 299.459 367.379C300.462 366.057 301.763 364.991 303.257 364.267C305.407 363.31 307.795 363.02 310.112 363.433C319.139 364.267 325.809 372.645 325.809 372.645C334.795 360.108 355.659 329.013 356.143 328.385C328.743 333.624 300.436 334.334 276.886 330.443C234.138 323.351 201.252 300.593 180.007 290.218C158.762 279.842 118.248 269.23 76.5399 279.853C34.832 290.475 7.23608 328.93 7.23608 328.93C19.7011 241.109 74.1415 226.308 79.2881 224.825C87.2138 217.404 97.6099 194.759 72.9887 179.484C67.5112 175.994 62.3455 172.037 57.549 167.657C62.6956 168.265 74.8003 166.628 81.5114 164.014C86.4966 162.067 91.6712 160.646 96.9512 159.773C90.59 153.71 80.8733 150.674 80.8733 150.674C90.5797 150.066 105.752 146.731 115.149 142.439C124.547 138.147 129.704 130.612 128.181 127.277C126.657 123.942 118.176 125.764 118.176 125.764C121.212 121.215 128.469 119.393 128.469 119.393C115.632 118.812 102.949 122.381 92.2987 129.573C94.6249 124.58 102.273 115.605 102.273 115.605C99.3701 116.562 91.3311 119.074 90.8268 119.228C123.682 93.9172 160.254 71.6428 211.493 71.2722C262.733 70.9017 312.634 93.9172 345.891 104.54C379.148 115.162 396.821 120.556 432.755 115.245C449.955 112.692 465.014 105.641 476.048 99.0329C476.048 99.0329 483.768 79.4038 484.354 51.2212C484.354 51.2212 493.618 67.8137 493.618 93.6496C493.711 182.315 450.747 247.017 437.006 270.692C423.903 293.872 406.672 321.643 385.581 353.603Z" fill="#B1BABF"/>
<path d="M305.336 423.484V423.422V423.484ZM484.354 51.2627C483.768 79.4453 476.048 99.0744 476.048 99.0744C465.014 105.683 449.955 112.733 432.755 115.286C396.821 120.597 379.169 115.224 345.891 104.581C312.613 93.9381 262.722 70.9741 211.493 71.2726C160.264 71.5711 123.682 93.9175 90.9194 119.187C91.4237 119.033 99.4627 116.521 102.365 115.564C102.365 115.564 94.7175 124.54 92.3913 129.532C103.041 122.341 115.724 118.771 128.561 119.352C128.561 119.352 121.284 121.174 118.268 125.723C118.268 125.723 126.76 123.891 128.273 127.236C129.786 130.582 124.619 138.178 115.221 142.398C105.824 146.618 90.6518 149.984 80.9453 150.633C80.9453 150.633 90.662 153.669 97.0232 159.732C91.7432 160.605 86.5686 162.026 81.5835 163.973C74.8724 166.628 62.7779 168.224 57.621 167.616C62.4175 171.996 67.5833 175.953 73.0608 179.443C97.682 194.718 87.2859 217.363 79.3602 224.785C74.1415 226.267 19.7423 241.068 7.30814 328.89C7.30814 328.89 34.8732 290.434 76.6119 279.812C118.351 269.189 158.834 279.812 180.079 290.177C201.324 300.542 234.21 323.311 276.958 330.403C300.467 334.304 328.773 333.594 356.215 328.344C355.772 329.023 334.867 360.119 325.881 372.605C325.881 372.605 319.211 364.226 310.184 363.392C307.867 362.979 305.479 363.269 303.329 364.226C301.835 364.95 300.534 366.016 299.531 367.338C298.527 368.66 297.85 370.2 297.554 371.833C297.23 373.368 297.276 374.958 297.687 376.472C298.099 377.986 298.865 379.381 299.922 380.541C301.379 382.211 303.305 383.405 305.449 383.968C306.983 384.339 309.114 385.275 309.515 387.303C304.352 395.093 299.733 403.23 295.691 411.657C293.3 417.167 291.298 422.839 289.701 428.63C288.496 432.747 287.426 434.374 287.076 434.58L282.742 438.398C282.742 438.398 284.4 445.099 284.873 446.221C283.842 448.187 283.299 450.372 283.288 452.593V452.716C283.274 455.04 283.837 457.331 284.928 459.382C286.018 461.434 287.602 463.183 289.536 464.471C291.898 465.877 294.571 466.677 297.318 466.797C299.631 466.793 301.908 466.217 303.946 465.122C305.984 464.027 307.72 462.445 309 460.518C309.625 459.572 310.13 458.552 310.503 457.482C313.017 456.557 315.209 454.923 316.813 452.778C320.043 453.233 323.299 453.491 326.56 453.55C336.401 453.478 345.726 450.658 352.551 444.842C358.027 439.911 364.027 431.533 364.202 420.262C364.37 416.259 363.592 412.274 361.932 408.627C360.273 404.981 357.778 401.777 354.65 399.274C363.431 386.583 374.207 370.762 385.53 353.603C406.62 321.643 423.872 293.903 436.996 270.682C450.727 247.11 493.69 182.356 493.608 93.6396C493.608 67.8553 484.354 51.2627 484.354 51.2627ZM368.165 325.73C372.9 324.577 377.584 323.321 382.185 321.88L382.586 321.746C377.882 328.879 340.847 381.868 338.325 385.306C338.12 385.142 331.758 379.697 331.532 379.501C340.94 366.387 367.63 326.543 368.165 325.73ZM311.193 402.527C313.251 399.068 315.372 395.672 317.544 392.295L317.852 391.832C317.612 394.668 317.937 397.523 318.81 400.231C319.667 402.299 320.975 404.148 322.639 405.646C324.327 407.2 325.727 408.445 326.91 409.423C321.208 416.793 313.128 430.576 313.128 430.576C309.669 430.781 307.981 429.639 305.984 425.429C305.701 424.804 305.48 424.152 305.326 423.484C304.296 419.191 305.233 413.664 305.254 413.51C305.274 413.355 309.237 405.8 311.193 402.527ZM332.685 417.339C334.673 418.256 336.32 419.781 337.389 421.693C337.649 422.228 337.783 422.816 337.78 423.412C337.934 425.902 335.021 429.587 332.438 430.504C330.279 431.305 327.988 431.693 325.686 431.646C324.924 431.646 324.172 431.646 323.442 431.543C324.121 430.401 324.944 429.011 325.86 427.518C327.919 424.153 330.472 420.21 332.685 417.339ZM346.436 437.709C341.846 441.713 334.085 444.265 325.85 444.111C318.583 443.967 313.498 442.794 308.856 440.282C308.85 440.333 308.85 440.385 308.856 440.436C308.496 440.745 307.765 442.423 302.423 443.216C300.476 443.621 298.46 443.551 296.546 443.01C302.845 449.381 308.547 445.367 308.547 445.367C308.703 446.022 308.924 446.66 309.206 447.271C309.206 447.271 307.312 450.05 301.548 449.093C300.904 448.981 300.273 448.805 299.664 448.568C299.778 448.63 299.881 448.671 299.994 448.743C301.025 449.407 301.768 450.436 302.071 451.625C302.375 452.814 302.218 454.073 301.632 455.151C301.046 456.228 300.073 457.044 298.91 457.434C297.747 457.825 296.48 457.76 295.362 457.255C294.244 456.749 293.359 455.84 292.885 454.708C292.41 453.577 292.381 452.308 292.803 451.156C293.225 450.005 294.067 449.055 295.161 448.499C296.254 447.942 297.517 447.82 298.697 448.156C297.404 447.508 296.257 446.604 295.323 445.501C294.389 444.397 293.688 443.115 293.262 441.733C298.79 436.834 298.615 427.961 304.255 415.63C304.513 415.064 304.801 414.487 305.079 413.911C305.083 413.931 305.083 413.952 305.079 413.973C303.854 417.061 302.68 422.31 303.164 426.15C303.265 426.938 303.42 427.719 303.627 428.486C303.71 428.826 305.604 436.494 310.781 435.249L309.968 437.071C312.232 438.481 317.42 440.941 326.252 441.054C338.655 441.219 345.438 433.056 347.301 426.983C348.763 422.259 346.498 417.009 341.825 412.408C342.634 411.487 343.179 410.366 343.406 409.162C343.632 407.958 343.531 406.715 343.112 405.563C343.534 406.973 340.888 409.485 338.099 409.238C337.841 409.218 337.586 409.173 337.337 409.104C333.127 407.931 328.331 402.805 324.265 399.768C322.596 398.457 321.26 396.771 320.366 394.847C319.472 392.922 319.044 390.814 319.118 388.693C319.167 386.775 318.815 384.869 318.082 383.096C317.35 381.323 316.255 379.724 314.867 378.4C312.968 376.547 310.547 375.318 307.93 374.879C307.014 374.632 306.756 374.066 306.849 373.459C307.034 372.43 308.321 372.646 308.321 372.646C316.041 374.19 321.702 381.837 322.927 384.081C324.08 386.14 336.308 395.661 340.981 399.83C343.184 401.436 352.726 408.754 354.434 416.299C356.441 425.223 351.017 433.705 346.436 437.709ZM348.207 393.654L348.001 393.5C346.735 392.347 345.098 390.957 343.287 389.444C346.241 385.234 380.085 334.89 390.007 319.307C393.476 318.082 396.852 316.744 400.187 315.344C393.476 325.946 356.863 381.096 348.207 393.644V393.654ZM411.222 301.613C387.897 312.482 334.074 330.506 280.499 320.501C261.847 317.022 237.267 311.237 204.834 291.515C183.537 278.618 160.573 266.287 106.936 266.523C62.5309 266.74 34.0086 286.863 24.93 294.315C49.0057 215.716 120.255 227.214 120.255 227.214C107.255 220.976 91.6502 223.364 91.6502 223.364C113.966 188.254 78.0118 171.816 78.0118 171.816C81.038 171.816 94.6867 167.874 101.686 165.445C108.685 163.015 121.469 161.327 121.469 161.327C117.002 157.21 103.199 153.906 103.199 153.906C116.241 153.906 128.047 147.586 136.261 139.032C139.122 136.058 146.955 121.163 138.072 115.358C129.9 110.047 113.688 115.945 113.678 115.955C113.667 115.965 162.21 63.6659 262.321 86.0021C309.813 96.604 363.348 124.416 412.776 124.715C429.389 124.818 466.043 119.424 487.916 97.4069C486.691 139.29 478.92 197.878 411.222 301.602V301.613ZM305.367 423.412V423.484V423.422C305.367 423.422 305.367 423.422 305.367 423.412Z" fill="black"/>
<path d="M412.724 124.797C363.317 124.498 309.793 96.6864 262.269 86.0844C162.158 63.7483 113.647 116.017 113.626 116.037C113.605 116.058 129.848 110.129 138.021 115.44C146.904 121.215 139.05 136.109 136.209 139.115C127.975 147.668 116.189 153.988 103.148 153.988C103.148 153.988 116.951 157.303 121.418 161.41C121.418 161.41 108.613 163.087 101.635 165.527C94.6558 167.966 81.0483 171.898 77.9603 171.898C77.9603 171.898 113.914 188.367 91.5987 223.446C91.5987 223.446 107.203 221.058 120.203 227.296C120.203 227.296 48.9748 215.799 24.8785 294.418C33.9571 286.935 62.4794 266.812 106.884 266.626C160.491 266.39 183.486 278.721 204.782 291.618C237.247 311.299 261.796 317.124 280.447 320.604C334.044 330.608 387.866 312.585 411.17 301.716C478.92 197.878 486.691 139.29 487.864 97.4583C465.991 119.475 429.338 124.869 412.724 124.797ZM375.978 244.609C352.015 261.562 314.497 266.739 314.497 266.739C314.075 268.366 311.594 270.074 311.594 270.074C311.594 270.074 315.434 271.495 324.862 278.587C334.291 285.679 331.728 285.329 334.733 287.357C337.739 289.384 339.447 288.808 339.447 288.808C340.051 290.246 340.399 291.779 340.477 293.337C341.733 294.521 347.878 300.388 342.165 306.461C336.452 312.534 329.813 306.893 329.813 306.893C328.276 307.169 326.695 307.074 325.202 306.615C325.202 306.615 312.973 314.314 300.828 305.925C290.946 299.111 291.564 291.031 292.12 288.242C288.764 290.14 285.213 291.669 281.528 292.802C271.616 295.89 258.965 297.197 246.397 293.018C238.671 290.325 231.665 285.899 225.914 280.079C221.027 275.242 216.975 269.628 213.923 263.466C213.531 262.653 213.161 261.85 212.831 261.068C211.967 263.127 207.829 270.939 195.014 270.383C180.264 269.745 175.148 256.23 175.148 256.23C173.686 255.693 172.37 254.818 171.309 253.677C171.309 253.677 162.642 254.192 161.736 245.896C160.83 237.6 169.291 236.632 171 236.447C171.991 235.245 173.186 234.227 174.531 233.441C174.531 233.441 175.56 234.934 179.173 235.129C182.786 235.325 180.542 234.1 192.338 234.1C204.134 234.1 208.045 235.314 208.045 235.314C208.045 235.314 207.098 232.453 207.747 230.899C207.747 230.899 180.984 204.137 172.071 176.16C163.157 148.183 165.895 137.807 176.692 108.307C176.692 108.307 184.69 158.569 209.239 190.148C221.189 205.277 234.85 218.972 249.949 230.96H250.7C248.309 228.361 246.592 225.216 245.697 221.8C243.505 213.153 239.913 205.114 238.266 198.712C236.619 192.31 240.324 179.484 240.324 179.484C235.404 171.6 237.803 158.62 237.803 158.62C239.596 157.697 241.19 156.431 242.496 154.894C244.555 152.424 243.814 145.136 245.461 134.411C247.108 123.685 254.066 112.6 269.506 106.269C284.945 99.939 307.981 108.225 308.187 108.328C308.393 108.431 331.789 115.749 340.271 130.036C348.752 144.323 347.733 157.457 342.587 166.999C337.44 176.541 332.469 181.934 332.603 185.125C332.711 187.137 333.218 189.107 334.095 190.92C334.095 190.92 328.176 202.726 319.438 206.113C319.438 206.113 314.631 218.537 309.443 222.654C304.255 226.771 296.556 231.012 289.587 236.591C286.884 238.728 283.707 240.186 280.324 240.842L280.993 241.336C300.203 240.883 319.297 238.21 337.893 233.369C376.523 222.973 413.218 187.709 413.218 187.709C404.027 217.693 399.93 227.615 375.978 244.578V244.609Z" fill="#A30D2D"/>
<path d="M287.858 190.169L288.435 188.471C289.011 186.731 287.724 185.949 287.652 183.139C287.447 181.617 287.57 180.07 288.013 178.6C288.211 177.908 288.145 177.168 287.827 176.523C287.509 175.878 286.963 175.374 286.294 175.11L285.995 174.997L285.727 174.925C285.034 174.722 284.289 174.786 283.64 175.107C282.992 175.427 282.488 175.979 282.228 176.654C281.685 178.091 280.843 179.396 279.757 180.483C277.997 182.686 276.495 182.542 275.918 184.271L275.342 185.969C275.199 186.453 275.193 186.966 275.324 187.453C275.455 187.94 275.717 188.381 276.083 188.728C276.434 189.108 276.872 189.397 277.359 189.572C278.084 189.851 278.89 189.831 279.6 189.516C280.31 189.202 280.866 188.618 281.147 187.894C281.191 187.777 281.279 187.681 281.392 187.627C281.506 187.574 281.635 187.566 281.754 187.606C281.876 187.646 281.977 187.732 282.036 187.845C282.096 187.959 282.109 188.091 282.073 188.213C281.86 188.957 281.951 189.755 282.325 190.432C282.699 191.11 283.327 191.611 284.07 191.826C284.561 191.972 285.078 192.007 285.583 191.929C286.089 191.877 286.57 191.684 286.972 191.373C287.374 191.062 287.681 190.645 287.858 190.169Z" fill="black"/>
<path d="M295.012 172.999C295.012 174.904 295.671 182.263 298.892 184.188H298.964C302.186 186.391 308.897 187.42 312.088 187.029C312.505 186.952 312.918 186.853 313.323 186.73C314.729 186.075 316.022 185.199 317.153 184.137C318.679 182.504 319.905 180.616 320.776 178.558C321.164 177.666 321.487 176.748 321.743 175.809C321.743 175.809 322.423 172.721 323.74 172.227L324.152 172.166H324.244C321.367 171.531 318.406 171.364 315.475 171.672L314.137 171.857C308.939 172.804 304.09 173.596 300.755 172.474C299.714 172.109 298.75 171.55 297.915 170.828L297.297 170.272C296.568 169.574 295.907 168.808 295.321 167.987L295.259 167.904C295.238 167.925 295.002 171.116 295.012 172.999Z" fill="black"/>
<path d="M257.463 150.025C258.235 151.188 256.896 154.081 256.896 154.081C256.563 154.923 256.285 155.786 256.063 156.664C255.291 159.66 255.033 163.375 256.238 166.36C256.289 166.463 257.071 167.822 257.03 167.863C256.959 167.927 256.884 167.986 256.804 168.038L257.03 167.874C257.03 167.874 257.514 168.543 257.823 168.903C260.128 171.136 266.109 174.358 270.01 174.554H270.103C273.829 174.966 278.769 169.49 279.932 167.966C281.096 166.443 282.856 163.746 282.856 163.746C281.849 164.059 280.815 164.279 279.768 164.405C279.5 164.405 279.222 164.425 278.934 164.467H278.883C277.78 164.538 276.674 164.405 275.62 164.075C272.295 162.964 268.909 159.402 265.327 155.511C265.018 155.182 264.699 154.863 264.369 154.554C262.229 152.546 259.774 150.901 257.102 149.686C257.102 149.686 257.102 149.686 257.102 149.686L257.463 150.025Z" fill="black"/>
<path d="M266.418 233.286H266.49C268.409 233.967 270.397 234.437 272.418 234.686C274.608 234.922 276.821 234.835 278.985 234.429C283.916 233.554 289.557 228.5 291.677 226.997C293.797 225.494 301.836 220.193 303.648 218.907C305.823 217.535 307.617 215.637 308.866 213.39C310.74 210.219 313.9 202.86 313.9 202.86C313.9 202.86 310.863 202.263 309.855 202.139V202.222C309.402 203.014 305.737 209.427 304.461 210.744H304.358C305.14 211.197 307.446 212.638 307.827 214.326C305.245 216.611 302.347 218.511 299.222 219.967C294.104 222.463 289.165 225.311 284.441 228.49C283.105 229.333 281.614 229.9 280.056 230.157C278.913 228.099 274.909 225.577 269.763 223.847C264.41 222.046 259.47 221.707 257.473 222.818C256.23 221.601 255.27 220.125 254.663 218.495C252.807 213.112 250.582 207.864 248.003 202.788C246.392 199.738 245.227 196.473 244.545 193.092C246.15 191.743 249.784 192.371 249.784 192.371C249.764 192.028 249.764 191.685 249.784 191.342C249.784 188.655 250.566 183.107 250.669 182.304C250.671 182.273 250.671 182.243 250.669 182.212C249.804 181.697 247.005 180.349 247.005 180.349C247.003 180.376 247.003 180.404 247.005 180.431C246.789 181.306 245.09 188.357 244.699 191.753C244.334 194.298 244.621 196.894 245.533 199.298C246.212 201.419 249.413 210.497 250.196 212.968C250.298 213.276 250.412 213.668 250.535 214.11C251.379 217.25 252.861 223.374 255.836 226.555C258.688 229.716 262.346 232.042 266.418 233.286Z" fill="#B1BABF"/>
<path d="M277.359 152.465C280.962 156.582 286.623 161.831 290.051 162.933C293.478 164.034 301.105 163.386 306.52 162.243C311.944 161.368 320.004 162.243 320.004 162.161C316.669 158.044 305.346 159.217 298.965 159.515C293.437 159.948 291.759 159.124 291.399 158.98C291.039 158.836 289.207 158.527 285.038 154.863C280.138 150.746 271.811 143.016 266.685 144.292C266.665 144.405 273.623 148.522 277.359 152.465Z" fill="#B1BABF"/>
<path d="M256.227 172.052C256.094 171.867 254.416 169.459 256.557 168.203L256.804 168.038C256.884 167.986 256.959 167.927 257.03 167.863C257.03 167.863 256.289 166.463 256.238 166.36C255.002 163.375 255.291 159.659 256.063 156.664C256.285 155.786 256.563 154.923 256.896 154.081C256.896 154.081 258.235 151.188 257.463 150.025L257.174 149.727H257.113C257.113 149.727 252.903 157.436 252.532 161.43C252.162 165.424 251.863 169.119 256.227 172.052Z" fill="#B1BABF"/>
<path d="M270.103 174.523C270.103 174.523 270.175 175.768 267.519 177.538C267.519 177.538 271.801 178.907 275.023 177.137C278.244 175.367 282.526 167.286 287.961 169.047C293.396 170.807 291.893 179.947 293.396 183.303C294.899 186.658 298.882 188.058 299.129 188.14C298.1 185.145 298.903 184.188 298.903 184.188C295.681 182.263 295.033 174.924 295.022 172.999C295.012 171.074 295.238 167.925 295.249 167.853C292.83 169.098 283.988 166.134 282.897 163.735C282.897 163.735 281.126 166.442 279.974 167.956C278.821 169.469 273.829 174.934 270.103 174.523Z" fill="#B1BABF"/>
<path d="M323.761 172.269C322.443 172.732 321.764 175.851 321.764 175.851C321.508 176.789 321.184 177.708 320.796 178.6C319.926 180.658 318.699 182.546 317.173 184.178C316.042 185.241 314.75 186.116 313.344 186.772C313.383 186.955 313.438 187.134 313.509 187.308C314.487 189.706 311.45 190.591 311.45 190.591C316.73 190.879 318.748 187.73 320.868 184.312C322.989 180.895 324.286 172.218 324.286 172.218H324.193L323.761 172.269Z" fill="#B1BABF"/>
<path d="M251.101 179.217C253.178 180.108 255.209 181.104 257.185 182.202C260.128 183.869 263.299 185.835 264.524 189.181C264.519 189.211 264.519 189.243 264.524 189.273C264.845 190.158 264.892 191.12 264.657 192.032C264.646 191.888 264.604 191.747 264.534 191.62C264.266 191.095 263.803 190.714 263.505 190.22C262.863 189.442 262.122 188.75 261.302 188.162C260.904 189.513 260.355 190.814 259.665 192.042C258.988 193.148 258.383 194.296 257.854 195.48C257.858 195.5 257.858 195.522 257.854 195.542C256.608 198.774 258.06 202.191 258.399 202.212C258.739 202.232 259.655 201.852 261.271 197.312C261.344 197.132 261.403 196.946 261.446 196.757C261.465 196.443 261.423 196.128 261.322 195.83C261.518 195.089 262.465 195.151 263.062 195.223C263.267 195.241 263.47 195.276 263.669 195.326C264.098 194.299 264.442 193.239 264.699 192.155C265.143 190.517 265.163 188.793 264.756 187.145C264.349 185.497 263.529 183.98 262.372 182.737C259.439 179.392 251.894 176.901 249.074 175.481C246.253 174.06 243.701 167.246 244.04 162.521C244.04 162.521 243.773 165.146 243.773 167.792C243.76 168.802 243.808 169.813 243.917 170.818C243.971 171.227 244.05 171.633 244.153 172.032C244.946 174.781 245.039 176.551 251.101 179.217Z" fill="#B1BABF"/>
<path d="M292.984 206.01C293.2 206.133 293.55 206.267 293.684 206.494C293.83 206.686 293.96 206.889 294.075 207.101L293.18 207.245C293.015 207.245 292.274 207.502 292.274 207.729C290.833 212.34 291.245 213.153 291.615 213.369C291.986 213.586 295.115 211.722 296.072 208.387C296.072 208.387 296.607 205.577 296.721 204.476C296.918 203.091 297.263 201.732 297.75 200.421C295.979 200.263 294.202 200.658 292.665 201.553C292.045 202.73 291.644 204.01 291.481 205.33C291.481 205.33 292.737 205.876 292.984 206.01Z" fill="#B1BABF"/>
<path d="M315.361 197.683C312.274 197.107 304.729 194.595 300.375 195.449C298.941 195.705 297.579 196.268 296.384 197.1C295.188 197.931 294.186 199.012 293.447 200.267C293.447 200.267 293.447 200.267 293.447 200.267C295.856 197.487 300.231 197.601 303.535 198.023C306.12 198.369 308.683 198.861 311.213 199.495C317.677 201.018 318.81 199.67 321.136 197.92C323.139 196.271 324.791 194.238 325.994 191.939L326.066 191.826C323.225 195.202 318.11 198.187 315.361 197.683Z" fill="#B1BABF"/>
<path d="M288.98 184.363V184.301C288.784 183.023 288.865 181.717 289.217 180.472C289.505 179.375 289.363 178.21 288.822 177.214C288.281 176.218 287.381 175.465 286.304 175.109C286.973 175.373 287.52 175.877 287.838 176.522C288.155 177.167 288.221 177.908 288.023 178.599C287.58 180.069 287.457 181.617 287.663 183.138C287.735 185.948 289.021 186.73 288.445 188.47L287.868 190.168C287.691 190.644 287.384 191.062 286.982 191.373C286.58 191.684 286.099 191.876 285.594 191.928C285.598 191.949 285.598 191.97 285.594 191.99C285.405 192.482 285.106 192.924 284.718 193.281C284.331 193.638 283.866 193.901 283.36 194.049C285.872 194.883 288.507 193.802 289.237 191.609L289.783 189.983C290.095 188.965 290.029 187.869 289.598 186.895C289.245 186.094 289.036 185.237 288.98 184.363Z" fill="#B1BABF"/>
<path d="M275.342 185.969L275.918 184.271C276.495 182.531 277.977 182.686 279.757 180.483C280.843 179.396 281.685 178.091 282.228 176.654C282.488 175.979 282.992 175.427 283.64 175.107C284.289 174.786 285.034 174.721 285.728 174.925C284.653 174.548 283.474 174.595 282.433 175.059C281.392 175.522 280.568 176.365 280.128 177.416C279.666 178.631 278.934 179.725 277.987 180.617C277.425 181.283 276.749 181.844 275.99 182.274C275.037 182.78 274.304 183.619 273.932 184.631L273.386 186.257C272.655 188.44 274.096 190.889 276.597 191.733C276.281 191.312 276.068 190.823 275.973 190.305C275.878 189.787 275.905 189.254 276.052 188.748C276.047 188.725 276.047 188.7 276.052 188.676C275.701 188.331 275.45 187.897 275.325 187.42C275.2 186.944 275.206 186.443 275.342 185.969Z" fill="#B1BABF"/>
<path d="M244.534 193.133C245.217 196.514 246.382 199.78 247.993 202.83C250.571 207.906 252.797 213.154 254.653 218.537C255.26 220.167 256.219 221.643 257.463 222.86C259.47 221.748 264.4 222.088 269.753 223.889C274.899 225.619 278.893 228.151 280.046 230.199C281.604 229.942 283.095 229.375 284.431 228.532C289.155 225.353 294.094 222.505 299.212 220.009C302.337 218.553 305.235 216.653 307.817 214.368C307.425 212.68 305.13 211.28 304.348 210.786C303.187 210.96 302.07 211.351 301.054 211.939C299.973 212.732 296.062 218.547 290.946 220.74C291.43 217.858 289.567 216.365 289.083 216.417C288.599 216.468 288.239 217.6 288.136 217.888C288.033 218.177 287.045 220.122 286.716 221.038C286.386 221.954 286.479 222.067 286.479 222.067C285.655 222.067 284.832 221.995 284.019 221.934C284.801 220.451 285.501 218.98 286.16 217.518C286.236 217.368 286.275 217.202 286.272 217.034C286.269 216.865 286.225 216.7 286.144 216.553C286.063 216.406 285.947 216.281 285.806 216.189C285.665 216.097 285.504 216.041 285.336 216.025C284.606 215.912 283.875 215.799 283.144 215.655H283.072C282.76 215.577 282.432 215.611 282.142 215.75C281.853 215.889 281.621 216.125 281.487 216.417L281.209 217.106C280.869 217.909 280.509 218.722 280.179 219.525C280.173 219.576 280.156 219.626 280.128 219.669C279.881 220.266 279.859 220.931 280.066 221.543C279.358 221.529 278.652 221.453 277.956 221.316C277.526 221.207 277.106 221.063 276.7 220.884C276.982 220.614 277.203 220.288 277.349 219.927C278.08 218.146 279.202 215.377 279.202 215.377C279.202 215.377 279.644 214.183 278.872 213.956C277.843 213.699 276.814 213.411 275.784 213.102C275.532 213.043 275.267 213.082 275.042 213.209C274.817 213.337 274.648 213.545 274.57 213.792C274.405 214.203 274.127 214.821 274.024 215.14L272.84 218.537C272.845 218.554 272.845 218.572 272.84 218.588C272.711 219.05 272.711 219.537 272.84 219.999C272.84 219.999 271.811 219.793 271.307 219.649C270.831 219.478 270.38 219.243 269.969 218.949C270.138 218.719 270.273 218.466 270.37 218.197C270.844 216.509 271.307 214.399 271.708 212.629C271.752 212.366 271.706 212.095 271.577 211.862C271.448 211.628 271.244 211.445 270.998 211.342C270.113 211.013 269.228 210.673 268.363 210.313C268.231 210.282 268.095 210.278 267.961 210.3C267.828 210.323 267.7 210.371 267.585 210.443C267.471 210.514 267.371 210.608 267.293 210.718C267.214 210.828 267.158 210.953 267.128 211.085C266.778 212.68 266.376 214.595 266.098 215.984C266.028 216.554 266.144 217.132 266.428 217.631C265.782 217.427 265.149 217.183 264.534 216.9C264.051 216.655 263.583 216.38 263.134 216.077C263.628 216.077 263.906 214.986 263.906 214.986C264.452 213.843 264.822 212.855 265.254 211.774C265.254 211.774 265.254 211.682 265.306 211.63V211.527C265.447 211.209 265.473 210.852 265.381 210.516C265.289 210.181 265.085 209.887 264.802 209.685C263.649 209.108 262.352 208.429 262.341 208.429C262.227 208.36 262.097 208.32 261.963 208.313C261.83 208.306 261.696 208.331 261.575 208.387C261.453 208.442 261.347 208.527 261.265 208.633C261.184 208.739 261.129 208.863 261.106 208.995C260.525 210.245 260.053 211.544 259.696 212.876C259.627 213.325 259.61 213.781 259.645 214.234C258.746 213.834 257.997 213.16 257.504 212.31C258.096 211.239 258.401 210.033 258.389 208.81C258.389 207.328 258.492 205.948 257.802 205.454C257.113 204.96 255.96 206.206 255.363 207.091C255.054 207.515 254.811 207.984 254.642 208.48V208.594C251.863 203.756 252.254 196.736 251.873 195.449C251.388 194.339 250.709 193.325 249.866 192.454C249.866 192.454 246.14 191.785 244.534 193.133Z" fill="white"/>
<path d="M285.975 174.996L286.273 175.109L285.975 174.996Z" fill="white"/>
<path d="M361.763 237.455L361.567 237.62C361.567 237.62 335.176 253.327 295.105 256.199C296.332 258.014 297.456 259.897 298.47 261.84C310.991 261.245 323.413 259.32 335.526 256.096C343.176 254.006 350.635 251.268 357.821 247.913C365.121 244.574 372 240.383 378.314 235.427C382.365 232.174 386.151 228.605 389.637 224.753C394.433 219.432 398.808 213.091 401.175 206.277L401.361 205.711C401.134 206.164 393.507 223.693 361.763 237.455Z" fill="#B1BABF"/>
<path d="M288.167 247.666C289.729 249.274 291.203 250.964 292.583 252.731L297.431 252.36C304.78 251.743 312.129 250.857 319.396 249.54C332.343 247.24 345.061 243.795 357.399 239.247C358.912 238.65 360.353 238.042 361.763 237.425C393.507 223.663 401.134 206.134 401.33 205.681C401.33 205.763 400.023 206.813 397.974 208.47C397.099 209.191 396.132 209.973 395.041 210.838C383.121 220.256 358.243 237.188 317.739 244.476C307.963 246.191 298.084 247.257 288.167 247.666Z" fill="white"/>
<path d="M294.147 278.021C285.913 283.167 267.642 287.964 250.021 282.056C232.728 276.25 221.2 261.469 217.546 252.463C217.211 251.584 217.231 250.609 217.602 249.745C217.972 248.881 218.665 248.194 219.532 247.831C218.419 248.041 217.375 248.526 216.496 249.241C216.389 249.42 216.303 249.61 216.238 249.807C214.303 255.592 226.027 280.172 248.147 287.604C270.267 295.035 294.24 283.157 296.402 276.714C296.494 276.44 296.556 276.157 296.587 275.87C296.285 274.925 295.787 274.055 295.125 273.317C295.591 274.078 295.749 274.989 295.567 275.862C295.386 276.736 294.878 277.508 294.147 278.021Z" fill="#A30D2D"/>
<path d="M264.493 238.927C244.092 232.082 221.961 242.2 217.144 248.345C216.938 248.588 216.756 248.85 216.599 249.127C216.599 249.127 216.599 249.22 216.537 249.24C217.416 248.525 218.46 248.041 219.573 247.83C218.706 248.194 218.014 248.88 217.643 249.744C217.272 250.609 217.252 251.583 217.587 252.462C221.272 261.458 232.769 276.25 250.062 282.055C267.684 287.963 285.985 283.187 294.188 278.02C294.927 277.515 295.446 276.747 295.637 275.872C295.828 274.998 295.678 274.084 295.218 273.316C295.88 274.054 296.378 274.924 296.679 275.869C296.81 273.744 296.48 271.616 295.712 269.631C292.336 259.853 281.384 244.598 264.493 238.927ZM277.38 262.22C277.38 262.498 277.38 262.776 277.38 263.064L275.167 261.952C274.889 263.638 274.473 265.297 273.921 266.914C272.81 266.265 271.677 265.648 270.535 265.061C271.033 263.517 271.432 261.942 271.729 260.347C270.514 259.791 269.269 259.245 267.992 258.72C267.663 260.223 267.262 261.726 266.788 263.219C265.615 262.683 264.441 262.189 263.258 261.675C263.721 260.223 264.132 258.772 264.524 257.321C263.278 256.837 262.012 256.374 260.725 255.921C260.283 257.331 259.83 258.751 259.356 260.172C258.152 259.739 256.938 259.328 255.713 258.947C256.196 257.526 256.691 256.127 257.195 254.737C255.898 254.325 254.601 253.934 253.325 253.574C252.748 254.953 252.213 256.363 251.709 257.804C250.473 257.475 249.218 257.176 247.962 256.899C248.477 255.427 249.063 253.996 249.702 252.606C248.363 252.267 247.036 251.948 245.728 251.659C245.012 253.101 244.386 254.586 243.855 256.106C242.589 255.89 241.313 255.705 240.036 255.54C240.564 253.937 241.226 252.381 242.013 250.887L239.563 250.445C239.738 250.177 239.923 249.92 240.098 249.662C233.545 248.461 226.904 247.811 220.243 247.717C224.813 246.688 232.594 246.225 241.858 247.316C241.93 247.233 241.992 247.141 242.064 247.048L244.184 247.326C244.823 246.41 245.492 245.525 246.243 244.66C247.437 244.818 248.6 244.993 249.732 245.185C249.094 246.07 248.466 246.986 247.88 247.923C249.146 248.149 250.422 248.407 251.719 248.705C252.244 247.738 252.748 246.791 253.356 245.875C254.447 246.101 255.517 246.358 256.567 246.626C256.083 247.583 255.61 248.551 255.147 249.549C256.351 249.868 257.565 250.218 258.78 250.579C259.161 249.549 259.542 248.52 259.933 247.563C260.962 247.882 261.992 248.221 262.969 248.592C262.681 249.621 262.383 250.651 262.074 251.68C263.268 252.112 264.441 252.555 265.604 253.018C265.831 251.989 266.037 250.898 266.232 249.848C267.262 250.27 268.239 250.712 269.248 251.186C269.145 252.215 269.011 253.327 268.847 254.397C270.051 254.943 271.235 255.499 272.377 256.065C272.47 254.974 272.521 253.893 272.542 252.812C273.571 253.347 274.601 253.914 275.63 254.511C275.681 255.54 275.681 256.682 275.63 257.763L277.483 258.792C277.483 258.967 277.483 259.132 277.483 259.307C285.254 263.857 291.039 268.767 293.952 272.277C288.705 268.488 283.163 265.125 277.38 262.22Z" fill="#DC4405"/>
<path d="M220.201 247.718C226.863 247.811 233.504 248.462 240.057 249.663C240.613 248.85 241.189 248.068 241.796 247.316C232.584 246.256 224.771 246.699 220.201 247.718Z" fill="black"/>
<path d="M277.411 259.339C277.411 260.296 277.411 261.253 277.411 262.221C283.184 265.137 288.716 268.51 293.952 272.308C290.967 268.798 285.182 263.888 277.411 259.339Z" fill="black"/>
<path d="M277.411 259.339C277.411 259.164 277.411 258.999 277.411 258.824L275.558 257.795C275.558 256.714 275.558 255.623 275.558 254.542C274.529 253.945 273.499 253.379 272.47 252.844C272.47 253.924 272.398 255.005 272.305 256.096C271.163 255.53 269.979 254.974 268.775 254.429C268.939 253.399 269.073 252.277 269.176 251.217C268.147 250.744 267.169 250.301 266.16 249.879C265.965 250.908 265.759 251.989 265.532 253.049C264.369 252.586 263.196 252.144 262.002 251.711C262.311 250.682 262.609 249.653 262.897 248.623C261.868 248.263 260.839 247.923 259.861 247.594C259.47 248.623 259.089 249.591 258.708 250.61C257.493 250.229 256.279 249.879 255.075 249.581C255.538 248.551 256.011 247.615 256.495 246.657C255.466 246.39 254.375 246.132 253.283 245.906C252.717 246.822 252.172 247.769 251.647 248.737C250.35 248.438 249.074 248.181 247.808 247.954C248.394 247.018 249.022 246.102 249.66 245.216C248.528 245.017 247.365 244.842 246.171 244.691C245.461 245.556 244.792 246.441 244.112 247.357L241.992 247.079C241.92 247.172 241.858 247.265 241.786 247.347C241.179 248.098 240.602 248.881 240.047 249.694C239.872 249.951 239.686 250.209 239.511 250.476L241.961 250.919C241.174 252.412 240.513 253.968 239.985 255.571C241.261 255.736 242.537 255.921 243.804 256.137C244.335 254.618 244.96 253.132 245.677 251.691C246.984 251.979 248.312 252.298 249.65 252.638C249.012 254.027 248.425 255.458 247.91 256.93C249.166 257.208 250.422 257.506 251.657 257.836C252.162 256.395 252.687 254.985 253.273 253.605C254.55 253.966 255.846 254.357 257.143 254.768C256.639 256.158 256.114 257.558 255.661 258.978C256.886 259.359 258.101 259.771 259.305 260.203C259.778 258.783 260.231 257.362 260.674 255.952C261.961 256.405 263.227 256.868 264.472 257.352C264.081 258.803 263.669 260.255 263.206 261.706C264.39 262.19 265.563 262.735 266.737 263.25C267.21 261.757 267.612 260.255 267.941 258.752C269.217 259.277 270.463 259.781 271.677 260.378C271.38 261.973 270.981 263.548 270.483 265.092C271.626 265.679 272.758 266.297 273.87 266.945C274.421 265.329 274.838 263.669 275.115 261.984L277.328 263.096C277.328 262.807 277.328 262.529 277.328 262.252C277.421 261.253 277.431 260.296 277.411 259.339Z" fill="white"/>
<path d="M188.046 179.505L189.188 181.563C189.929 182.778 190.856 184.394 192.06 186.36C198.823 197.039 206.764 206.924 215.734 215.829C215.734 215.829 228.508 228.428 233.943 233.214C236.115 232.625 238.318 232.151 240.541 231.794C232.81 225.44 225.51 218.58 218.688 211.259C184.227 173.915 177.639 139.207 175.457 129.871C175.426 129.943 172.143 150.385 188.046 179.505Z" fill="white"/>
<path d="M220.16 233.76C220.531 234.079 223.526 237.064 223.824 236.93C225.806 235.994 227.837 235.166 229.908 234.45C199.512 207.945 187.953 179.35 187.953 179.35L188.046 179.515C172.143 150.386 175.426 129.943 175.426 129.943L175.22 130.53C173.978 134.535 173.286 138.69 173.162 142.882C172.824 149.857 173.416 156.845 174.922 163.664C176.551 170.845 178.949 177.83 182.075 184.497C185.245 191.374 189.035 197.947 193.398 204.136C198.749 211.776 204.77 218.924 211.39 225.495C214.242 228.366 217.165 231.104 220.16 233.76Z" fill="#B1BABF"/>
<path d="M189.219 181.553L188.076 179.494C188.416 180.184 188.787 180.863 189.219 181.553Z" fill="#B1BABF"/>
<path d="M184.731 245.226C184.481 245.673 184.33 246.168 184.289 246.678C184.333 247.228 184.529 247.755 184.855 248.201C184.855 248.201 194.273 248.705 200.191 250.332C200.428 249.488 200.737 248.448 201.149 247.192C201.394 246.461 201.74 245.768 202.178 245.134L202.116 245.196C196.332 244.685 190.514 244.695 184.731 245.226Z" fill="#B1BABF"/>
<path d="M184.731 245.226C190.497 244.709 196.299 244.709 202.065 245.226L202.127 245.164C203.315 243.357 205.106 242.029 207.181 241.418C204.628 241.006 201.643 240.666 199.08 240.44C197.803 240.327 196.527 240.234 195.24 240.172C194.438 240.172 193.624 240.11 192.811 240.09C191.06 240.389 189.379 241.007 187.85 241.912C186.537 242.723 185.461 243.866 184.731 245.226Z" fill="white"/>
<path d="M182.57 245.329C182.57 245.257 182.837 244.856 182.878 244.784C183.566 243.614 184.545 242.642 185.719 241.963C187.818 240.846 190.13 240.186 192.502 240.028C192.502 240.028 191.833 240.028 191.473 240.028C189.126 240.057 186.784 240.246 184.464 240.594C182.504 240.943 180.523 241.152 178.535 241.222C177.945 241.219 177.356 241.167 176.775 241.068C176.238 240.964 175.714 240.805 175.21 240.594C175.261 240.636 176.373 245.329 182.57 245.329Z" fill="white"/>
<path d="M214.087 231.146C213.758 231.239 213.521 231.517 213.614 232.052C214.018 233.519 213.961 235.075 213.449 236.509C213.098 237.554 212.531 238.513 211.784 239.323C211.038 240.134 210.128 240.778 209.116 241.213C207.992 241.687 206.996 242.42 206.209 243.352C205.422 244.284 204.866 245.388 204.587 246.575C203.99 249.416 202.446 253.163 202.878 255.633C203.032 256.58 203.969 257.877 206.12 257.795C205.597 258.289 204.935 258.612 204.223 258.72C203.512 258.829 202.784 258.718 202.137 258.402C200.356 261.686 197.68 263.034 192.801 262.087C187.922 261.14 181.479 256.344 180.192 248.263C181.059 248.123 181.939 248.072 182.817 248.109C182.459 247.668 182.241 247.131 182.189 246.565C182.214 246.133 182.334 245.711 182.539 245.33C176.363 245.33 175.231 240.636 175.21 240.554C174.598 241.092 174.101 241.747 173.747 242.481C173.394 243.215 173.191 244.012 173.151 244.826C173.035 244.152 172.671 243.547 172.13 243.13C171.589 242.712 170.912 242.513 170.231 242.571C169.55 242.629 168.916 242.941 168.454 243.444C167.992 243.947 167.736 244.606 167.736 245.289C167.736 245.972 167.992 246.63 168.454 247.133C168.916 247.637 169.55 247.948 170.231 248.007C170.912 248.065 171.589 247.865 172.13 247.448C172.671 247.03 173.035 246.425 173.151 245.752C173.156 245.714 173.156 245.676 173.151 245.639C173.192 245.986 173.258 246.33 173.347 246.668C173.554 247.44 173.903 248.166 174.376 248.809C174.791 249.488 175.438 249.993 176.198 250.229C176.251 250.168 176.299 250.103 176.342 250.034C176.404 249.962 176.96 249.385 177.032 249.427C176.404 249.025 173.738 246.997 175.354 242.582C175.364 243.783 175.661 244.964 176.219 246.028C176.778 247.091 177.582 248.006 178.566 248.696C178.926 250.343 181.52 260.224 191.206 263.291C201.777 266.657 205.842 261.614 206.8 259.709C207.222 258.845 208.302 256.148 208.302 256.148C209.219 253.523 211.545 243.312 212.42 242.118C213.295 240.924 215.909 236.148 214.849 231.753C214.869 231.722 214.653 231.002 214.087 231.146Z" fill="#B1BABF"/>
<path d="M308.805 275.427C310.095 277.218 310.724 279.4 310.585 281.603C315.487 284.679 320.1 288.193 324.368 292.102C324.63 290.565 324.474 288.987 323.915 287.532C323.244 285.885 322.274 284.378 321.054 283.085L320.611 282.755C319.438 281.911 318.233 281.109 317.008 280.326C315.313 279.235 313.598 278.185 311.862 277.177C311.028 276.693 310.194 276.23 309.35 275.756L308.805 275.427Z" fill="white"/>
<path d="M325.521 288.838C325.984 290.027 326.188 291.301 326.118 292.575C326.098 292.883 326.053 293.19 325.984 293.491C326.2 293.656 326.406 293.81 326.622 293.954C326.955 294.18 327.298 294.39 327.651 294.582C328.227 294.879 328.835 295.107 329.463 295.261C329.931 295.376 330.412 295.435 330.894 295.436C332.234 295.405 333.527 294.939 334.579 294.108H334.63C334.116 293.976 333.616 293.793 333.138 293.563C332.605 293.292 332.098 292.971 331.625 292.606C330.966 292.122 329.041 290.3 328.537 289.826C327.909 289.188 327.26 288.56 326.622 287.922C325.984 287.284 324.152 285.596 323.37 284.999L321.126 283.208C321.332 283.229 324.769 286.852 325.521 288.838Z" fill="white"/>
<path d="M329.566 295.251C328.938 295.096 328.329 294.868 327.754 294.572C327.401 294.379 327.058 294.17 326.725 293.944C326.509 293.8 326.303 293.645 326.087 293.481C326.018 293.907 325.86 294.313 325.624 294.675C325.239 295.091 324.742 295.388 324.193 295.529C324.906 296.036 325.571 296.608 326.18 297.238C320.261 302.878 312.346 302.888 307.775 300.645C303.205 298.401 302.001 295.766 302.567 292.05C301.862 291.918 301.214 291.573 300.712 291.061C300.209 290.55 299.876 289.896 299.757 289.188C299.804 289.216 299.849 289.247 299.891 289.281C300.398 289.742 301.053 290.01 301.738 290.036C302.423 290.062 303.096 289.846 303.638 289.425C304.661 288.282 305.451 286.95 305.964 285.503C306.561 284.062 307.075 282.58 307.745 281.17C308.01 280.59 308.197 279.977 308.3 279.348C308.569 277.576 308.239 275.765 307.364 274.201C306.82 273.242 306.483 272.18 306.375 271.082C306.267 269.985 306.39 268.877 306.736 267.83C307.204 266.382 308.097 265.109 309.299 264.176C309.383 264.124 309.455 264.054 309.509 263.972C309.564 263.89 309.601 263.796 309.616 263.699C309.632 263.601 309.626 263.501 309.6 263.406C309.574 263.311 309.527 263.222 309.464 263.147C309.103 262.694 308.506 263.147 308.506 263.147C305.007 266.008 304.214 271.381 304.183 272.884C304.152 274.387 299.85 283.908 299.037 286.553C298.628 287.777 298.312 289.029 298.09 290.3C297.832 292.41 297.915 298.864 308.383 302.569C317.955 305.956 325.953 299.605 327.24 298.504C328.27 298.563 329.301 298.403 330.265 298.034C331.228 297.665 332.102 297.095 332.829 296.363C333.076 296.125 333.307 295.87 333.519 295.601C332.489 298.998 330.328 299.831 329.01 300.017C328.692 300.054 328.371 300.054 328.053 300.017C328.053 300.109 328.053 300.171 328.115 300.253C328.205 300.547 328.246 300.853 328.238 301.159C328.506 301.273 328.792 301.335 329.082 301.344C330.386 301.344 331.645 300.868 332.623 300.006C332.861 299.809 333.084 299.596 333.292 299.368C333.036 299.96 333.005 300.625 333.205 301.238C333.405 301.851 333.822 302.37 334.378 302.698C334.934 303.025 335.59 303.138 336.223 303.015C336.856 302.893 337.423 302.543 337.816 302.032C338.21 301.521 338.403 300.884 338.36 300.24C338.316 299.597 338.039 298.991 337.581 298.538C337.123 298.084 336.514 297.814 335.87 297.777C335.227 297.74 334.592 297.94 334.085 298.339C334.71 297.283 335 296.063 334.918 294.839C334.899 294.573 334.864 294.309 334.816 294.047C333.764 294.877 332.47 295.343 331.131 295.374C330.606 295.401 330.08 295.36 329.566 295.251Z" fill="#B1BABF"/>
<path d="M310.102 283.712C309.659 284.958 309.278 285.966 308.959 286.8C313.67 288.941 318.195 291.471 322.484 294.366C323.015 294.211 323.49 293.907 323.853 293.491C324.125 293.06 324.301 292.575 324.368 292.07C320.1 288.162 315.487 284.648 310.585 281.571C310.474 282.295 310.313 283.011 310.102 283.712Z" fill="#B1BABF"/>
<path d="M295.125 111.765C265.821 106.773 260.128 128.759 260.067 134.101C259.995 138.002 260.252 140.638 260.128 142.202C257.288 143.338 254.329 144.152 251.307 144.631C251.554 142.161 251.544 136.706 252.604 132.403C253.633 128.358 260.355 110.695 284.091 110.592C286.743 110.597 289.392 110.79 292.017 111.168C293.046 111.343 294.024 111.539 294.981 111.734L295.125 111.765Z" fill="#B1BABF"/>
<path d="M337.883 233.317C319.287 238.158 300.193 240.831 280.982 241.284L280.313 240.79C283.697 240.134 286.873 238.676 289.577 236.539C296.546 230.96 304.265 226.719 309.433 222.602C314.6 218.485 319.438 206.112 319.438 206.112C328.135 202.777 334.044 190.971 334.044 190.971C333.167 189.157 332.659 187.188 332.551 185.176C332.417 181.985 337.379 176.602 342.535 167.05C347.692 157.498 348.824 144.405 340.302 130.077C331.779 115.749 308.393 108.461 308.218 108.369C308.043 108.276 284.945 100.011 269.506 106.269C254.066 112.527 247.066 123.674 245.42 134.4C243.773 145.125 244.473 152.413 242.455 154.883C241.149 156.42 239.554 157.686 237.761 158.609C237.761 158.609 235.363 171.589 240.283 179.474C240.283 179.474 236.619 192.289 238.225 198.701C239.83 205.114 243.464 213.112 245.656 221.789C246.55 225.205 248.268 228.351 250.659 230.95H249.949C234.842 218.959 221.174 205.261 209.219 190.127C184.7 158.558 176.702 108.327 176.702 108.327C165.915 137.828 163.198 148.203 172.081 176.18C180.964 204.157 207.747 230.888 207.747 230.888C207.098 232.442 208.045 235.304 208.045 235.304C208.045 235.304 204.134 234.11 192.338 234.089C180.542 234.068 182.786 235.324 179.173 235.118C175.56 234.913 174.531 233.43 174.531 233.43C173.186 234.216 171.991 235.234 171 236.436C169.281 236.621 160.83 237.589 161.736 245.885C162.642 254.181 171.309 253.667 171.309 253.667C172.37 254.807 173.686 255.682 175.148 256.219C175.148 256.219 180.295 269.734 195.014 270.372C207.829 270.928 211.967 263.116 212.831 261.057C213.161 261.839 213.531 262.642 213.922 263.455C216.981 269.607 221.036 275.21 225.924 280.038C231.675 285.858 238.682 290.284 246.408 292.976C258.976 297.155 271.626 295.869 281.538 292.76C285.23 291.632 288.788 290.107 292.15 288.21C291.574 291 290.977 299.08 300.858 305.894C313.004 314.283 325.233 306.584 325.233 306.584C326.726 307.042 328.307 307.137 329.844 306.862C329.844 306.862 336.452 312.502 342.196 306.429C347.939 300.356 341.763 294.489 340.508 293.306C340.43 291.748 340.082 290.215 339.478 288.777C339.478 288.777 337.77 289.343 334.764 287.325C331.758 285.308 334.311 285.647 324.893 278.555C315.475 271.464 311.625 270.043 311.625 270.043C311.625 270.043 314.106 268.334 314.528 266.708C314.528 266.708 352.046 261.561 376.009 244.578C399.971 227.594 404.058 217.692 413.239 187.657C413.208 187.657 376.554 222.921 337.883 233.317ZM243.896 170.766C243.788 169.761 243.74 168.75 243.752 167.739C243.752 165.094 244.02 162.469 244.02 162.469C246.197 161.007 248.028 159.085 249.382 156.839C251.215 153.504 252.717 146.906 252.717 146.906C259.562 146.134 265.965 138.847 266.356 138.394C264.534 140.038 262.423 141.33 260.128 142.202C257.288 143.338 254.329 144.153 251.307 144.631C251.554 142.161 251.544 136.706 252.604 132.403C253.633 128.358 260.355 110.695 284.091 110.592C286.743 110.597 289.392 110.79 292.017 111.168C293.046 111.343 294.024 111.539 294.981 111.734H295.125C300.529 112.856 304.862 114.164 305.995 114.524L306.324 114.637C306.88 114.812 307.642 115.059 308.558 115.399L309.391 115.718L310.596 116.191C311.152 116.411 311.738 116.658 312.356 116.932C312.963 117.21 313.601 117.499 314.26 117.818L315.454 118.322C346.138 133.082 339.375 156.407 337.615 160.853C336.02 164.857 332.85 168.81 331.439 171.064C329.343 168.808 327.509 166.322 325.974 163.653C324.88 161.782 324.124 159.734 323.74 157.601C323.74 157.601 324.337 167.75 329.484 172.629C329.484 172.629 326.715 178.805 326.138 182.572C325.868 185.183 326.174 187.822 327.034 190.302C327.034 190.302 326.663 190.899 326.128 191.722L326.056 191.836C324.853 194.134 323.201 196.168 321.198 197.816C318.871 199.566 317.739 200.904 311.275 199.391C308.745 198.757 306.181 198.265 303.596 197.919C300.292 197.497 295.918 197.384 293.509 200.163C293.17 200.551 292.893 200.988 292.686 201.46C294.223 200.565 295.999 200.17 297.77 200.328C297.283 201.639 296.938 202.998 296.741 204.383C296.628 205.484 296.093 208.264 296.093 208.294C295.135 211.629 291.924 213.441 291.636 213.276C291.348 213.112 290.854 212.247 292.295 207.636C292.295 207.409 293.036 207.142 293.2 207.152L294.096 207.008C293.981 206.796 293.85 206.593 293.705 206.4C293.571 206.174 293.221 206.04 293.005 205.917C292.789 205.793 291.502 205.227 291.502 205.217C290.864 204.939 290.318 204.723 290.318 204.723C290.338 204.866 290.338 205.012 290.318 205.155C290.267 205.461 290.199 205.763 290.112 206.061C290.125 206.136 290.125 206.212 290.112 206.287C290.04 206.576 289.958 206.864 289.886 207.152C289.598 208.181 289.34 209.056 289.011 210.085C289.007 210.109 289.007 210.134 289.011 210.157C288.969 210.288 288.902 210.409 288.812 210.513C288.723 210.618 288.614 210.703 288.491 210.764C288.368 210.826 288.234 210.862 288.097 210.871C287.961 210.88 287.823 210.861 287.694 210.816H287.58C286.86 210.456 286.067 210.075 285.244 209.684C284.986 209.547 284.774 209.338 284.635 209.082C284.496 208.825 284.436 208.534 284.461 208.243C284.461 208.243 284.461 208.243 284.461 208.171C284.461 208.099 284.461 208.099 284.461 208.068C284.461 208.037 284.513 207.883 284.544 207.811C284.801 206.884 285.347 204.898 285.419 204.435C285.56 203.763 285.789 203.112 286.098 202.499C285.841 202.211 285.542 201.961 285.213 201.758C284.894 201.602 284.536 201.542 284.184 201.583C283.973 201.788 283.827 202.049 283.762 202.335C283.762 202.458 283.422 203.488 283.062 204.62C282.701 205.752 282.269 207.018 282.084 207.584C282.021 207.807 281.886 208.002 281.699 208.138C281.513 208.275 281.285 208.344 281.054 208.336C280.872 208.335 280.691 208.304 280.519 208.243C279.799 207.955 278.821 207.605 278.049 207.317L277.905 207.265C277.608 207.172 277.359 206.968 277.209 206.696C277.06 206.423 277.021 206.104 277.102 205.804C277.503 204.61 278.018 203.096 278.409 201.913C278.491 201.635 278.594 201.357 278.677 201.069C278.836 200.556 279.158 200.108 279.593 199.792C279.101 199.482 278.572 199.237 278.018 199.061C277.422 198.891 276.817 198.753 276.206 198.65C276.386 199.111 276.432 199.614 276.34 200.101C276.206 200.564 274.971 204.877 274.92 205.042C274.868 205.206 274.642 205.721 274.302 205.845C273.876 205.874 273.448 205.814 273.046 205.67H272.892C272.11 205.433 270.998 205.258 270.257 205.052C270.257 205.052 269.042 204.702 269.423 203.59C269.423 203.59 270.216 200.688 270.607 199.309C270.603 199.267 270.603 199.226 270.607 199.185C270.753 198.678 270.842 198.157 270.874 197.631C270.904 197.493 270.901 197.351 270.865 197.215C270.83 197.079 270.763 196.953 270.67 196.848C270.576 196.743 270.46 196.661 270.329 196.609C270.198 196.557 270.057 196.537 269.917 196.55C269.505 196.55 269.053 197.291 268.95 197.723C268.847 198.156 268.579 198.959 268.579 198.959V199.031C268.547 199.094 268.52 199.159 268.497 199.226C268.075 200.348 267.745 201.285 267.365 202.396C267.236 202.697 267.009 202.945 266.721 203.098C266.432 203.252 266.1 203.302 265.779 203.24C264.894 203.055 264.04 202.88 263.247 202.736H263.134C263.003 202.694 262.882 202.627 262.778 202.537C262.674 202.448 262.589 202.339 262.527 202.216C262.466 202.093 262.43 201.96 262.421 201.823C262.412 201.686 262.43 201.548 262.475 201.419C262.466 201.388 262.466 201.356 262.475 201.326C262.825 200.297 263.124 199.484 263.505 198.464C263.729 197.909 263.984 197.366 264.266 196.838C264.417 196.606 264.613 196.406 264.843 196.251C264.843 196.025 264.513 195.603 263.896 195.387L263.649 195.325C263.449 195.275 263.246 195.241 263.041 195.222C262.444 195.15 261.497 195.088 261.302 195.829C261.402 196.127 261.444 196.442 261.425 196.756C261.382 196.945 261.324 197.131 261.25 197.312C259.634 201.851 258.78 202.242 258.379 202.211C257.977 202.18 256.588 198.773 257.833 195.541C257.838 195.521 257.838 195.5 257.833 195.479C258.362 194.296 258.967 193.147 259.645 192.042C260.334 190.814 260.883 189.512 261.281 188.161C262.102 188.749 262.842 189.441 263.484 190.22C263.783 190.714 264.246 191.095 264.513 191.62C264.583 191.747 264.625 191.887 264.637 192.031C264.871 191.119 264.825 190.158 264.503 189.273C264.499 189.242 264.499 189.211 264.503 189.18C263.278 185.835 260.108 183.869 257.164 182.201C255.188 181.104 253.158 180.107 251.081 179.216C245.018 176.55 244.905 174.78 244.112 172.011C244.015 171.601 243.942 171.185 243.896 170.766ZM250.473 214.213C250.35 213.77 250.237 213.379 250.134 213.07C249.352 210.6 246.15 201.522 245.471 199.401C244.711 197.403 244.392 195.265 244.534 193.133C244.534 192.731 244.586 192.309 244.637 191.856C245.028 188.429 246.696 181.378 246.943 180.534C246.941 180.506 246.941 180.479 246.943 180.451C246.943 180.451 249.743 181.8 250.607 182.315C250.61 182.345 250.61 182.376 250.607 182.407C250.504 183.189 249.763 188.758 249.722 191.445C249.702 191.787 249.702 192.131 249.722 192.474C250.564 193.345 251.244 194.359 251.729 195.469C252.11 196.756 251.729 203.776 254.498 208.614V208.5C254.667 208.003 254.91 207.535 255.219 207.111C255.816 206.226 256.968 204.99 257.658 205.474C258.348 205.958 258.255 207.347 258.245 208.83C258.257 210.053 257.952 211.259 257.36 212.329C257.853 213.18 258.602 213.854 259.501 214.254C259.466 213.801 259.483 213.345 259.552 212.895C259.909 211.564 260.381 210.265 260.962 209.015C260.985 208.883 261.039 208.759 261.121 208.653C261.203 208.547 261.309 208.462 261.431 208.406C261.552 208.351 261.686 208.325 261.819 208.333C261.953 208.34 262.083 208.38 262.197 208.449C262.197 208.449 263.505 209.128 264.657 209.705C264.941 209.907 265.145 210.201 265.237 210.536C265.329 210.872 265.302 211.229 265.162 211.547V211.65C265.162 211.701 265.162 211.743 265.11 211.794C264.678 212.875 264.307 213.853 263.762 215.006C263.762 215.006 263.484 216.035 262.99 216.097C263.439 216.4 263.906 216.675 264.39 216.92C265.005 217.203 265.638 217.447 266.284 217.651C265.999 217.152 265.884 216.574 265.954 216.004C266.222 214.614 266.623 212.7 266.984 211.104C267.014 210.973 267.07 210.848 267.149 210.738C267.227 210.628 267.327 210.534 267.441 210.462C267.556 210.391 267.684 210.342 267.817 210.32C267.951 210.298 268.087 210.302 268.219 210.332C269.083 210.693 269.969 211.032 270.854 211.362C271.1 211.465 271.304 211.648 271.433 211.882C271.562 212.115 271.608 212.385 271.564 212.648C271.163 214.419 270.7 216.529 270.226 218.217C270.129 218.486 269.994 218.739 269.825 218.968C270.236 219.262 270.686 219.498 271.163 219.668C271.688 219.812 272.696 220.018 272.696 220.018C272.567 219.557 272.567 219.069 272.696 218.608C272.701 218.591 272.701 218.574 272.696 218.557L273.88 215.16C273.983 214.872 274.261 214.223 274.426 213.812C274.504 213.565 274.673 213.357 274.898 213.229C275.123 213.101 275.388 213.063 275.64 213.122C276.67 213.431 277.699 213.719 278.728 213.976C279.5 214.203 279.058 215.397 279.058 215.397L277.205 219.936C277.059 220.298 276.838 220.624 276.556 220.893C276.962 221.072 277.382 221.217 277.812 221.326C278.508 221.462 279.214 221.538 279.922 221.552C279.715 220.941 279.737 220.275 279.984 219.679C280.011 219.635 280.029 219.586 280.035 219.535C280.385 218.732 280.746 217.919 281.065 217.116L281.343 216.426C281.477 216.134 281.709 215.899 281.998 215.76C282.287 215.621 282.616 215.587 282.928 215.664H283C283.731 215.808 284.461 215.922 285.192 216.035C285.36 216.05 285.521 216.106 285.662 216.198C285.803 216.29 285.919 216.415 286 216.563C286.081 216.71 286.125 216.875 286.128 217.043C286.131 217.211 286.092 217.378 286.016 217.527C285.357 218.989 284.657 220.461 283.875 221.943C284.688 222.005 285.511 222.046 286.335 222.077C286.335 222.077 286.232 222.005 286.572 221.048C286.911 220.09 287.889 218.186 287.992 217.898C288.095 217.61 288.465 216.477 288.939 216.426C289.412 216.375 291.286 217.867 290.802 220.749C295.949 218.557 299.829 212.741 300.91 211.949C301.926 211.361 303.043 210.97 304.204 210.796H304.307C305.624 209.458 309.247 203.066 309.7 202.273V202.191C310.73 202.314 313.745 202.911 313.745 202.911C313.745 202.911 310.585 210.271 308.712 213.441C307.463 215.689 305.668 217.586 303.493 218.958C301.682 220.245 293.643 225.546 291.523 227.049C289.402 228.551 283.762 233.605 278.831 234.48C276.666 234.887 274.454 234.973 272.264 234.738C270.243 234.488 268.255 234.019 266.335 233.338H266.418C262.334 232.13 258.655 229.835 255.774 226.699C252.8 223.446 251.318 217.352 250.473 214.213ZM193.429 204.177C189.066 197.988 185.276 191.415 182.106 184.538C178.976 177.834 176.581 170.811 174.963 163.591C173.457 156.773 172.865 149.784 173.203 142.809C173.327 138.618 174.019 134.463 175.261 130.458L175.467 129.871C177.68 139.197 184.268 173.915 218.699 211.259C225.521 218.566 232.821 225.412 240.551 231.753C238.328 232.109 236.126 232.583 233.953 233.173C228.518 228.387 215.775 215.819 215.744 215.788C206.774 206.883 198.833 196.997 192.07 186.319C190.866 184.353 189.939 182.737 189.198 181.522C188.797 180.832 188.426 180.153 188.056 179.463L187.973 179.319C188.334 180.194 199.996 208.315 229.918 234.408C227.847 235.125 225.816 235.953 223.835 236.889C223.536 237.023 220.541 234.038 220.17 233.719C217.175 231.063 214.252 228.325 211.432 225.484C204.813 218.927 198.789 211.797 193.429 204.177ZM195.24 240.08C196.527 240.141 197.803 240.234 199.08 240.347C201.643 240.574 204.628 240.913 207.18 241.325C205.107 241.939 203.317 243.266 202.127 245.072C201.697 245.712 201.351 246.403 201.097 247.13C200.696 248.386 200.387 249.426 200.161 250.27C194.232 248.644 184.813 248.139 184.813 248.139C184.488 247.694 184.292 247.166 184.247 246.616C184.289 246.106 184.44 245.611 184.69 245.165C185.404 243.79 186.47 242.629 187.778 241.799C189.307 240.894 190.988 240.276 192.739 239.977C193.624 240.018 194.438 240.08 195.24 240.08ZM212.44 242.138C211.565 243.332 209.239 253.543 208.323 256.168C208.323 256.168 207.242 258.865 206.82 259.729C205.863 261.634 201.797 266.677 191.226 263.311C181.54 260.223 178.946 250.363 178.586 248.716C177.603 248.026 176.798 247.111 176.24 246.048C175.681 244.984 175.385 243.803 175.375 242.602C173.769 246.997 176.404 249.024 177.042 249.446C176.939 249.446 176.425 249.982 176.363 250.054C176.32 250.122 176.272 250.188 176.219 250.249C175.459 250.013 174.811 249.508 174.397 248.829C173.923 248.186 173.574 247.459 173.367 246.688C173.278 246.35 173.213 246.006 173.172 245.659C173.177 245.696 173.177 245.734 173.172 245.772C173.056 246.451 172.689 247.061 172.144 247.482C171.6 247.904 170.917 248.105 170.231 248.047C169.544 247.989 168.905 247.675 168.439 247.168C167.973 246.661 167.715 245.997 167.715 245.309C167.715 244.62 167.973 243.956 168.439 243.449C168.905 242.942 169.544 242.628 170.231 242.57C170.917 242.512 171.6 242.713 172.144 243.135C172.689 243.556 173.056 244.167 173.172 244.845C173.212 244.032 173.414 243.235 173.768 242.501C174.122 241.767 174.619 241.112 175.231 240.574C175.735 240.784 176.259 240.943 176.795 241.047C177.377 241.146 177.965 241.198 178.555 241.202C180.544 241.132 182.525 240.922 184.484 240.574C186.805 240.226 189.147 240.037 191.494 240.008C191.854 240.008 192.523 240.008 192.523 240.008C190.151 240.166 187.839 240.825 185.74 241.943C184.565 242.622 183.586 243.593 182.899 244.763C182.899 244.835 182.642 245.237 182.59 245.309C182.385 245.69 182.266 246.112 182.24 246.544C182.292 247.109 182.511 247.646 182.868 248.088C181.99 248.05 181.111 248.102 180.243 248.242C181.551 256.322 187.871 261.109 192.852 262.066C197.834 263.023 200.408 261.664 202.188 258.381C202.835 258.697 203.563 258.808 204.275 258.699C204.987 258.591 205.648 258.268 206.172 257.774C204.02 257.856 203.084 256.559 202.929 255.612C202.497 253.142 204.041 249.436 204.638 246.554C204.918 245.367 205.474 244.262 206.261 243.331C207.048 242.399 208.043 241.666 209.167 241.191C210.18 240.756 211.089 240.112 211.836 239.302C212.582 238.491 213.15 237.532 213.5 236.487C214.012 235.054 214.07 233.498 213.665 232.03C213.573 231.495 213.809 231.217 214.139 231.125C214.705 230.981 214.921 231.701 214.921 231.701C215.981 236.117 213.305 240.893 212.44 242.138ZM296.597 275.92C296.566 276.208 296.504 276.491 296.412 276.764C294.25 283.208 270.308 295.086 248.158 287.655C226.007 280.223 214.303 255.643 216.249 249.858C216.313 249.66 216.399 249.471 216.506 249.292C216.506 249.292 216.506 249.21 216.568 249.179C216.725 248.902 216.907 248.64 217.113 248.397C221.972 242.221 244.102 232.133 264.462 238.978C281.353 244.65 292.305 259.904 295.599 269.683C296.37 271.65 296.71 273.759 296.597 275.869V275.92ZM323.503 285.009C324.286 285.606 325.984 287.171 326.756 287.933C327.528 288.694 328.043 289.199 328.671 289.837C329.144 290.31 331.069 292.132 331.758 292.616C332.232 292.982 332.738 293.302 333.272 293.573C333.75 293.804 334.25 293.986 334.764 294.119C334.813 294.381 334.847 294.645 334.867 294.911C334.949 296.135 334.658 297.355 334.033 298.411C334.559 297.988 335.222 297.773 335.896 297.806C336.571 297.839 337.209 298.118 337.691 298.591C338.174 299.063 338.466 299.696 338.513 300.369C338.56 301.042 338.359 301.709 337.947 302.244C337.535 302.779 336.941 303.144 336.278 303.271C335.615 303.397 334.929 303.277 334.349 302.931C333.769 302.586 333.336 302.04 333.132 301.396C332.928 300.753 332.966 300.057 333.241 299.44C333.033 299.668 332.809 299.882 332.572 300.078C331.593 300.94 330.334 301.416 329.031 301.417C328.74 301.408 328.454 301.345 328.187 301.231C328.195 300.925 328.153 300.619 328.063 300.325C328.063 300.243 328.063 300.181 328.001 300.089C328.319 300.126 328.641 300.126 328.959 300.089C330.276 299.903 332.438 299.059 333.457 295.683C333.249 295.95 333.022 296.202 332.777 296.435C332.051 297.167 331.177 297.737 330.213 298.106C329.25 298.475 328.218 298.635 327.188 298.576C325.902 299.677 317.924 306.028 308.331 302.641C297.884 298.936 297.801 292.482 298.038 290.372C298.26 289.101 298.577 287.849 298.985 286.625C299.829 283.98 304.132 274.438 304.132 272.956C304.132 271.474 304.955 266.08 308.455 263.219C308.455 263.219 309.052 262.776 309.412 263.219C309.476 263.294 309.522 263.383 309.548 263.478C309.575 263.574 309.58 263.673 309.565 263.771C309.549 263.869 309.513 263.962 309.458 264.044C309.403 264.126 309.331 264.196 309.247 264.248C308.046 265.181 307.153 266.455 306.684 267.902C306.338 268.949 306.215 270.057 306.323 271.154C306.432 272.252 306.768 273.314 307.312 274.274C308.188 275.837 308.518 277.648 308.249 279.42C308.145 280.049 307.958 280.662 307.693 281.242C307.024 282.652 306.509 284.134 305.912 285.575C305.4 287.022 304.61 288.354 303.586 289.497C303.045 289.918 302.372 290.134 301.687 290.108C301.001 290.082 300.347 289.814 299.839 289.353C299.797 289.319 299.753 289.288 299.706 289.26C299.824 289.968 300.157 290.622 300.66 291.134C301.163 291.645 301.81 291.99 302.516 292.122C301.95 295.838 303.267 298.534 307.724 300.717C312.181 302.899 320.22 302.868 326.118 297.248C325.509 296.619 324.844 296.047 324.131 295.539C324.68 295.398 325.177 295.101 325.562 294.685C325.798 294.324 325.956 293.917 326.025 293.491C326.08 293.188 326.111 292.882 326.118 292.575C326.17 291.308 325.953 290.045 325.48 288.869C324.78 287.006 321.712 283.723 321.27 283.249L323.503 285.009ZM311.821 277.135C313.577 278.144 315.293 279.194 316.967 280.285C318.192 281.067 319.396 281.87 320.57 282.714L321.012 283.043C322.232 284.336 323.203 285.844 323.874 287.49C324.433 288.945 324.589 290.524 324.327 292.06C324.259 292.565 324.084 293.05 323.812 293.481C323.449 293.897 322.974 294.201 322.443 294.355C318.153 291.461 313.629 288.931 308.918 286.79C309.237 285.977 309.618 284.968 310.06 283.702C310.272 282.994 310.434 282.272 310.544 281.54C310.683 279.338 310.054 277.155 308.764 275.365L309.268 275.643C310.153 276.178 310.987 276.641 311.821 277.135ZM401.145 206.287C398.777 213.101 394.403 219.442 389.606 224.763C386.12 228.615 382.334 232.184 378.283 235.437C371.969 240.394 365.09 244.585 357.79 247.923C350.604 251.279 343.145 254.016 335.495 256.106C323.382 259.33 310.96 261.255 298.44 261.85C297.425 259.908 296.301 258.024 295.074 256.209C335.145 253.337 361.537 237.63 361.537 237.63L361.732 237.465C360.322 238.083 358.881 238.69 357.368 239.287C345.03 243.836 332.313 247.28 319.366 249.58C312.099 250.898 304.749 251.783 297.4 252.401L292.552 252.771C291.172 251.005 289.698 249.314 288.136 247.707C298.052 247.307 307.931 246.252 317.708 244.547C358.212 237.259 383.09 220.327 395.01 210.909C396.101 210.044 397.069 209.262 397.943 208.541C400.002 206.884 401.258 205.834 401.299 205.752L401.145 206.287Z" fill="black"/>
<path d="M337.615 160.884C336.02 164.888 332.85 168.841 331.439 171.095C329.343 168.839 327.509 166.353 325.974 163.684C326.879 162.315 328.64 160.452 330.595 157.735C333.17 153.645 334.53 148.908 334.517 144.076C334.517 136.747 331.244 127.884 319.314 120.628C319.273 120.594 319.228 120.567 319.18 120.545L318.727 120.278C317.194 119.351 315.639 118.538 314.24 117.849L315.434 118.353C346.138 133.113 339.375 156.427 337.615 160.884Z" fill="#B1BABF"/>
<path d="M330.616 157.734C333.19 153.645 334.55 148.908 334.538 144.075C334.538 136.747 331.264 127.884 319.335 120.628C319.294 120.594 319.249 120.567 319.201 120.545L318.748 120.278C317.214 119.351 315.66 118.538 314.26 117.848C313.601 117.529 312.963 117.241 312.356 116.963L310.596 116.222L309.391 115.749L308.558 115.43C307.642 115.09 306.88 114.843 306.324 114.668L305.995 114.555C304.863 114.194 300.529 112.887 295.125 111.765C265.821 106.773 260.128 128.759 260.067 134.101C259.995 138.002 260.252 140.637 260.128 142.202C262.423 141.33 264.534 140.038 266.356 138.394C265.965 138.846 259.562 146.134 252.717 146.906C252.717 146.906 251.215 153.504 249.382 156.839C248.028 159.085 246.197 161.007 244.02 162.469C243.68 167.183 246.222 174.008 249.053 175.428C251.884 176.849 259.418 179.34 262.352 182.685C263.508 183.928 264.329 185.445 264.736 187.093C265.143 188.741 265.123 190.465 264.678 192.103C264.422 193.186 264.078 194.247 263.649 195.273L263.896 195.335C264.513 195.551 264.853 195.973 264.843 196.2C264.613 196.355 264.417 196.554 264.266 196.787C263.984 197.315 263.729 197.858 263.505 198.413C263.093 199.442 262.794 200.255 262.475 201.274C262.466 201.305 262.466 201.337 262.475 201.367C262.43 201.497 262.412 201.634 262.421 201.771C262.43 201.908 262.466 202.042 262.527 202.165C262.589 202.287 262.674 202.397 262.778 202.486C262.882 202.575 263.003 202.643 263.134 202.685H263.247C264.04 202.829 264.894 203.004 265.779 203.189C266.1 203.25 266.433 203.2 266.721 203.047C267.009 202.893 267.236 202.645 267.365 202.345C267.745 201.223 268.075 200.286 268.497 199.175C268.52 199.108 268.547 199.042 268.579 198.979V198.907C268.579 198.907 268.836 198.135 268.95 197.672C269.063 197.209 269.506 196.498 269.917 196.498C270.057 196.486 270.198 196.506 270.329 196.558C270.46 196.609 270.576 196.691 270.67 196.796C270.763 196.902 270.83 197.027 270.865 197.163C270.901 197.299 270.904 197.442 270.875 197.579C270.842 198.105 270.753 198.627 270.607 199.133C270.603 199.174 270.603 199.216 270.607 199.257C270.216 200.636 269.423 203.539 269.423 203.539C269.042 204.651 270.257 205.001 270.257 205.001C270.998 205.206 272.11 205.381 272.892 205.618H273.046C273.448 205.763 273.876 205.822 274.302 205.793C274.642 205.67 274.858 205.155 274.92 204.99C274.981 204.826 276.206 200.513 276.34 200.049C276.432 199.563 276.386 199.06 276.206 198.598C276.817 198.702 277.422 198.839 278.018 199.01C278.572 199.185 279.101 199.431 279.593 199.741C279.158 200.056 278.836 200.504 278.677 201.017C278.594 201.305 278.491 201.583 278.409 201.861C278.018 203.045 277.503 204.558 277.102 205.752C277.021 206.052 277.06 206.372 277.209 206.644C277.359 206.917 277.608 207.121 277.905 207.214L278.049 207.265C278.821 207.553 279.799 207.903 280.519 208.191C280.691 208.252 280.872 208.283 281.054 208.284C281.285 208.293 281.513 208.223 281.699 208.087C281.886 207.95 282.021 207.755 282.084 207.533C282.269 206.967 282.691 205.711 283.062 204.568C283.432 203.426 283.751 202.407 283.762 202.283C283.827 201.997 283.974 201.736 284.184 201.532C284.536 201.49 284.894 201.551 285.213 201.707C285.542 201.909 285.841 202.159 286.098 202.448C285.789 203.061 285.56 203.711 285.419 204.383C285.347 204.846 284.801 206.833 284.544 207.759C284.544 207.831 284.544 207.934 284.461 208.016C284.379 208.099 284.461 208.078 284.461 208.119C284.461 208.161 284.461 208.171 284.461 208.191C284.436 208.482 284.496 208.774 284.635 209.03C284.774 209.286 284.986 209.496 285.244 209.632C286.067 210.024 286.86 210.404 287.58 210.765H287.694C287.823 210.81 287.961 210.828 288.098 210.819C288.234 210.81 288.368 210.774 288.491 210.713C288.614 210.651 288.723 210.566 288.812 210.462C288.902 210.358 288.969 210.237 289.011 210.106C289.007 210.082 289.007 210.058 289.011 210.034C289.34 209.005 289.598 208.15 289.886 207.1C289.958 206.812 290.04 206.524 290.112 206.236C290.125 206.161 290.125 206.084 290.112 206.009C290.199 205.712 290.267 205.409 290.318 205.103C290.338 204.96 290.338 204.815 290.318 204.671C290.318 204.671 290.864 204.887 291.502 205.165C291.665 203.845 292.066 202.565 292.686 201.388C292.893 200.916 293.17 200.479 293.509 200.091C294.246 198.84 295.245 197.764 296.437 196.936C297.629 196.108 298.987 195.548 300.416 195.294C304.77 194.399 312.284 196.951 315.403 197.528C318.151 198.032 323.267 195.047 326.19 191.599C326.725 190.775 327.096 190.178 327.096 190.178C326.236 187.698 325.93 185.059 326.2 182.448C326.777 178.691 329.545 172.505 329.545 172.505C324.399 167.626 323.802 157.477 323.802 157.477C324.185 159.61 324.941 161.659 326.036 163.529C326.9 162.315 328.66 160.452 330.616 157.734ZM285.017 154.842C289.186 158.527 291.008 158.877 291.378 158.959C291.749 159.042 293.437 159.927 298.944 159.495C305.326 159.196 316.648 158.023 319.983 162.14C319.983 162.253 311.924 161.347 306.499 162.222C301.105 163.365 293.447 164.096 290.03 162.912C286.613 161.728 280.941 156.602 277.339 152.444C273.561 148.501 266.644 144.384 266.644 144.209C271.791 142.995 280.118 150.756 285.017 154.842ZM289.752 189.983L289.207 191.609C288.476 193.802 285.841 194.882 283.329 194.049C283.835 193.901 284.3 193.638 284.687 193.281C285.075 192.924 285.374 192.482 285.563 191.99C285.567 191.97 285.567 191.949 285.563 191.928C285.057 192.006 284.54 191.971 284.05 191.825C283.307 191.61 282.679 191.109 282.305 190.432C281.93 189.754 281.84 188.956 282.053 188.212C282.089 188.09 282.075 187.958 282.016 187.844C281.956 187.731 281.855 187.645 281.734 187.605C281.615 187.565 281.485 187.573 281.372 187.626C281.259 187.68 281.171 187.776 281.127 187.893C280.846 188.617 280.289 189.201 279.579 189.515C278.869 189.83 278.063 189.85 277.339 189.571C276.852 189.396 276.414 189.107 276.062 188.727C276.058 188.751 276.058 188.775 276.062 188.799C275.916 189.305 275.888 189.838 275.983 190.356C276.078 190.874 276.292 191.363 276.608 191.784C274.107 190.94 272.666 188.49 273.396 186.308L273.942 184.682C274.315 183.67 275.048 182.83 276.001 182.325C276.759 181.895 277.435 181.334 277.997 180.668C278.944 179.776 279.676 178.682 280.138 177.466C280.578 176.415 281.403 175.572 282.444 175.109C283.484 174.646 284.663 174.598 285.738 174.975L286.005 175.047L286.304 175.161C287.381 175.516 288.281 176.269 288.822 177.265C289.363 178.262 289.505 179.427 289.217 180.523C288.865 181.768 288.784 183.074 288.98 184.352V184.414C289.026 185.286 289.225 186.143 289.567 186.946C289.985 187.905 290.051 188.981 289.752 189.983ZM324.255 172.145C324.255 172.145 322.968 180.832 320.837 184.239C318.707 187.646 316.72 190.806 311.419 190.518C311.419 190.518 314.507 189.633 313.478 187.235C313.408 187.061 313.352 186.882 313.313 186.699C312.907 186.822 312.495 186.921 312.078 186.998C308.887 187.389 302.176 186.36 298.954 184.157H298.882C298.882 184.157 298.079 185.114 299.109 188.109C298.862 188.027 294.827 186.535 293.375 183.272C291.924 180.009 293.375 170.92 287.941 169.016C282.506 167.111 278.234 175.336 275.002 177.106C271.77 178.877 267.498 177.508 267.498 177.508C270.154 175.737 270.082 174.492 270.082 174.492H269.989C266.088 174.296 260.108 171.074 257.802 168.841C257.493 168.532 257.02 167.811 257.01 167.811L256.783 167.976L256.536 168.141C254.395 169.397 256.073 171.805 256.207 171.99C251.842 169.057 252.09 165.32 252.491 161.316C252.892 157.312 257.071 149.613 257.071 149.613H257.133C259.795 150.851 262.236 152.517 264.359 154.543C264.688 154.852 265.007 155.171 265.316 155.501C268.898 159.392 272.285 162.953 275.609 164.065C276.664 164.394 277.77 164.527 278.872 164.456H278.924C279.212 164.456 279.49 164.435 279.757 164.394C280.805 164.269 281.838 164.048 282.845 163.735C283.967 166.175 292.809 169.139 295.197 167.853L295.259 167.935C295.845 168.757 296.506 169.522 297.235 170.22L297.853 170.776C298.688 171.498 299.652 172.057 300.694 172.423C304.018 173.545 308.867 172.752 314.075 171.805L315.413 171.62C318.369 171.314 321.355 171.492 324.255 172.145Z" fill="white"/>
</g>
<defs>
<clipPath id="clip0_5_2507">
<rect width="500" height="444.664" fill="white" transform="translate(0 28)"/>
</clipPath>
</defs>
</svg>
