<?xml version="1.0" encoding="UTF-8"?>
<svg width="500px" height="500px" viewBox="0 0 500 500" version="1.1" xmlns="http://www.w3.org/2000/svg" xmlns:xlink="http://www.w3.org/1999/xlink">
    <!-- Generator: Sketch 63.1 (92452) - https://sketch.com -->
    <title>Team Logos / NFL / Light / SD</title>
    <desc>Created with Sketch.</desc>
    <g id="Team-Logos-/-NFL-/-Light-/-SD" stroke="none" stroke-width="1" fill="none" fill-rule="evenodd">
        <g id="Asset-1" transform="translate(2.000000, 141.000000)" fill-rule="nonzero">
            <path d="M495.343511,218.854962 C467.824427,181.793893 419.847328,136.526718 362.59542,111.10687 L374.274809,138.053435 C325.610687,113.549618 271.526718,96.0687023 210.152672,96.0687023 L223.244275,110.229008 C109.961832,114.80916 43.5114504,170.954198 0,218.854962 C1.03053435,153.969466 47.480916,95.4580153 108.70229,59.6946565 L96.1068702,47.9770992 C141.679389,16.4503817 205.572519,7.63358779 259.541985,13.8549618 L251.908397,0 C430.610687,13.2824427 506.29771,146.603053 495.419847,218.854962" id="Path" fill="#FFFFFF"></path>
            <path d="M209.351145,104.885496 L195.610687,90.0381679 C247.633588,88.2824427 300.229008,96.1450382 361.412214,124.885496 L349.961832,98.8931298 C404.550768,120.869329 452.67813,156.324685 489.847328,201.946565 C486.259542,123.51145 407.251908,22.1374046 263.549618,7.63358779 L271.526718,22.0610687 C213.435115,12.1755725 148.206107,22.4427481 106.641221,48.778626 L119.656489,61.0687023 C57.2519084,94.5038168 16.0687023,147.824427 7.2519084,201.755725 C58.8549618,147.824427 125.954198,110.687023 209.351145,104.885496" id="Path" fill="#0080C6"></path>
            <path d="M467.59542,159.732824 C443.244275,94.1984733 370,37.5954198 287.78626,24.1603053 L297.442748,41.3740458 C247.824427,26.1068702 175.954198,26.9847328 128.664122,51.6412214 L142.21374,64.2366412 C98.8549618,82.8244275 53.129771,122.633588 35,159.160305 C64.6946565,132.442748 129.312977,101.374046 182.328244,94.8091603 L169.160305,80.5343511 C220.076336,70.4198473 287.977099,80.5343511 336.374046,100.076336 L326.984733,78.4351145 C362.633588,85.7633588 428.89313,117.59542 467.59542,159.732824" id="Path" fill="#FFC20E"></path>
        </g>
    </g>
</svg>