<svg width="500" height="500" viewBox="0 0 500 500" fill="none" xmlns="http://www.w3.org/2000/svg">
<g clip-path="url(#clip0_37_7184)">
<path d="M498.495 241.684C496.198 236.858 492.751 232.67 488.456 229.488C483.989 225.473 482.383 223.666 481.179 222.712C474.553 217.693 478.067 220.504 472.546 216.338C468.28 213.176 466.071 211.62 461.705 208.608C452.67 202.335 456.686 206.45 449.96 200.377C444.941 192.798 435.254 181.907 426.069 180.301C416.031 178.594 411.815 175.984 411.012 174.328C406.204 167.483 400.014 161.721 392.843 157.414C380.446 150.688 366.543 151.14 355.401 141.202C340.093 130.361 329.452 131.917 317.055 131.164C308.037 129.762 299.456 126.33 291.96 121.126C287.216 117.96 281.772 115.996 276.099 115.404C253.212 116.408 253.212 114.601 239.46 106.621C235.157 103.883 230.495 101.755 225.608 100.297C221.857 99.5214 218.043 99.0848 214.214 98.9919C199.408 97.0847 200.01 102.756 189.42 96.9842C184.823 94.4265 179.865 92.5819 174.714 91.5134C169.467 90.5349 164.141 90.0476 158.804 90.0578C148.213 89.6061 144.55 94.525 128.99 91.6139C111.323 88.3013 96.0151 85.3399 88.4865 91.9651C78.097 98.9918 75.2361 112.041 78.7495 124.84C82.2628 137.639 84.0195 142.608 86.2279 151.19C90.9458 165.645 87.2819 156.912 82.8651 154.302C79.0555 151.563 74.5314 149.99 69.844 149.776C65.1565 149.562 60.508 150.716 56.4648 153.098C44.0175 160.777 45.2723 153.449 36.9406 152.696C33.7031 152.179 30.3869 152.503 27.3107 153.636C24.2344 154.77 21.5013 156.676 19.3739 159.171C17.049 161.904 15.3375 165.105 14.3548 168.556C13.0062 172.857 12.7135 177.419 13.5016 181.857C14.154 187.478 15.7099 189.737 16.3122 193.902C17.8179 204.794 14.5555 207.855 11.2931 213.979C9.06482 218.809 7.08797 223.751 5.3706 228.785C3.06673 235.033 1.53303 241.539 0.803306 248.159C0.251208 255.135 -0.150385 259.803 -0.0500033 264.822C0.601066 276.726 2.62209 288.515 5.97294 299.955C8.34154 307.366 8.8075 315.254 7.32804 322.893C6.07327 331.475 4.71817 335.992 8.63305 342.216C11.0846 346.004 14.8024 348.797 19.1229 350.096C23.3956 351.556 27.9529 351.986 32.4234 351.351C38.3151 350.215 43.9363 347.966 48.9864 344.726C54.8587 342.718 62.3873 348.942 72.0239 345.378C81.5601 340.359 77.595 349.343 77.595 349.343C73.526 360.955 70.1737 372.805 67.5569 384.828C67.0276 387.869 67.157 390.989 67.9362 393.976C68.7155 396.963 70.1265 399.749 72.0741 402.144C76.6237 406.83 82.5166 409.987 88.9382 411.178C93.8925 412.318 99.0411 412.318 103.995 411.178C103.995 410.877 106.706 410.726 106.706 410.425L114.134 408.769L119.153 407.966C123.703 407.477 128.281 407.292 132.855 407.414C141.237 407.163 149.368 409.873 157.198 409.873C161.332 410.16 165.484 410.042 169.595 409.522C178.192 408.444 186.505 405.736 194.088 401.542C204.578 396.523 208.643 399.383 213.01 399.183C222.26 398.64 231.361 396.607 239.962 393.16C244.981 390.399 248.846 388.693 252.359 387.036C265.71 380.712 271.482 382.017 285.485 379.307C297.481 377.048 298.635 373.234 309.526 370.323C314.141 369.261 318.818 368.49 323.53 368.014C329.027 366.738 334.171 364.252 338.587 360.737C341.348 358.107 344.32 355.707 347.471 353.559C356.555 347.888 358.161 351.351 371.412 345.428C379.733 341.399 387.606 336.503 394.901 330.823C402.831 324.649 411.163 324.85 423.61 319.028C429.783 316.117 436.358 311.65 444.59 297.898C450.111 288.562 459.647 291.222 472.998 283.393C477.339 280.843 481.238 277.606 484.542 273.806C489.131 269.211 492.975 263.928 495.935 258.147C499.147 252.626 501.757 248.209 498.495 241.684ZM484.642 257.896C482.005 262.162 478.815 266.06 475.156 269.49C470.601 274.131 464.823 277.386 458.493 278.875C447.149 282.288 441.478 283.895 435.104 294.886C430.831 302.959 423.657 309.111 415.027 312.102C404.989 315.715 392.793 317.924 384.913 325.703C379.341 330.506 372.948 334.264 366.041 336.795C358.814 340.158 350.733 340.008 343.556 344.073C339.239 346.482 339.842 346.683 334.321 351.803C330.843 354.891 326.652 357.064 322.124 358.127C317.898 358.42 313.691 358.956 309.526 359.733C299.488 362.393 295.975 366.609 287.041 368.817C274.293 371.929 260.992 371.176 249.649 377.249C246.487 378.905 245.282 379.106 240.564 381.666C235.215 385.411 228.957 387.647 222.446 388.141C213.662 388.542 213.662 386.886 203.674 388.141C191.628 389.747 186.961 394.113 176.923 397.325C173.473 398.407 169.926 399.146 166.332 399.534C159.218 399.889 152.088 399.366 145.102 397.978C139.02 396.761 132.779 396.557 126.631 397.376H121.612C121.612 397.627 116.091 397.376 116.091 397.827C113 398.242 109.933 398.828 106.906 399.584C100.397 401.795 93.3398 401.795 86.8302 399.584C72.7768 394.013 79.7031 380.361 81.1586 374.037C82.6141 367.713 85.4249 359.833 88.085 351C88.085 351 89.691 343.923 89.691 343.822C90.1427 337.147 88.5366 334.989 85.9267 333.031C83.2481 332.048 80.3614 331.772 77.5449 332.228C74.8346 332.228 69.1128 335.691 65.8504 336.093C62.588 336.494 56.7158 332.881 48.2335 334.035C43.0831 335.533 38.1294 337.639 33.4774 340.309C30.8121 341.306 27.9131 341.499 25.1388 340.866C22.3645 340.233 19.8367 338.8 17.8681 336.745C13.5015 331.726 17.8681 324.7 18.3198 317.372C18.4289 309.881 17.3965 302.417 15.2582 295.238C13.6521 288.813 12.2468 283.894 10.992 276.316C10.5403 273.254 9.88776 262.965 9.98814 262.162C10.3897 257.595 10.2893 252.124 11.0923 247.105C11.8467 240.999 13.3122 235.002 15.459 229.237C16.9703 224.234 19.1122 219.444 21.8332 214.983C25.7372 209.061 27.4258 201.951 26.6013 194.906C25.9287 190.935 24.9383 187.025 23.64 183.212C22.9356 180.038 22.9356 176.749 23.64 173.575C24.4431 169.56 25.1959 165.796 28.6591 163.989C29.7759 163.051 31.1076 162.405 32.5351 162.107C33.9627 161.809 35.4416 161.869 36.8402 162.282C41.8593 164.541 42.5619 168.305 49.5385 166.498C56.515 164.692 64.5957 157.916 70.9197 159.221C75.9388 160.174 78.2476 164.842 82.564 168.155C84.1706 169.136 85.9896 169.716 87.8676 169.847C89.7456 169.978 91.6276 169.656 93.3549 168.908C99.5284 166.047 99.6288 157.113 97.0189 149.785C94.7603 143.461 93.3549 138.341 90.5443 129.006C89.0401 125.367 88.1742 121.496 87.9846 117.562C87.3263 113.229 88.0093 108.798 89.942 104.864C90.9727 103.077 92.3527 101.517 93.9998 100.275C95.6468 99.0331 97.5271 98.1359 99.5284 97.6367C114.987 96.1812 129.643 104.312 145.804 101.1C153.323 99.2627 161.118 98.8372 168.792 99.8451C173.649 100.763 178.327 102.457 182.644 104.864C187.061 107.273 189.922 109.883 194.74 109.432C203.419 108.055 212.261 108.055 220.94 109.432C224.313 109.989 227.559 111.145 230.526 112.844C235.094 115.505 239.36 118.616 244.028 120.925C260.089 128.705 267.968 122.632 279.462 126.195C283.218 127.324 286.715 129.183 289.751 131.666C296.989 136.855 305.477 140.026 314.345 140.851C330.657 141.353 334.722 139.345 350.231 150.337C360.52 159.472 373.67 158.518 385.063 164.692C391.107 167.369 396.311 171.637 400.121 177.038C403.761 182.176 409.09 185.871 415.178 187.478C423.56 189.335 431.841 190.69 437.161 200.477C440.841 205.954 445.849 210.409 451.717 213.427C455.983 215.836 457.188 217.944 461.303 220.554C463.794 221.79 466.092 223.379 468.129 225.272C471.122 227.304 473.988 229.516 476.712 231.897C480.386 235.091 483.825 238.546 487.001 242.236C492.622 247.607 487.302 253.931 484.642 257.896Z" fill="white"/>
<path d="M476.711 232.098C473.988 229.717 471.121 227.505 468.129 225.472C466.092 223.58 463.793 221.991 461.303 220.755C457.187 218.145 455.983 216.037 451.716 213.628C445.849 210.61 440.841 206.155 437.161 200.678C431.841 190.891 423.559 189.536 415.178 187.679C409.09 186.072 403.76 182.377 400.12 177.239C396.311 171.837 391.107 167.57 385.063 164.892C373.67 158.719 360.52 159.873 350.231 150.538C334.722 139.546 330.656 141.554 314.344 141.052C305.477 140.226 296.989 137.056 289.751 131.867C286.715 129.384 283.218 127.525 279.462 126.396C267.968 122.832 260.088 128.905 244.027 121.126C239.359 118.817 235.093 115.705 230.526 113.045C227.559 111.346 224.313 110.19 220.939 109.632C212.26 108.256 203.419 108.256 194.74 109.632C189.721 110.034 187.061 107.474 182.644 105.065C178.326 102.658 173.649 100.963 168.791 100.046C161.117 99.038 153.323 99.4635 145.804 101.301C129.743 104.513 114.987 96.2816 99.5281 97.8375C97.5267 98.3367 95.6465 99.234 93.9994 100.476C92.3524 101.717 90.9723 103.278 89.9417 105.065C88.009 108.999 87.326 113.43 87.9842 117.763C88.1739 121.696 89.0398 125.568 90.5439 129.207C93.3546 138.542 94.76 143.662 97.0186 149.986C99.6285 157.313 99.5281 166.247 93.3546 169.108C91.6272 169.857 89.7453 170.179 87.8673 170.048C85.9893 169.917 84.1703 169.337 82.5636 168.355C78.2472 165.043 75.8381 160.375 70.9194 159.421C64.3946 158.117 56.5146 164.842 49.5381 166.699C42.5616 168.556 41.6582 164.742 36.8399 162.483C35.4413 162.07 33.9623 162.01 32.5348 162.308C31.1073 162.605 29.7756 163.252 28.6587 164.19C25.3964 165.997 24.6435 169.761 23.6397 173.776C22.9352 176.95 22.9352 180.239 23.6397 183.413C24.938 187.225 25.9283 191.136 26.601 195.107C27.4255 202.152 25.7369 209.262 21.8328 215.183C19.1119 219.645 16.97 224.435 15.4586 229.438C13.3119 235.203 11.8464 241.2 11.092 247.305C10.2889 252.325 10.3893 257.344 9.98779 262.363C9.98779 263.166 10.54 273.455 10.9917 276.517C12.2464 284.095 13.6517 289.014 15.2578 295.438C17.3962 302.618 18.4286 310.082 18.3195 317.572C18.3195 324.9 13.3004 331.776 17.8678 336.946C19.8364 339.001 22.3642 340.434 25.1384 341.067C27.9127 341.7 30.8118 341.507 33.4771 340.51C38.1291 337.84 43.0827 335.733 48.2332 334.236C56.7154 333.081 62.1862 336.695 65.8501 336.294C69.514 335.892 74.8342 332.63 77.5445 332.429C80.3611 331.972 83.2478 332.249 85.9264 333.232C88.5363 335.189 90.1424 337.348 89.6907 344.023C89.6907 344.023 88.1348 351.15 88.0846 351.2C85.4245 360.034 82.5636 368.215 81.1583 374.238C79.7529 380.261 72.7765 394.314 86.8299 399.785C93.3394 401.995 100.397 401.995 106.906 399.785C109.933 399.029 112.999 398.443 116.091 398.028C116.091 397.727 121.612 398.028 121.612 397.577H126.631C132.779 396.758 139.02 396.961 145.101 398.179C152.087 399.567 159.218 400.09 166.332 399.735C169.926 399.347 173.473 398.607 176.922 397.526C186.96 394.314 191.628 389.948 203.674 388.341C213.712 386.986 213.712 388.643 222.445 388.341C228.956 387.848 235.215 385.612 240.564 381.867C245.282 379.307 246.486 379.106 249.649 377.45C260.992 371.377 274.292 372.13 287.041 369.018C295.975 366.81 299.488 362.594 309.526 359.933C313.691 359.157 317.897 358.621 322.124 358.327C326.651 357.265 330.843 355.091 334.32 352.003C339.841 346.984 339.339 346.683 343.555 344.274C350.733 340.209 358.613 340.359 366.041 336.996C372.948 334.464 379.341 330.707 384.913 325.904C392.642 318.125 404.989 315.866 415.027 312.303C423.656 309.311 430.831 303.159 435.103 295.087C441.478 284.045 447.149 282.489 458.492 279.076C464.823 277.587 470.6 274.332 475.155 269.691C478.815 266.261 482.005 262.363 484.642 258.096C487.302 254.131 492.622 247.607 487 242.638C483.832 238.879 480.393 235.356 476.711 232.098V232.098ZM467.526 262.212C456.485 268.034 447.45 266.378 437.412 276.517C429.08 284.999 420.046 295.338 413.873 297.195C408.801 298.624 403.916 300.645 399.317 303.218C395.566 305.035 392.045 307.293 388.827 309.944C384.091 315.04 378.13 318.841 371.512 320.985C365.74 322.993 358.914 323.897 352.841 325.754C348.602 327.08 344.54 328.917 340.745 331.224C334.672 334.637 327.344 342.768 317.255 344.625C297.179 348.339 302.6 347.938 288.396 354.362C283.312 356.403 277.91 357.541 272.435 357.725C264.493 357.48 256.629 359.351 249.649 363.146C244.178 366.057 238.607 371.427 227.816 372.833C214.515 374.589 213.762 372.833 197.249 376.446C191.768 378.318 186.39 380.479 181.138 382.921C172.31 384.875 163.216 385.334 154.236 384.276C144.963 383.311 135.595 383.819 126.481 385.782C118.415 387.339 110.191 387.912 101.987 387.488C100.898 387.324 99.8679 386.888 98.9909 386.222C98.114 385.555 97.4184 384.679 96.9683 383.674C95.5056 381.306 94.9861 378.476 95.5128 375.744C95.8144 371.606 96.5034 367.506 97.5707 363.497C98.0224 361.74 100.231 350.397 100.632 348.44C103.041 337.548 103.794 326.506 95.2117 321.538C90.7284 319.657 85.8089 319.066 81.0077 319.831C66.4022 322.441 69.4638 324.85 60.1785 321.588C57.6357 320.837 54.9999 320.449 52.3488 320.433C47.681 320.433 41.0057 323.897 35.1334 324.8C31.0178 325.452 30.1143 320.835 30.1143 317.572C30.1143 312.553 30.817 307.534 30.566 301.863C29.9637 286.806 27.3538 286.153 25.5469 277.169C24.6852 270.005 24.1827 262.802 24.0412 255.587C24.6309 245.715 27.5367 236.121 32.5235 227.581C35.0583 223.962 37.1163 220.031 38.6467 215.886C40.8195 210.346 41.1192 204.247 39.5 198.52C39.5 198.52 37.9942 193.501 38.5463 193.501C38.1932 190.612 38.6267 187.682 39.8011 185.019C40.2352 183.701 40.9299 182.485 41.8439 181.441C42.7579 180.398 43.8725 179.549 45.1213 178.946C46.7026 178.157 48.3952 177.616 50.1404 177.34C55.5108 176.988 56.615 180.451 66.7536 176.185C68.9245 175.587 71.1932 175.43 73.4259 175.723C75.6585 176.017 77.8098 176.754 79.7529 177.892C86.7796 180.451 85.5751 180.451 89.7911 180.602C94.134 180.735 98.4172 179.564 102.088 177.239C104.15 176.311 105.971 174.92 107.408 173.174C108.877 170.435 109.926 167.491 110.52 164.441C111.47 160.616 111.641 156.638 111.022 152.746C108.763 144.164 107.96 142.306 106.404 136.886C105.069 132.713 103.947 128.475 103.041 124.188V119.169C102.88 118.323 102.906 117.452 103.118 116.618C103.33 115.783 103.722 115.006 104.268 114.34C104.814 113.675 105.5 113.137 106.277 112.766C107.053 112.395 107.902 112.199 108.763 112.192C121.311 112.192 133.106 115.655 146.356 115.605C157.298 115.605 161.965 113.296 174.814 117.964C179.331 119.57 181.941 123.284 188.968 125.242C202.319 129.006 212.959 120.223 224.101 125.242C233.638 129.709 231.63 126.998 240.564 132.67C247.496 137.235 255.341 140.232 263.551 141.453C271.231 142.608 283.628 139.446 296.025 148.53C302.605 153.34 310.426 156.162 318.56 156.661C329.201 157.765 330.255 156.26 338.637 162.333C344.81 166.8 343.104 165.846 349.327 170.463C352.118 172.847 355.185 174.886 358.462 176.537C362.064 177.566 365.738 178.321 369.454 178.795C375.035 178.436 380.634 179.117 385.967 180.803C385.967 180.803 394.148 186.123 392.692 185.169C397.369 189.246 401.367 194.04 404.537 199.373C406.47 201.818 408.893 203.831 411.65 205.283C414.408 206.736 417.439 207.595 420.548 207.805C418.39 207.404 430.586 211.57 432.393 212.824C436.343 215.11 439.764 218.206 442.431 221.909C446.72 226.815 451.811 230.957 457.488 234.156C460.901 236.464 461.504 237.267 468.079 241.935C471.022 243.924 473.517 246.506 475.406 249.514C478.568 256.139 474.252 258.448 467.526 262.011V262.212Z" fill="black"/>
<path d="M468.179 242.085C461.604 237.418 461.002 236.615 457.589 234.306C451.911 231.107 446.82 226.966 442.531 222.059C439.864 218.357 436.443 215.261 432.493 212.975C430.636 211.921 418.49 207.956 420.648 207.956C417.539 207.745 414.508 206.886 411.751 205.434C408.993 203.982 406.57 201.969 404.637 199.524C401.468 194.191 397.469 189.396 392.793 185.32C394.248 186.273 385.966 180.803 386.067 180.953C380.734 179.268 375.135 178.587 369.554 178.946C365.839 178.471 362.164 177.716 358.562 176.687C355.285 175.036 352.218 172.997 349.428 170.614C343.204 165.996 344.91 166.95 338.737 162.483C330.355 156.41 329.301 157.916 318.661 156.812C310.526 156.312 302.705 153.49 296.125 148.681C283.527 139.596 271.331 142.758 263.652 141.604C255.442 140.383 247.597 137.385 240.664 132.82C231.73 127.149 233.738 129.859 224.202 125.392C212.808 120.022 202.168 129.006 189.068 125.392C182.042 123.435 179.432 119.721 174.915 118.114C162.066 113.447 157.398 115.655 146.456 115.756C133.206 115.756 121.361 112.242 108.864 112.342C108.003 112.349 107.154 112.545 106.377 112.916C105.6 113.288 104.915 113.825 104.369 114.491C103.823 115.156 103.43 115.934 103.218 116.768C103.006 117.603 102.98 118.473 103.142 119.319V124.338C104.047 128.625 105.17 132.863 106.505 137.036C108.061 142.457 108.863 144.314 111.122 152.897C111.741 156.789 111.571 160.766 110.62 164.591C110.026 167.642 108.977 170.586 107.508 173.324C106.071 175.071 104.251 176.462 102.188 177.39C98.5176 179.715 94.2344 180.886 89.8915 180.752C85.4245 180.752 86.6291 180.753 79.8533 178.042C77.9102 176.904 75.7589 176.167 73.5263 175.874C71.2936 175.581 69.0249 175.738 66.8539 176.336C56.8157 180.602 55.6112 177.139 50.2408 177.49C48.4956 177.766 46.803 178.308 45.2217 179.096C43.9729 179.7 42.8583 180.549 41.9443 181.592C41.0303 182.635 40.3356 183.852 39.9015 185.169C38.7271 187.832 38.2936 190.763 38.6467 193.651C38.0946 193.651 39.6004 198.42 39.6004 198.671C41.2196 204.397 40.9199 210.496 38.7471 216.036C37.2167 220.181 35.1587 224.112 32.6238 227.731C27.6371 236.271 24.7313 245.865 24.1416 255.737C24.2831 262.952 24.7856 270.155 25.6473 277.319C27.4542 286.304 30.0641 287.107 30.6664 302.013C30.9174 307.735 30.3653 312.603 30.2147 317.723C30.2147 320.985 31.1683 325.603 35.2338 324.95C41.1061 324.047 47.7814 320.734 52.4492 320.584C55.1003 320.599 57.7361 320.988 60.2789 321.738C69.5642 325.051 66.5026 322.592 81.1081 319.982C85.9093 319.216 90.8287 319.807 95.312 321.688C103.895 326.707 103.142 337.699 100.733 348.59C100.331 350.347 98.1227 361.69 97.671 363.647C96.6037 367.656 95.9148 371.756 95.6132 375.894C95.0865 378.626 95.606 381.457 97.0687 383.824C97.5188 384.83 98.2143 385.706 99.0913 386.372C99.9683 387.039 100.999 387.474 102.088 387.639C110.291 388.062 118.516 387.489 126.581 385.932C135.695 383.969 145.063 383.461 154.336 384.426C163.316 385.484 172.41 385.026 181.238 383.071C186.49 380.629 191.869 378.468 197.35 376.597C213.863 373.083 214.615 374.74 227.916 372.983C238.707 371.578 244.278 366.207 249.749 363.296C256.73 359.501 264.594 357.631 272.535 357.876C278.011 357.692 283.412 356.554 288.496 354.513C302.7 348.088 297.38 348.49 317.356 344.776C327.394 342.919 334.772 334.738 340.845 331.375C344.641 329.068 348.702 327.231 352.941 325.904C359.014 324.047 365.84 323.144 371.612 321.136C378.231 318.992 384.192 315.191 388.928 310.094C392.145 307.444 395.666 305.186 399.418 303.368C404.016 300.796 408.901 298.774 413.973 297.346C420.146 295.488 429.03 285.149 437.512 276.667C447.55 266.629 456.585 268.185 467.627 262.363C474.352 258.799 478.669 256.49 475.607 250.016C473.728 246.87 471.195 244.166 468.179 242.085V242.085ZM350.381 312.854C344.897 316.588 339.044 319.75 332.915 322.29C322.892 326.539 312.34 329.409 301.546 330.823C288.208 332.246 274.768 332.447 261.393 331.425C248.244 329.847 235.394 326.364 223.248 321.086C216.053 317.986 209.539 313.501 204.075 307.886C198.562 302.47 194.565 295.703 192.481 288.261C190.574 281.563 190.058 274.545 190.964 267.64C191.87 260.734 194.18 254.088 197.751 248.108C202.423 240.482 208.796 234.04 216.372 229.287L213.411 226.275L178.277 246.352V251.371H187.663V271.447L181.339 277.37H117.798V260.455C120.199 257.233 122.762 254.134 125.477 251.17H128.488V185.922H118.45V173.826L126.681 164.24H186.91V179.297L177.625 188.683V214.029L235.143 181.154V170.815L241.668 164.24H302.951V179.297L295.422 186.424H280.365L255.019 202.435L259.486 207.002C286.99 197.868 313.29 196.111 348.775 211.77L358.813 205.597H375.477V250.016L367.597 257.745H351.937C340.293 238.622 320.468 221.056 280.516 229.638L301.345 252.074H305.912V270.393L298.183 277.771H237.954L237.603 260.807L242.07 256.139L239.41 253.278C230.626 260.004 224.704 274.509 245.533 290.821C274.041 311.198 345.412 299.152 352.841 272.852H376.43C376.179 290.218 362.879 303.92 350.381 312.854Z" fill="white"/>
<path d="M245.533 291.072C224.704 274.76 230.476 260.255 239.41 253.529L242.07 256.39L237.603 261.058L237.954 278.022H298.183L305.913 270.644V252.325H301.345L280.516 229.889C320.669 221.307 340.293 238.873 351.937 257.996H367.597L375.477 250.267V205.848H358.814L348.775 212.021C313.291 196.362 286.991 198.118 259.486 207.253L255.019 202.435L280.416 187.378H295.473L303.001 180.251V165.193H241.869L235.344 171.768V182.108L177.826 214.983V189.636L187.111 180.251V165.193H126.882L118.651 174.78V186.876H128.689V252.124H125.678C122.963 255.088 120.4 258.187 117.999 261.409V278.323H181.49L187.814 272.401V252.325H178.227V247.305L213.361 227.229L216.322 230.241C208.746 234.994 202.373 241.436 197.701 249.062C194.13 255.041 191.82 261.688 190.914 268.593C190.008 275.499 190.524 282.516 192.431 289.215C194.515 296.657 198.512 303.423 204.025 308.839C209.489 314.454 216.003 318.939 223.198 322.039C235.344 327.318 248.194 330.801 261.343 332.379C274.718 333.401 288.158 333.199 301.496 331.776C312.29 330.363 322.842 327.493 332.865 323.244C339.052 320.405 344.923 316.922 350.382 312.855C363.03 303.77 376.33 290.068 376.581 272.953H352.991C345.362 299.403 274.041 311.449 245.533 291.072ZM349.478 215.786L358.864 209.662H372.014V249.112H357.408C342.351 226.727 308.673 218.998 277.103 226.426L262.447 210.315C273.439 206.852 305.21 196.061 349.478 215.635V215.786ZM174.714 243.893V257.193H183.698V268.536H128.488V257.193H137.874V178.594H128.488V168.556H183.698V178.594H174.313V221.307L249.348 178.494H242.722V168.456H299.488V178.494H286.84L248.444 201.13L300.191 257.193H301.998V268.586H244.981V257.143H252.911L217.476 219.399L174.714 243.893ZM372.215 276.767C370.056 288.412 364.736 293.079 358.161 300.608C352.595 306.351 346.052 311.059 338.838 314.511C323.652 321.891 306.986 325.718 290.102 325.703C269.314 326.643 248.559 323.223 229.171 315.665C217.235 311.063 207.182 302.6 200.612 291.624C196.022 281.086 195.68 269.182 199.659 258.398C203.208 247.761 210.433 238.739 220.036 232.951L236.499 250.718C228.117 257.946 222.044 271.196 235.093 286.304C250.753 305.878 286.439 311.399 323.529 300.357C342.702 294.686 351.084 286.705 357.157 276.717L372.215 276.767Z" fill="black"/>
<path d="M252.66 257.193L244.73 257.143V268.636H301.797V257.243L299.99 257.193L248.294 201.33L286.689 178.694L299.338 178.544V168.656L242.572 168.757V178.594H249.197L174.162 221.407V178.694L183.548 178.594V168.757H128.488V178.594H137.874V257.193H128.488V268.536H183.548V257.193H174.563V243.942L217.225 219.449L252.66 257.193Z" fill="#E31837"/>
<path d="M323.379 300.407C286.288 311.449 250.603 305.928 234.943 286.354C221.893 271.297 227.966 257.996 236.348 250.769L219.886 233.001C210.283 238.789 203.057 247.811 199.508 258.448C195.53 269.232 195.871 281.136 200.462 291.674C207.032 302.65 217.085 311.113 229.021 315.715C248.409 323.273 269.164 326.693 289.952 325.754C306.836 325.768 323.502 321.941 338.687 314.561C345.902 311.109 352.445 306.401 358.011 300.658C364.586 293.13 369.906 288.462 372.064 276.818H357.007C350.934 286.755 342.552 294.736 323.379 300.407Z" fill="#E31837"/>
<path d="M357.258 249.112H371.863V209.662H358.713L349.328 215.786C304.909 196.211 273.289 207.002 262.096 210.465L276.752 226.577C308.523 218.897 342.351 226.727 357.258 249.112Z" fill="#E31837"/>
</g>
<defs>
<clipPath id="clip0_37_7184">
<rect width="500" height="323.981" fill="white" transform="translate(0 88)"/>
</clipPath>
</defs>
</svg>
