<svg width="500" height="500" viewBox="0 0 500 500" fill="none" xmlns="http://www.w3.org/2000/svg">
<g clip-path="url(#clip0_37_7199)">
<path d="M62.0917 245.914C63.2333 245.914 64.3493 245.575 65.2984 244.941C66.2476 244.307 66.9874 243.405 67.4243 242.351C67.8611 241.296 67.9755 240.136 67.7527 239.016C67.53 237.896 66.9803 236.868 66.1731 236.061C65.3659 235.253 64.3374 234.704 63.2178 234.481C62.0981 234.258 60.9376 234.373 59.8829 234.809C58.8282 235.246 57.9268 235.986 57.2926 236.935C56.6583 237.884 56.3198 239 56.3198 240.142C56.3198 241.673 56.9279 243.141 58.0104 244.223C59.0928 245.306 60.5609 245.914 62.0917 245.914Z" fill="white"/>
<path d="M371.163 77.2222C370.014 77.2162 368.889 77.5514 367.931 78.1853C366.973 78.8192 366.224 79.7233 365.78 80.783C365.337 81.8427 365.217 83.0103 365.438 84.1378C365.658 85.2653 366.209 86.302 367.019 87.1165C367.829 87.931 368.863 88.4867 369.989 88.713C371.116 88.9394 372.284 88.8262 373.346 88.388C374.408 87.9497 375.316 87.2061 375.955 86.2512C376.594 85.2964 376.935 84.1734 376.935 83.0246C376.939 82.264 376.792 81.5102 376.504 80.8064C376.216 80.1026 375.791 79.4627 375.255 78.9235C374.718 78.3843 374.081 77.9564 373.379 77.6645C372.676 77.3725 371.923 77.2222 371.163 77.2222Z" fill="white"/>
<path d="M129.775 88.7965C130.924 88.7965 132.047 88.4554 133.002 87.8165C133.957 87.1776 134.7 86.2696 135.138 85.2076C135.577 84.1456 135.69 82.9774 135.464 81.851C135.237 80.7247 134.681 79.6908 133.867 78.8806C133.052 78.0703 132.016 77.5201 130.888 77.2997C129.761 77.0793 128.593 77.1985 127.533 77.6424C126.474 78.0862 125.57 78.8345 124.936 79.7927C124.302 80.7509 123.967 81.8757 123.973 83.0246C123.973 83.7851 124.123 84.5381 124.415 85.2404C124.707 85.9427 125.135 86.5803 125.674 87.1167C126.213 87.6531 126.853 88.0776 127.557 88.3659C128.261 88.6541 129.015 88.8005 129.775 88.7965Z" fill="white"/>
<path d="M438.937 245.914C440.077 245.908 441.19 245.564 442.135 244.926C443.081 244.288 443.816 243.385 444.248 242.33C444.68 241.275 444.79 240.115 444.564 238.997C444.338 237.88 443.786 236.854 442.977 236.05C442.169 235.246 441.14 234.699 440.022 234.479C438.903 234.259 437.744 234.375 436.691 234.812C435.638 235.25 434.738 235.99 434.105 236.938C433.473 237.887 433.135 239.002 433.135 240.142C433.135 240.903 433.285 241.656 433.577 242.358C433.869 243.06 434.297 243.698 434.836 244.234C435.375 244.77 436.015 245.195 436.719 245.483C437.423 245.772 438.176 245.918 438.937 245.914Z" fill="white"/>
<path d="M485.781 233.307C481.588 199.314 473.872 182.362 468.343 165.776C460.861 147.419 451.995 129.658 441.823 112.644C434.836 102.436 422.077 83.6626 416.852 77.04C415.424 74.9439 417.277 75.916 418.067 75.9464C419.485 76.3631 420.968 76.5175 422.441 76.402C425.283 76.2418 428.063 75.513 430.617 74.2588C433.171 73.0046 435.448 71.2505 437.312 69.1003C439.176 66.9502 440.589 64.4478 441.468 61.7415C442.348 59.0351 442.675 56.1798 442.431 53.3447C441.619 41.189 439.821 29.1195 437.053 17.2551C433.864 6.19735 427.211 1.03299 415.424 0.0608793C409.561 0.0608793 384.742 -0.425166 373.471 1.30641C350.93 3.55442 334.405 10.1161 324.592 30.0141C316.724 47.4513 319.428 74.7009 330.243 95.5709C335.382 105.621 341.208 115.304 347.68 124.552C352.672 131.768 357.178 139.309 361.168 147.123C366.332 157.179 383.527 194.757 389.42 219.303C400.63 265.113 394.311 291.482 372.712 327.329C356.763 351.176 338.08 368.34 323.62 376.208C299.803 391.184 267.268 395.346 250.317 395.346C233.366 395.346 200.83 391.184 177.044 376.208C162.553 368.34 143.871 351.176 127.922 327.329C106.323 291.482 100.034 265.113 111.214 219.303C117.107 194.757 134.301 157.179 139.466 147.123C143.467 139.315 147.973 131.775 152.954 124.552C159.436 115.311 165.263 105.627 170.391 95.5709C181.206 74.7009 183.909 47.4513 176.041 30.0141C166.229 10.1161 149.703 3.55442 127.162 1.30641C115.892 -0.425166 91.103 0.0608793 85.2096 0.0608793C73.4227 1.03299 66.8002 6.13659 63.5801 17.2551C60.8284 29.1224 59.0303 41.1907 58.2031 53.3447C57.9587 56.1798 58.2858 59.0351 59.1651 61.7415C60.0444 64.4478 61.4579 66.9502 63.3219 69.1003C65.1859 71.2505 67.4625 73.0046 70.0168 74.2588C72.571 75.513 75.3511 76.2418 78.1922 76.402C79.6659 76.5175 81.1484 76.3631 82.5667 75.9464C83.3565 75.9464 85.2096 74.9439 83.7818 77.04C78.5871 83.6626 65.7977 102.436 58.8106 112.644C48.6923 129.668 39.8678 147.429 32.4117 165.776C26.8828 182.362 19.1667 199.192 14.9745 233.307C12.2566 253.468 12.2566 273.903 14.9745 294.064C15.339 296.798 15.7643 299.806 16.3415 303.178V303.542C17.2225 308.737 18.4376 314.661 20.1388 321.192C28.3978 353.591 43.397 383.885 64.1573 410.094C84.9176 436.304 110.972 457.84 140.62 473.297C142.929 474.573 145.207 475.94 147.577 477.186C165.135 486.451 201.711 500.061 249.405 500.03H250.317C253.355 500.03 256.605 500.03 259.673 499.818L264.139 499.575C266.235 499.575 268.301 499.332 270.367 499.149L272.888 498.937C309.95 495.565 338.263 484.993 353.087 477.186C357.978 474.604 362.687 471.9 367.365 469.075C395.153 453.325 419.485 432.141 438.911 406.786C458.337 381.432 472.458 352.425 480.434 321.496C482.196 314.813 483.472 308.737 484.322 303.269C484.322 303.269 484.322 303.117 484.322 303.056C484.869 299.745 485.295 296.737 485.659 293.943C488.406 273.827 488.447 253.434 485.781 233.307ZM250.165 488.487C197.328 488.457 146.18 469.871 105.648 435.975C65.1171 402.079 37.7774 355.024 28.4018 303.026C23.5651 275.627 23.637 247.587 28.6144 220.214C44.8365 144.268 77.4327 106.021 96.0851 79.7741C104.925 66.9847 95.8421 59.6332 88.7335 62.3368C85.517 63.6238 82.1292 64.4323 78.6782 64.7367C68.1065 63.3089 69.5646 56.4434 71.5392 38.5201L73.9999 23.7865C76.2175 10.7541 82.1109 11.0275 97.5736 11.3009C122.119 11.7869 126.555 11.9996 139.8 14.3387C157.48 18.2576 180.568 35.9379 162.401 84.5435C151.101 110.578 139.314 119.418 126.555 146.425C112.793 176.378 79.4073 243.636 101.979 301.112C132.934 378.213 192.841 405.705 249.8 406.677C282.402 406.193 314.092 395.849 340.701 377.006C367.309 358.162 387.588 331.703 398.868 301.112C421.469 243.636 388.083 176.378 374.322 146.425C361.563 119.418 349.776 110.578 338.475 84.5435C320.248 35.9379 343.397 18.2576 361.077 14.3387C374.322 11.8781 378.757 11.6654 403.303 11.3009C418.766 11.0275 424.568 10.7541 426.877 23.7865L429.337 38.5201C431.282 56.4434 432.77 63.3089 422.198 64.7367C418.747 64.4323 415.36 63.6238 412.143 62.3368C405.004 59.6332 395.921 66.9847 404.761 79.7741C423.444 106.021 456.04 144.328 472.232 220.214C477.227 247.586 477.299 275.629 472.444 303.026C462.955 355.073 435.516 402.145 394.901 436.048C354.287 469.952 303.07 488.54 250.165 488.578V488.487Z" fill="white"/>
<path d="M472.475 303.117C477.33 275.72 477.258 247.677 472.262 220.305C456.071 144.359 423.474 106.112 404.792 79.8651C395.951 67.0757 405.035 59.7241 412.174 62.4278C415.39 63.7148 418.778 64.5233 422.229 64.8277C432.801 63.3999 431.342 56.5344 429.368 38.6111L426.907 23.8775C424.69 10.8451 418.796 11.1185 403.333 11.3919C378.788 11.8779 374.352 12.0906 361.107 14.4297C343.427 18.3485 320.339 36.0289 338.506 84.6345C349.806 110.669 361.593 119.509 374.352 146.516C388.114 176.469 421.5 243.727 398.898 301.203C387.618 331.794 367.34 358.253 340.731 377.097C314.123 395.94 282.432 406.284 249.831 406.768C192.871 405.796 132.965 378.304 102.009 301.203C79.4377 243.727 112.824 176.469 126.585 146.516C139.344 119.509 151.131 110.669 162.432 84.6345C180.659 36.0289 157.51 18.3485 139.83 14.4297C126.585 11.969 122.15 11.7564 97.604 11.3919C82.1414 11.1185 76.339 10.8451 74.0303 23.8775L71.5696 38.6111C69.595 56.5344 68.1369 63.3999 78.7086 64.8277C82.1596 64.5233 85.5474 63.7148 88.7639 62.4278C95.8725 59.7241 104.956 67.0757 96.1155 79.8651C77.4631 106.112 44.8669 144.419 28.6448 220.305C23.6675 247.678 23.5954 275.718 28.4321 303.117C37.8591 355.154 65.2586 402.229 105.85 436.127C146.441 470.025 197.646 488.594 250.53 488.594C303.413 488.594 354.618 470.025 395.209 436.127C435.8 402.229 463.2 355.154 472.627 303.117H472.475ZM371.163 88.7964C370.012 88.8024 368.886 88.4664 367.928 87.8312C366.969 87.1959 366.22 86.29 365.777 85.2286C365.335 84.1671 365.217 82.9979 365.44 81.8696C365.663 80.7412 366.216 79.7046 367.029 78.8913C367.843 78.078 368.879 77.5248 370.008 77.3019C371.136 77.079 372.305 77.1964 373.367 77.6393C374.428 78.0823 375.334 78.8307 375.969 79.7895C376.605 80.7483 376.941 81.8743 376.935 83.0245C376.935 84.5553 376.326 86.0234 375.244 87.1058C374.162 88.1883 372.693 88.7964 371.163 88.7964ZM129.775 77.2221C130.922 77.2221 132.044 77.5625 132.998 78.2C133.953 78.8376 134.696 79.7438 135.136 80.804C135.575 81.8642 135.69 83.0309 135.466 84.1564C135.242 85.282 134.689 86.3158 133.878 87.1272C133.066 87.9387 132.032 88.4913 130.907 88.7152C129.781 88.9391 128.615 88.8242 127.554 88.385C126.494 87.9458 125.588 87.2022 124.95 86.248C124.313 85.2938 123.973 84.172 123.973 83.0245C123.969 82.2614 124.116 81.505 124.406 80.7992C124.696 80.0934 125.124 79.4522 125.663 78.9126C126.203 78.373 126.844 77.9458 127.55 77.6556C128.255 77.3655 129.012 77.2181 129.775 77.2221ZM438.937 234.37C440.077 234.376 441.19 234.72 442.135 235.358C443.081 235.996 443.816 236.899 444.248 237.954C444.68 239.009 444.79 240.169 444.564 241.287C444.338 242.404 443.786 243.43 442.977 244.234C442.169 245.038 441.14 245.585 440.022 245.805C438.903 246.025 437.744 245.909 436.691 245.472C435.638 245.034 434.738 244.294 434.105 243.346C433.473 242.397 433.135 241.282 433.135 240.142C433.135 239.382 433.285 238.629 433.577 237.926C433.869 237.224 434.297 236.586 434.836 236.05C435.375 235.514 436.015 235.089 436.719 234.801C437.423 234.513 438.177 234.366 438.937 234.37ZM404.549 379.488C403.407 379.488 402.291 379.15 401.342 378.516C400.393 377.881 399.653 376.98 399.216 375.925C398.779 374.871 398.665 373.71 398.888 372.59C399.11 371.471 399.66 370.442 400.467 369.635C401.275 368.828 402.303 368.278 403.423 368.055C404.542 367.833 405.703 367.947 406.757 368.384C407.812 368.821 408.714 369.561 409.348 370.51C409.982 371.459 410.321 372.575 410.321 373.716C410.321 375.247 409.712 376.715 408.63 377.798C407.548 378.88 406.079 379.488 404.549 379.488ZM96.3889 367.945C97.5291 367.951 98.6421 368.294 99.5872 368.932C100.532 369.57 101.268 370.473 101.7 371.529C102.132 372.584 102.242 373.743 102.016 374.861C101.79 375.979 101.238 377.004 100.429 377.808C99.6207 378.613 98.5922 379.159 97.4734 379.38C96.3546 379.6 95.1957 379.484 94.1427 379.046C93.0898 378.608 92.1902 377.869 91.5573 376.92C90.9244 375.971 90.5866 374.857 90.5866 373.716C90.5866 372.956 90.7369 372.203 91.0288 371.501C91.3208 370.798 91.7487 370.161 92.2879 369.624C92.8271 369.088 93.4669 368.663 94.1707 368.375C94.8745 368.087 95.6283 367.941 96.3889 367.945ZM62.0004 234.279C63.142 234.279 64.2579 234.618 65.2071 235.252C66.1563 235.886 66.8961 236.787 67.333 237.842C67.7698 238.897 67.8841 240.057 67.6614 241.177C67.4387 242.297 66.889 243.325 66.0818 244.132C65.2746 244.94 64.2461 245.489 63.1264 245.712C62.0068 245.935 60.8463 245.82 59.7916 245.384C58.7369 244.947 57.8355 244.207 57.2012 243.258C56.567 242.309 56.2285 241.193 56.2285 240.051C56.2404 239.293 56.4014 238.545 56.7025 237.849C57.0036 237.153 57.4388 236.524 57.9833 235.996C58.5277 235.469 59.1708 235.053 59.8757 234.774C60.5806 234.495 61.3335 234.358 62.0915 234.37L62.0004 234.279ZM250.165 452.579C249.016 452.579 247.893 452.238 246.938 451.599C245.983 450.96 245.24 450.052 244.801 448.99C244.363 447.928 244.25 446.76 244.477 445.634C244.703 444.507 245.258 443.473 246.073 442.663C246.887 441.853 247.924 441.303 249.052 441.082C250.179 440.862 251.347 440.981 252.407 441.425C253.466 441.869 254.37 442.617 255.004 443.575C255.638 444.534 255.973 445.658 255.967 446.807C255.975 447.574 255.831 448.335 255.543 449.046C255.255 449.757 254.829 450.404 254.289 450.949C253.75 451.495 253.107 451.927 252.4 452.223C251.692 452.518 250.932 452.67 250.165 452.67V452.579Z" fill="#013369"/>
<path d="M96.3892 379.489C97.5294 379.483 98.6424 379.139 99.5876 378.501C100.533 377.863 101.268 376.96 101.7 375.904C102.132 374.849 102.242 373.69 102.016 372.572C101.79 371.454 101.238 370.429 100.429 369.625C99.621 368.82 98.5925 368.274 97.4737 368.054C96.3549 367.833 95.196 367.949 94.143 368.387C93.0901 368.825 92.1905 369.565 91.5576 370.513C90.9247 371.462 90.5869 372.576 90.5869 373.717C90.5869 374.477 90.7372 375.23 91.0291 375.932C91.3211 376.635 91.749 377.272 92.2882 377.809C92.8274 378.345 93.4673 378.77 94.171 379.058C94.8748 379.346 95.6286 379.493 96.3892 379.489Z" fill="white"/>
<path d="M250.165 441.096C249.017 441.096 247.896 441.437 246.941 442.074C245.987 442.712 245.244 443.618 244.804 444.678C244.365 445.738 244.25 446.905 244.474 448.03C244.698 449.156 245.251 450.19 246.062 451.001C246.874 451.813 247.908 452.365 249.033 452.589C250.159 452.813 251.325 452.698 252.386 452.259C253.446 451.82 254.352 451.076 254.989 450.122C255.627 449.168 255.967 448.046 255.967 446.898C255.967 445.36 255.356 443.884 254.268 442.796C253.18 441.707 251.704 441.096 250.165 441.096Z" fill="white"/>
<path d="M404.549 367.944C403.407 367.944 402.291 368.283 401.342 368.917C400.393 369.551 399.653 370.453 399.216 371.507C398.779 372.562 398.665 373.723 398.888 374.842C399.11 375.962 399.66 376.99 400.467 377.798C401.275 378.605 402.303 379.155 403.423 379.377C404.542 379.6 405.703 379.486 406.758 379.049C407.812 378.612 408.714 377.872 409.348 376.923C409.982 375.974 410.321 374.858 410.321 373.716C410.321 372.186 409.713 370.717 408.63 369.635C407.548 368.553 406.08 367.944 404.549 367.944Z" fill="white"/>
</g>
<defs>
<clipPath id="clip0_37_7199">
<rect width="474.847" height="500" fill="white" transform="translate(13)"/>
</clipPath>
</defs>
</svg>
