<svg xmlns="http://www.w3.org/2000/svg" fill="none" viewBox="0 0 500 500">
  <path fill="#FFB612" d="m341.417 114 15.983 49.002-11.891 36.414L317.749 114H193.311l-22.321 68.467L148.759 114H0l46.732 75.886 64.017 196.637h120.46l24.208-74.335 24.142 74.335h131.788L500 114H341.417ZM63.365 182.176l-30.794-49.991h102.971l25.872 79.685-44.191 135.743-53.858-165.437Zm154.559 186.566h-88.428l72.221-221.857 44.147 135.902-27.94 85.955Zm-1.865-236.557h88.473l31.469 96.655-44.281 136.059-75.661-232.714ZM397.973 368.63h-88.407l66.895-205.516-10.07-30.929h108.501L397.973 368.63Z"/>
  <path fill="#5A1414" d="m335.933 228.863-44.282 136.06-75.593-232.737h88.474l31.401 96.677Zm30.457-96.677 10.025 30.929-66.893 205.517h88.405l77.01-236.446H366.39Zm-230.849 0H32.571l30.794 49.99 53.947 165.438 44.102-135.744-25.873-79.684Zm-6.045 236.446h88.54l27.94-85.844-44.259-135.902-72.221 221.746Z"/>
</svg>
