<svg xmlns="http://www.w3.org/2000/svg" viewBox="0 0 500 500">
  <path fill="#FFF" d="M495.023 182.67H307.307L247.511 3.662 187.71 182.67H0l153.795 110.22L94.756 472l152.755-109.231L400.278 471.79l-59.056-178.894L495.023 182.67" mask="url(#b)" transform="translate(0 14)"/>
  <path fill="#024" d="m247.511 38.965-55 164.387H20.767L161.665 304.32l-54.188 164.381L247.54 368.569l140.017 100.132-54.21-164.381L474.25 203.352H302.506L247.511 38.965"/>
  <path fill="#FFF" d="m247.511 84.271-44.227 133.15H64.17l114.131 81.786-43.892 133.144 113.443-81.098 112.756 81.098-43.892-133.138 114.136-81.792H291.733l-44.222-133.15"/>
  <path fill="#024" d="M247.511 123.43 212.75 228.618H102.864l90.153 64.613-34.682 105.187 89.631-64.072 88.716 64.072-34.688-105.182 90.159-64.618H282.267L247.511 123.43"/>
</svg>
