<svg width="500" height="500" viewBox="0 0 500 500" fill="none" xmlns="http://www.w3.org/2000/svg">
<g clip-path="url(#clip0_37_7155)">
<path d="M432.166 151.924C428.418 152.834 419.102 153.128 415.139 153.128C411.176 153.128 405.573 152.54 396.966 156.295C390.796 158.99 386.647 164.386 384.784 167.231C385.23 166.545 385.771 165.925 386.389 165.389C386.389 165.389 392.666 158.144 405.487 159.09C405.218 159.435 405.042 159.842 404.976 160.273C404.909 160.705 404.954 161.146 405.107 161.555V161.598C405.165 161.725 405.237 161.845 405.322 161.957V161.957L405.379 162.05C405.379 162.05 409.972 160.574 413.219 159.592C420.27 157.843 424.634 156.654 429.393 154.705C435.885 152.039 437.992 150.864 437.748 150.362C437.505 149.86 435.942 151.014 432.166 151.924Z" fill="#005778"/>
<path d="M386.396 165.382C385.778 165.918 385.237 166.538 384.791 167.224C382.882 170.15 381.161 173.194 379.638 176.339C383.938 170.011 397.374 164.665 405.336 161.957C405.252 161.845 405.18 161.725 405.121 161.598V161.555C404.969 161.146 404.923 160.705 404.99 160.273C405.056 159.842 405.232 159.434 405.501 159.09C392.666 158.144 386.396 165.382 386.396 165.382Z" fill="white"/>
<path d="M399.245 314.781C396.522 320.306 403.602 337.383 410.073 342.463C405.336 341.03 380.591 334.007 376.621 343.18C372.257 353.248 396.443 390.182 399.188 397.083C388.037 386.026 357.474 361.196 353.174 364.033C348.874 366.871 349.913 380.695 351.024 387.724C346.832 382.615 339.63 374.424 333.41 376.875C327.19 379.326 327.957 403.06 327.555 413.171C322.424 401.276 314.047 377.341 306.293 378.201C298.54 379.061 289.811 395.399 288.185 401.598C287.002 395.364 281.929 381.655 274.254 381.655C266.579 381.655 248.742 417.937 243.346 429.739C243.346 420.617 245.496 376.108 240.673 373.901C235.851 371.694 219.512 381.841 216.008 386.456C217.305 380.609 218.408 360.844 214.059 358.458C209.709 356.072 197.29 355.312 174.846 376.065C178.572 368.104 184.706 359.44 186.197 351.041C195.523 350.585 204.805 349.467 213.973 347.695C232.347 360.963 254.029 368.899 276.627 370.628C299.225 372.357 321.861 367.811 342.04 357.492C362.219 347.173 379.156 331.482 390.983 312.149C402.811 292.816 409.07 270.592 409.07 247.928C409.068 242.677 408.736 237.43 408.073 232.22C412.631 227.921 417.002 223.771 421.073 219.895C420.038 222.508 419.574 225.313 419.711 228.121C419.976 238.498 446.856 240.712 461.138 241.866C445.187 244.016 417.311 255.574 422.606 261.773C427.902 267.972 443.345 276.478 445.538 277.539C438.178 277.539 414.007 280.04 411.284 286.898C408.561 293.755 446.29 316.744 460.099 322.148C442.937 317.325 401.968 309.256 399.245 314.781Z" fill="#FC4C02"/>
<path d="M378.42 137.922C369.93 139.6 361.592 141.97 353.489 145.009C331.55 130.643 305.597 123.66 279.411 125.077C253.226 126.493 228.177 136.237 207.916 152.886C187.656 169.535 173.242 192.22 166.777 217.634C160.311 243.049 162.131 269.864 171.972 294.171C165.56 299.027 158.663 303.208 151.391 306.647C156.407 300.664 160.779 289.162 155.103 286.095C151.226 283.995 133.196 283.164 133.196 283.164C133.196 283.164 153.498 269.548 153.025 259.652C152.552 249.756 120.176 244.739 107.377 241.902C118.671 239.523 155.246 231.26 156.823 223.9C158.4 216.541 145.357 211.324 139.918 208.758C146.045 208.837 161.574 211.439 163.667 203.857C166.06 195.164 127.836 172.527 119.108 169.388C121.057 169.847 157.475 178.346 170.79 175.465C180.7 173.315 169.149 159.979 167.243 158.402C170.166 159.836 186.863 163.268 191.607 155.342C196.351 147.417 180.206 115.864 171.155 102.471C179.217 110.511 216.036 136.703 221.526 132.246C227.015 127.789 222.823 113.392 219.877 108.641C225.811 114.195 231.651 121.619 239.19 121.461C242.967 121.382 247.718 108.899 248.506 80.686C253.565 96.5159 265.748 118.014 274.734 116.674C283.72 115.334 286.759 102.07 287.998 96.4013C289.03 102.485 293.731 118.122 299.715 118.695C307.053 119.842 321.091 87.1642 326.23 72.4307C327.003 79.7186 321.658 117.147 329.569 120.257C337.48 123.367 350.544 107.616 357.961 98.7589C353.461 107.301 344.668 127.961 349.906 132.905C355.145 137.85 373.253 132.669 380.312 126.85C378.305 131.207 377.883 134.668 378.42 137.922Z" fill="#FC4C02"/>
<path d="M474.998 137.363C465.617 138.294 446.813 145.066 446.813 145.066C412.481 136.145 371.734 135.141 321.744 165.561C312.866 170.967 304.272 176.824 295.996 183.111C288.113 189.102 280.868 195.2 274.11 201.32C271.187 203.957 267.439 207.34 264.228 210.586C248.004 215.996 240.802 210.937 218.509 213.868C200.866 216.19 194.015 222.209 190.131 226.939C189.629 228.301 189.68 229.497 190.597 230.228C192.704 231.919 195.957 231.074 202.134 230.615C208.311 230.157 217.656 230.314 223.826 234.198C227.803 236.671 229.609 242.647 230.275 245.951C225.653 250.852 221.117 255.603 216.538 260.125C188.354 287.958 169.414 304.569 148.224 312.868C102.203 330.883 76.276 309.722 65.8923 303.48C53.2943 295.397 36.583 292.731 27.6182 291.04C21.7547 290.005 16.2954 287.358 11.8528 283.393C9.93946 281.767 8.47041 279.029 6.29192 279.646C5.78047 279.752 5.30152 279.977 4.89453 280.305C5.30377 279.983 5.78204 279.759 6.29192 279.653C6.62872 283.544 19.6854 316.006 61.1556 321.933C73.0083 323.617 76.7777 323.086 78.992 322.922C72.0194 316.795 66.2721 308.245 65.7848 307.744C67.3709 309.12 68.9547 310.434 70.536 311.685C80.6164 322.627 94.0708 329.878 108.753 332.281C109.527 332.524 121.186 332.997 121.186 332.997C134.802 332.711 153.046 328.698 169.994 323.796C219.748 309.356 267.747 266.238 267.747 266.238C267.747 266.238 265.081 277.861 264.042 282.003C262.183 290.719 259.602 299.264 256.324 307.55C256.324 307.55 254.948 310.99 252.949 315.197C249.997 321.417 245.847 329.249 245.847 332.524C245.836 332.667 245.836 332.811 245.847 332.954C245.882 333.231 245.942 333.505 246.027 333.771C251.234 330.84 256.13 327.388 260.638 323.466C269.696 315.913 281.176 304.419 294.462 288.03C324.316 251.203 329.06 225.993 350.05 206.379C358.936 198.067 382.297 185.225 394.257 181.054L394.522 180.925C408.542 172.938 422.962 165.676 437.727 159.169C449.551 154.411 491.136 140.602 495.514 147.467C493.737 139.577 484.256 136.431 474.998 137.363ZM429.407 154.705C424.649 156.654 420.284 157.843 413.233 159.592C409.987 160.574 405.393 162.05 405.393 162.05L405.336 161.957C397.382 164.666 383.931 170.004 379.646 176.325C381.162 173.183 382.881 170.143 384.791 167.224C386.647 164.357 390.796 158.983 396.973 156.288C405.572 152.533 411.184 153.121 415.146 153.121C419.109 153.121 428.397 152.834 432.173 151.924C435.95 151.014 437.555 149.853 437.77 150.362C437.985 150.871 435.899 152.039 429.407 154.705Z" fill="#008E97"/>
<path d="M264.042 282.031C262.183 290.747 259.602 299.292 256.324 307.578C240.064 316.178 214.044 327.264 190.561 332.774C144.261 343.631 114.6 334.208 109.527 332.552L108.81 332.323C109.942 332.567 121.193 333.04 121.193 333.04C144.635 333.4 167.942 329.423 189.937 321.309C218.301 310.961 246.198 294.042 264.042 282.031Z" fill="white"/>
<path d="M267.747 266.295C267.747 266.295 265.081 277.918 264.042 282.06C246.199 294.071 218.301 310.99 189.93 321.352C167.935 329.466 144.628 333.443 121.186 333.083C134.802 332.796 153.047 328.783 169.994 323.882C219.749 309.413 267.747 266.295 267.747 266.295Z" fill="#005778"/>
<path d="M385.78 245.965C382.247 256.857 376.822 271.763 370.179 284.346C362.296 299.316 351.877 309.657 346.395 313.627C345.485 313.075 345.141 311.914 345.112 310.718C345.069 308.568 349.756 297.575 351.562 274.407C357.481 269.957 362.798 265.722 367.499 261.816C373.511 256.843 379.689 251.461 385.78 245.965Z" fill="#008E97"/>
<path d="M112.214 297.883C112.199 299.399 112 300.908 111.619 302.376C110.69 305.596 109.237 308.642 107.32 311.391C106.206 312.961 105.01 314.47 103.737 315.913C102.564 315.975 101.388 315.958 100.218 315.863C98.7848 315.719 97.2298 315.461 96.592 315.339C96.1978 314.802 115.274 301.874 110.107 295.583C110.372 295.511 112.128 295.117 112.214 297.883Z" fill="#005778"/>
<path d="M493.121 155.758C492.138 157.003 491.021 158.135 489.788 159.134C485.378 162.847 480.671 166.193 475.714 169.137C468.849 173.358 449.716 186.336 435.025 199.88C434.481 200.382 395.203 237.452 394.221 238.362C394.114 238.706 389.019 257.71 376.851 282.362C368.323 299.654 355.596 310.46 351.053 312.932C350.766 313.083 348.143 314.745 346.388 313.649C351.87 309.679 362.275 299.317 370.172 284.368C376.815 271.77 382.24 256.879 385.773 245.987C379.66 251.483 373.504 256.865 367.528 261.838C362.827 265.744 357.495 269.979 351.59 274.429C351.59 274.429 338.863 283.788 331.669 288.575C327.641 291.248 309.188 302.749 297.988 308.855C288.486 314.043 268.607 323.474 268.528 323.502C258.166 332.252 250.047 336.337 247.875 335.792C246.542 335.463 246.084 333.893 246.055 333.814C251.262 330.884 256.158 327.431 260.667 323.509C269.725 315.956 281.205 304.462 294.491 288.073C324.345 251.247 329.089 226.036 350.078 206.423C358.964 198.11 382.326 185.268 394.286 181.098L394.551 180.969C380.864 188.78 366.99 197.787 357.939 206.423C340.404 222.811 334.406 241.952 317.035 268.101L316.598 268.782C375.124 224.395 420.349 172.993 467.086 156.568C468.577 156.045 469.953 155.558 471.343 155.135L471.508 155.078C487.424 149.696 493.859 148.857 494.325 151.853C494.554 153.128 493.508 155.049 493.121 155.758Z" fill="#005778"/>
<path d="M96.5702 315.311C84.7676 313.039 70.9513 305.006 66.666 302.569C68.1351 301.136 71.7539 298.556 78.6119 298.986C88.0281 299.567 98.4333 300.333 103.306 298.872C107.491 297.618 108.287 295.79 110.078 295.554C115.259 301.846 96.176 314.773 96.5702 315.311Z" fill="#008E97"/>
<path d="M218.509 213.868C240.803 210.937 248.004 216.018 264.228 210.586C267.439 207.34 271.187 203.957 274.103 201.32C270.354 202.567 266.523 203.551 262.638 204.266C255.042 205.763 249.524 205.376 233.765 207.447C209.007 210.701 197.426 218.462 194.18 221.457C193.147 222.393 192.221 223.44 191.421 224.581C190.907 225.32 190.476 226.113 190.138 226.946C194.008 222.217 200.859 216.19 218.509 213.868Z" fill="#005778"/>
<path d="M252.949 315.225C249.996 321.445 245.847 329.278 245.847 332.553C245.835 332.696 245.835 332.84 245.847 332.983C208.096 347.731 177.311 347.035 177.196 347.043C125.292 349.479 84.4452 328.368 84.4452 328.368H83.6139C78.7409 328.368 54.6342 327.995 38.8043 320.643C21.491 312.61 11.5301 300.019 7.19464 290.545C3.96989 283.494 3.81224 281.229 4.837 280.312C4.9264 280.232 5.02227 280.161 5.12364 280.097V280.097C5.47058 279.905 5.84177 279.76 6.22722 279.667C6.56403 283.558 19.6207 316.021 61.0909 321.947C72.9436 323.631 76.7129 323.101 78.9273 322.936C71.9546 316.809 66.2074 308.26 65.7201 307.758C67.3062 309.134 68.89 310.448 70.4713 311.699C80.5705 322.648 94.0493 329.895 108.753 332.28H108.803H108.853L109.519 332.495C114.6 334.158 144.253 343.574 190.554 332.718C214.066 327.207 240.057 316.15 256.317 307.522C256.324 307.586 254.948 311.019 252.949 315.225Z" fill="#005778"/>
<path d="M499.978 148.728C499.955 147.72 499.808 146.719 499.541 145.747V145.747C497.27 137.807 489.165 132.905 478.129 132.905C476.961 132.905 475.764 132.97 474.546 133.084C466.09 133.923 451.056 139.018 446.598 140.58C433.494 137.153 420.012 135.384 406.468 135.313C399.769 135.328 393.079 135.807 386.446 136.746V136.746L383.709 137.112C383.709 137.112 382.641 133.643 385.428 125.538C386.402 122.78 387.549 120.085 388.861 117.469C388.861 117.469 358.341 133.335 354.528 128.269C350.716 123.202 367.821 82.9002 367.821 82.9002C367.821 82.9002 338.397 115.592 332.614 114.144C330.35 113.578 330.128 101.733 330.02 88.9914C329.862 71.7354 330.464 52 330.464 52C330.464 52 306.236 112.238 300.324 111.923C295.2 111.651 287.74 79.4963 287.74 79.4963C287.74 79.4963 283.061 107.208 274.648 110.597C266.235 113.987 244.607 62.1615 244.607 62.1615C244.607 62.1615 243.611 114.03 237.592 115.191C231.572 116.352 212.417 96.9744 212.417 96.9744C212.417 96.9744 221.396 122.808 218.358 126.212C216.545 128.24 198.114 116.853 178.944 103.101C167.866 95.1542 158.607 88.4969 158.607 88.4969C158.607 88.4969 169.414 106.412 177.999 125.202C183.918 138.101 187.501 150.505 185.953 152.92C182.162 158.832 153.706 150.405 153.706 150.405C153.706 150.405 169.879 165.984 168.833 169.997C168.324 171.939 152.244 170.534 135.869 168.299C118.534 165.934 100.899 162.659 100.899 162.659C100.899 162.659 158.629 196.225 156.794 202.273C155.361 207.053 119.43 203.133 119.43 203.133C119.43 203.133 150.674 217.408 150.545 222.123C150.416 226.838 89.4615 242.281 89.4615 242.281C89.4615 242.281 144.726 253.84 145.787 260.01C146.848 266.18 123.988 285.951 123.988 285.951C123.988 285.951 150.595 288.352 151.935 291.835C153.276 295.318 145.486 309.084 138.714 311.262C130.358 313.964 122.755 315.676 113.497 315.676C112.164 315.676 110.859 315.641 109.584 315.569C110.042 314.981 110.494 314.365 110.888 313.785C113.078 310.643 114.734 307.161 115.79 303.48V303.444V303.408C116.252 301.602 116.493 299.747 116.506 297.883V297.725C116.526 295.877 115.83 294.092 114.564 292.745C112.307 290.774 110.193 291.011 108.681 291.677L103.428 294.257C102.985 294.451 102.531 294.616 102.067 294.751C101.056 295.052 98.9422 295.411 94.5494 295.411C90.3859 295.411 85.4341 295.103 80.64 294.809C80.64 294.809 77.7019 294.644 77.1286 294.644C71.3957 294.644 67.5977 296.457 65.3045 298.127L64.0505 297.467C52.3626 291.254 38.7542 288.746 30.2623 287.177C29.6031 287.055 28.9724 286.948 28.3776 286.826C22.7113 285.779 17.4989 283.029 13.4363 278.943C12.5216 277.87 11.4487 276.942 10.2546 276.191C9.32591 275.716 8.31005 275.434 7.26896 275.364C6.22788 275.293 5.1834 275.436 4.19924 275.783C2.8065 276.264 1.62042 277.207 0.838336 278.456C-1.1825 281.817 0.745176 286.754 3.28914 292.315C6.19141 298.643 15.2709 314.437 36.9698 324.519C44.0857 327.823 53.4518 330.181 64.7957 331.514C70.9808 332.234 77.2009 332.612 83.4276 332.646C91.1774 336.306 99.1813 339.403 107.377 341.912C121.279 346.254 142.999 351.421 167.894 351.536C167.894 351.536 176.723 351.65 181.51 351.342C181.983 353.334 178.536 360.436 174.394 368.77C169.485 378.645 163.186 390.326 163.186 390.326C163.186 390.326 174.573 380.293 185.179 372.805C195.785 365.316 207.831 359.261 210.654 362.772C216 369.343 210.296 396.453 210.296 396.453C210.296 396.453 231.88 377.355 236.882 379.971C239.176 381.16 239.405 395.428 239.412 410.455C239.412 428.263 238.961 447.181 238.961 447.181C238.961 447.181 268.686 387.036 274.87 388.756C281.054 390.476 287.826 417.894 287.826 417.894C287.826 417.894 299.113 384.485 306.014 385.295C308.773 384.958 314.699 395.793 319.973 406.872C325.742 419.012 330.722 430.879 330.722 430.879C330.722 430.879 330.844 418.474 331.711 405.797C332.492 394.332 333.947 383.167 336.462 382.543C341.765 381.239 357.151 401.892 357.151 401.892C357.151 401.892 351.712 373.156 355.976 370.719C360.24 368.283 411.434 412.555 411.434 412.555C411.434 412.555 377.797 350.196 381.888 345.444C385.98 340.693 421.861 350.389 421.861 350.389C418.293 346.103 414.979 341.612 411.936 336.938C407.156 329.478 403.172 321.173 405.042 319.138C406.74 317.317 425.451 319.217 444.778 322.964C467.065 327.264 481.569 330.367 481.569 330.367C481.569 330.367 468.44 323.265 449.078 311.62C432.316 301.531 417.547 290.179 418.206 288.338C419.561 284.375 459.59 280.563 459.59 280.563C459.59 280.563 452.869 276.614 445.652 272.2C437.813 267.406 429.45 261.451 429.45 259.258C429.45 257.344 439.482 252.615 452.725 248.509C468.598 243.629 483.274 240.354 483.274 240.354C483.274 240.354 428.704 235.975 425.293 228.171C422.972 222.854 427.243 215.924 430.374 211.453C432.636 208.368 435.19 205.507 437.999 202.911C452.904 189.145 471.88 176.468 477.943 172.742L479.197 171.96C479.197 171.96 493.199 161.627 494.64 160.416C495.894 159.362 499.09 156.002 499.814 151.731C499.982 150.739 500.038 149.732 499.978 148.728V148.728ZM155.103 286.095C151.226 283.995 133.196 283.164 133.196 283.164C133.196 283.164 153.498 269.548 153.025 259.652C152.552 249.756 120.175 244.739 107.377 241.902C118.67 239.522 155.246 231.26 156.823 223.9C158.399 216.541 145.357 211.324 139.918 208.758C146.045 208.837 161.574 211.438 163.666 203.857C166.06 195.164 127.836 172.527 119.108 169.388C121.057 169.846 157.475 178.345 170.789 175.465C180.7 173.315 169.148 159.979 167.242 158.402C170.166 159.835 186.863 163.268 191.607 155.342C196.351 147.417 180.206 115.864 171.155 102.471C179.217 110.511 216.036 136.703 221.525 132.246C227.015 127.789 222.823 113.392 219.877 108.641C225.811 114.195 231.651 121.619 239.19 121.461C242.966 121.382 247.718 108.899 248.506 80.6859C253.565 96.5158 265.747 118.014 274.734 116.674C283.72 115.334 286.758 102.07 287.998 96.4011C289.03 102.485 293.731 118.122 299.715 118.695C307.053 119.841 321.091 87.164 326.229 72.4305C327.003 79.7185 321.657 117.147 329.569 120.257C337.48 123.367 350.544 107.616 357.961 98.7588C353.46 107.301 344.668 127.961 349.906 132.905C355.144 137.85 373.253 132.669 380.312 126.85C378.334 131.15 377.911 134.639 378.449 137.893C369.959 139.571 361.621 141.942 353.518 144.98C331.579 130.614 305.625 123.631 279.44 125.048C253.254 126.465 228.205 136.208 207.945 152.857C187.684 169.506 173.271 192.191 166.805 217.606C160.339 243.02 162.16 269.835 172.001 294.142C165.588 298.999 158.691 303.18 151.42 306.619C156.414 300.663 160.778 289.162 155.103 286.095ZM78.612 298.994C88.0282 299.574 98.4334 300.341 103.306 298.879C107.491 297.625 108.287 295.798 110.078 295.561C110.365 295.518 112.121 295.124 112.228 297.869C112.213 299.385 112.014 300.894 111.633 302.362C110.704 305.582 109.251 308.628 107.334 311.377C106.22 312.947 105.024 314.456 103.751 315.899C102.578 315.961 101.402 315.944 100.232 315.848C98.7989 315.705 97.2438 315.447 96.6061 315.325C84.8035 313.054 70.9872 305.02 66.7019 302.584C68.1351 301.144 71.754 298.6 78.612 298.987V298.994ZM461.153 241.873C445.201 244.023 417.325 255.582 422.62 261.78C427.916 267.979 443.359 276.485 445.552 277.546C438.192 277.546 414.021 280.047 411.298 286.905C408.575 293.763 446.304 316.751 460.113 322.155C442.915 317.317 401.968 309.256 399.245 314.774C396.522 320.291 403.602 337.375 410.073 342.456C405.336 341.023 380.591 334 376.621 343.173C372.257 353.241 396.443 390.175 399.187 397.076C388.037 386.026 357.473 361.195 353.174 364.033C348.874 366.871 349.913 380.694 351.024 387.724C346.832 382.615 339.63 374.424 333.41 376.875C327.19 379.326 327.956 403.06 327.555 413.171C322.424 401.275 314.047 377.341 306.293 378.201C298.539 379.061 289.811 395.399 288.184 401.598C287.002 395.363 281.928 381.655 274.254 381.655C266.579 381.655 248.742 417.937 243.346 429.739C243.346 420.617 245.496 376.108 240.673 373.901C235.85 371.694 219.512 381.841 216.008 386.456C217.305 380.608 218.408 360.844 214.058 358.458C209.709 356.072 197.29 355.312 174.845 376.065C178.572 368.104 184.706 359.44 186.197 351.041C195.523 350.585 204.805 349.466 213.972 347.695C232.347 360.963 254.028 368.899 276.626 370.628C299.224 372.357 321.861 367.811 342.04 357.492C362.219 347.173 379.156 331.482 390.983 312.149C402.811 292.816 409.07 270.592 409.069 247.928C409.068 242.676 408.736 237.43 408.073 232.22C412.631 227.92 417.002 223.771 421.073 219.894C420.038 222.508 419.574 225.313 419.711 228.121C419.99 238.498 446.871 240.712 461.153 241.866V241.873ZM495.55 147.495C491.171 140.63 449.586 154.439 437.762 159.198C422.991 165.708 408.563 172.972 394.536 180.961C380.849 188.772 366.976 197.78 357.925 206.415C340.389 222.804 334.391 241.944 317.021 268.094L316.584 268.774C375.109 224.388 420.334 172.985 467.072 156.56C468.562 156.037 469.938 155.55 471.328 155.127L471.493 155.07C487.409 149.688 493.844 148.85 494.31 151.845C494.518 153.149 493.472 155.091 493.077 155.808C492.095 157.053 490.977 158.185 489.745 159.183C485.347 162.878 480.654 166.207 475.714 169.137C468.849 173.358 449.715 186.336 435.025 199.88C434.48 200.381 395.203 237.451 394.221 238.361C394.114 238.705 389.019 257.71 376.851 282.361C368.323 299.653 355.596 310.46 351.053 312.932C350.766 313.082 348.143 314.745 346.388 313.648C345.477 313.097 345.133 311.936 345.105 310.739C345.062 308.589 349.748 297.596 351.554 274.428C351.554 274.428 338.827 283.787 331.625 288.581C327.598 291.254 309.145 302.756 297.945 308.862C288.442 314.05 268.564 323.48 268.478 323.509C258.116 332.259 249.996 336.343 247.825 335.799C246.492 335.469 246.034 333.9 246.005 333.821C245.92 333.555 245.86 333.281 245.826 333.004C208.075 347.752 177.289 347.057 177.174 347.064C125.292 349.479 84.4452 328.368 84.4452 328.36H83.6139C78.741 328.36 54.6342 327.988 38.8043 320.635C21.491 312.602 11.5301 300.011 7.19466 290.538C3.96992 283.486 3.81227 281.222 4.83702 280.305C5.24401 279.977 5.72296 279.751 6.23441 279.645C8.38424 279.029 9.88194 281.795 11.7953 283.393C16.2379 287.357 21.6972 290.005 27.5607 291.039C36.5255 292.723 53.2368 295.396 65.842 303.465C76.2257 309.707 102.153 330.869 148.173 312.853C169.385 304.555 188.303 287.944 216.502 260.082C221.081 255.56 225.617 250.809 230.239 245.907C229.58 242.604 227.774 236.627 223.79 234.155C217.62 230.3 208.268 230.149 202.098 230.572C195.928 230.995 192.668 231.876 190.561 230.185C190.219 229.886 189.971 229.496 189.844 229.061C189.717 228.625 189.717 228.162 189.844 227.727C190.06 226.812 190.433 225.941 190.948 225.154C191.077 224.947 191.206 224.739 191.349 224.538C192.147 223.398 193.073 222.352 194.108 221.421C197.354 218.418 208.935 210.672 233.693 207.397C249.459 205.333 254.97 205.72 262.566 204.222C266.451 203.506 270.282 202.522 274.031 201.277C280.789 195.157 288.034 189.059 295.917 183.068C304.193 176.781 312.787 170.924 321.665 165.518C371.655 135.098 412.402 136.101 446.742 145.016C446.742 145.016 465.545 138.244 474.926 137.312C484.256 136.431 493.737 139.577 495.564 147.488L495.55 147.495Z" fill="white"/>
</g>
<defs>
<clipPath id="clip0_37_7155">
<rect width="500" height="395.124" fill="white" transform="translate(0 52)"/>
</clipPath>
</defs>
</svg>
