<svg width="500" height="500" viewBox="0 0 500 500" fill="none" xmlns="http://www.w3.org/2000/svg">
<g clip-path="url(#clip0_37_7162)">
<path d="M291.28 103.468L266.866 129.02C306.797 112.407 393.869 83.9454 393.869 83.9454L365.955 111.227C442.107 88.6679 499.958 78 499.958 78C487.919 105.006 473.94 131.105 458.129 156.091C462.978 155.585 494.603 151.874 494.603 151.874C494.603 151.874 466.183 199.268 433.294 233.001L451.678 237.597C432.162 264.842 409.878 289.995 385.183 312.652C330.747 361.142 302.749 353.721 302.749 353.721C262.355 382.984 229.929 368.142 229.929 368.142C229.929 368.142 243.928 332.849 229.508 329.096C216.436 325.681 196.618 335.885 194.173 339.975C188.374 356.248 180.066 371.514 169.548 385.219C157.23 400.584 141.814 413.184 124.304 422.198C118.441 416.613 113.754 409.913 110.517 402.491C107.28 395.069 105.56 387.075 105.456 378.978C96.0824 387.986 84.4132 394.243 71.7237 397.067C57.0922 400.188 37.0636 397.658 16.5289 380.538C2.7829 369.027 0.126465 330.404 0.126465 330.404C10.0817 312.921 22.9109 297.241 38.0755 284.021C33.5357 280.202 30.1 275.237 28.1244 269.643C94.451 240.675 94.4931 213.056 147.242 179.45C199.022 146.35 231.7 131.171 291.28 103.468Z" fill="white"/>
<path d="M258.981 126.913L238.152 148.67C279.305 130.454 366.209 100.854 366.209 100.854L340.909 125.521C430.047 97.9448 486.549 88.584 486.549 88.584C474.33 115.115 459.93 140.586 443.498 164.735C455.389 163.597 480.224 160.729 480.224 160.729C462.803 188.7 442.139 214.516 418.663 237.639C422.879 238.23 439.408 241.856 439.408 241.856C421.867 266.316 401.532 288.646 378.816 308.393C329.735 351.36 307.936 346.342 307.936 346.342C308.253 344.96 308.395 343.544 308.357 342.126C308.312 341.177 308.199 340.233 308.02 339.301C270.071 374.846 238.742 362.871 238.742 362.871C238.742 362.871 252.699 329.139 231.279 322.182C214.665 316.911 189.113 330.615 187.215 337.783C181.736 353.142 173.944 367.574 164.109 380.581C153.54 393.758 140.561 404.805 125.864 413.133C125.864 413.133 107.607 399.092 113.932 357.938C115.323 348.999 113.552 345.499 112.582 343.981C109.589 339.385 86.1867 344.403 80.4943 357.432C76.2777 366.666 99.6797 374.298 99.6797 374.298C91.5756 382.277 81.3165 387.715 70.1637 389.942C58.3995 392.345 40.1418 391.586 20.9986 375.015C9.69821 365.19 7.33691 332.006 7.33691 332.006C18.178 313.789 32.1363 297.618 48.5749 284.232C44.1899 281.184 40.5915 277.137 38.0757 272.426C92.891 248.729 100.565 215.292 162.549 177.891C193.594 158.896 225.802 141.87 258.981 126.913Z" fill="#004851"/>
<path d="M404.917 242.362C410.453 243.299 415.898 244.71 421.193 246.578C402.302 277.149 345.927 337.235 314.387 339.722C314.1 335.046 312.41 330.564 309.538 326.862C297.69 348.493 261.596 361.733 246.585 358.275C264.8 291.569 187.553 316.995 181.65 335.295C172.002 364.121 152.796 388.786 127.214 405.206C127.214 405.206 114.564 390.996 120.088 358.823C124.052 335.211 109.125 335.97 109.125 335.97C103.137 335.674 80.5788 338.415 73.4528 354.185C67.6761 366.835 87.789 375.774 87.789 375.774C87.789 375.774 58.7791 398.965 25.1731 370.208C16.7399 363.166 13.8306 333.397 13.8306 333.397C25.9271 313.943 41.6951 297.029 60.2549 283.6C55.3975 282.112 51.1142 279.168 47.9847 275.167C93.1019 254.506 110.811 220.098 149.182 194.546C172.877 178.446 197.869 164.342 223.9 152.38L211.672 167.771C211.672 167.771 221.918 163.554 226.387 161.193C266.698 141.417 335.006 119.871 335.006 119.871L313.628 140.237C339.803 131.673 366.42 124.522 393.363 118.817C417.06 113.757 466.563 103.342 466.563 103.342C457.487 127.787 445.269 150.948 430.216 172.24C445.143 171.186 461.25 170.301 461.25 170.301C446.394 197.145 427.381 221.466 404.917 242.362Z" fill="black"/>
<path d="M221.454 196.021L219.936 196.57L221.285 196.064L221.454 196.021Z" fill="black"/>
<path d="M272.896 276.516C272.896 276.516 251.307 266.059 217.28 277.149C249.904 259.963 287.387 254.33 323.621 261.168C293.196 251.046 260.312 251.046 229.887 261.168C223.341 263.621 216.936 266.437 210.702 269.601C210.702 269.601 213.738 267.408 219.346 264.077C235.416 252.457 252.777 242.736 271.083 235.11C287.143 228.83 303.885 224.457 320.965 222.08C303.591 219.497 285.893 220.068 268.722 223.767C268.722 223.767 308.189 208.334 346.517 207.491C359.167 207.196 388.683 208.756 388.683 208.756C346.517 196.106 302.454 193.703 272.474 198.341C255.608 202.558 241.989 206.774 241.989 206.774C241.989 206.774 244.35 205.552 248.82 203.654C259.656 197.245 304.014 173.379 386.448 160.519C378.66 159.707 370.835 159.299 363.004 159.296C349.898 159.986 336.845 161.464 323.917 163.723C342.68 155.29 378.057 146.857 421.825 142.64C371.901 138.943 321.732 144.855 274.035 160.055L272.98 160.519C272.98 160.519 281.414 154.32 291.154 147.869C298.238 143.146 308.526 135.81 308.526 135.81C274.878 144.9 242.167 157.154 210.828 172.409C195.185 180.041 186.752 184.511 186.752 184.511C189.197 181.686 200.456 171.861 203.196 168.277C161.494 188.727 146.273 202.263 121.479 228.574C99.3424 252.018 100.397 256.066 66.6641 274.239C74.8792 277.067 83.6313 277.982 92.2537 276.915C100.876 275.848 109.141 272.827 116.42 268.083C120.936 264.937 125.069 261.271 128.732 257.162C137.587 246.874 134.677 236.332 146.441 228.785C144.05 233.119 142.45 237.845 141.719 242.742C149.833 232.58 159.754 224.003 170.982 217.442C202.564 198.594 223.562 195.347 223.562 195.347L221.159 196.191C177.981 214.153 170.94 237.597 170.56 240.085C170.054 245.356 186.161 233.507 199.317 231.905C192.308 234.566 185.909 238.616 180.504 243.811C175.098 249.006 170.798 255.24 167.861 262.138C165.416 267.914 164.657 274.45 157.826 279.552C155.519 281.642 152.884 283.337 150.026 284.57C140.96 288.786 134.677 286.594 132.527 285.202C131.698 284.578 131.009 283.788 130.503 282.883C133.221 283.438 136.024 283.437 138.741 282.879C141.459 282.321 144.035 281.218 146.315 279.636C149.923 277.357 152.839 274.135 154.748 270.318C155.598 268.805 156.044 267.099 156.044 265.363C156.044 263.628 155.598 261.922 154.748 260.409C154.037 259.232 153.06 258.237 151.896 257.505C150.732 256.773 149.413 256.323 148.044 256.192C149.671 252.551 151.846 249.181 154.495 246.199C149.751 249.853 145.5 254.105 141.845 258.849C143.279 258.949 144.67 259.382 145.907 260.114C147.145 260.846 148.194 261.856 148.971 263.065C151.881 267.914 148.971 274.872 142.942 278.582C136.912 282.293 129.28 281.407 126.371 276.558C126.012 275.963 125.729 275.326 125.527 274.661L124.515 275.209C122.576 276.221 118.612 277.908 118.612 277.908C120.561 278.358 122.574 278.458 124.557 278.203C125.063 285.076 129.364 296.081 153.441 289.841C146.568 296.629 129.997 296.165 119.708 290.895C121.1 291.949 122.66 293.003 124.557 294.184C154.748 312.947 189.535 295.28 198.052 290.389C200.118 289.082 202.269 287.859 204.335 286.805C198.291 292.494 193.296 299.202 189.577 306.622C200.877 293.214 231.616 271.499 272.896 276.516Z" fill="white"/>
<path d="M162.422 246.747C163.561 251.216 171.319 246.747 171.319 246.747C165.301 251.917 160.321 258.185 156.645 265.215C156.587 267.015 156.111 268.776 155.254 270.36C156.233 270.599 157.241 270.699 158.248 270.655C160.32 270.271 162.306 269.513 164.109 268.42C163.916 270.59 163.286 272.699 162.257 274.619C161.228 276.539 159.821 278.231 158.121 279.594C164.952 274.492 165.711 267.956 168.157 262.18C171.093 255.281 175.393 249.048 180.799 243.853C186.204 238.657 192.603 234.608 199.612 231.947C186.456 233.549 170.349 245.398 170.855 240.127C170.855 237.639 178.108 214.195 221.454 196.232L219.894 196.823C180.132 211.412 159.302 234.856 162.422 246.747Z" fill="#A2AAAD"/>
<path d="M145.935 264.878C146.488 266.983 146.34 269.212 145.515 271.226C144.69 273.241 143.233 274.933 141.362 276.046C139.492 277.16 137.31 277.635 135.146 277.4C132.982 277.166 130.952 276.233 129.364 274.745C129.049 274.227 128.834 273.655 128.732 273.058C127.846 273.69 126.961 274.239 126.033 274.787C126.235 275.452 126.518 276.089 126.877 276.684C129.786 281.533 137.207 282.419 143.448 278.708C149.688 274.998 152.387 268.04 149.477 263.191C148.7 261.982 147.65 260.971 146.413 260.239C145.176 259.507 143.785 259.074 142.351 258.975C141.634 259.86 140.875 260.872 139.99 261.926C141.152 261.86 142.311 262.097 143.354 262.615C144.396 263.132 145.286 263.912 145.935 264.878Z" fill="#004851"/>
<path d="M141.381 276.009C143.43 275.1 145.048 273.434 145.896 271.359C146.745 269.285 146.759 266.962 145.935 264.878C145.286 263.912 144.396 263.132 143.353 262.614C142.311 262.097 141.152 261.86 139.99 261.926C138.044 264.349 135.96 266.658 133.749 268.841C133.631 270.019 133.817 271.207 134.289 272.293C134.762 273.378 135.505 274.324 136.448 275.04C134.881 275.143 133.32 274.76 131.978 273.943C131.232 273.431 130.67 272.691 130.376 271.835L128.731 273.058C128.834 273.655 129.049 274.227 129.364 274.744C130.817 276.465 132.879 277.557 135.118 277.793C137.358 278.028 139.602 277.389 141.381 276.009Z" fill="black"/>
<path d="M131.936 273.944C133.278 274.76 134.839 275.143 136.406 275.04C135.463 274.324 134.72 273.379 134.248 272.293C133.775 271.208 133.589 270.02 133.707 268.842C132.643 269.906 131.517 270.905 130.334 271.836C130.628 272.692 131.19 273.431 131.936 273.944Z" fill="white"/>
<path d="M388.851 208.756C388.851 208.756 359.335 207.195 346.686 207.491C308.357 208.334 268.89 223.767 268.89 223.767C286.061 220.068 303.759 219.496 321.133 222.08C303.996 224.444 287.197 228.817 271.083 235.109C252.712 242.764 235.293 252.527 219.177 264.203C269.353 235.002 328.556 225.391 385.394 237.217C392.275 231.253 398.702 224.783 404.621 217.863C419.464 201.587 422.626 191.51 422.626 191.51C422.626 191.51 354.36 184.215 304.942 191.805C294.316 193.449 282.805 196.022 272.643 198.509C302.623 193.702 346.517 196.19 388.851 208.756Z" fill="#A2AAAD"/>
<path d="M231.321 289.798C287.148 275.968 325.898 292.75 330.579 310.375L331.127 310.08C340.087 305.588 348.203 299.583 355.119 292.328C368.823 278.835 377.382 267.999 380.798 260.746C323.706 232.116 260.71 249.361 229.887 261.252C260.312 251.13 293.196 251.13 323.621 261.252C287.387 254.414 249.904 260.047 217.28 277.233C251.307 266.143 272.896 276.6 272.896 276.6C231.616 271.583 200.877 293.467 190.294 306.833C189.492 308.478 188.691 310.206 188.017 312.019C197.588 302.954 207.835 295.659 231.321 289.798Z" fill="#A2AAAD"/>
<path d="M421.994 142.64C378.226 146.856 342.849 155.289 324.085 163.722C337.014 161.464 350.067 159.985 363.173 159.295C371.003 159.298 378.828 159.706 386.617 160.518C304.183 173.378 259.825 197.244 248.988 203.653C271.075 194.6 294.016 187.791 317.465 183.329C349.511 176.962 386.743 175.402 401.796 173.926C415.041 160.737 425.206 144.783 431.565 127.207C431.565 127.207 394.375 130.201 352.125 138.044C325.436 142.682 299.296 150.058 274.119 160.054C321.843 144.843 372.042 138.932 421.994 142.64Z" fill="#A2AAAD"/>
<path d="M199.949 312.188C199.949 312.188 213.99 301.604 237.898 305.442C273.191 311.092 272.221 333.355 272.221 333.355C282.011 328.83 290.306 321.604 296.129 312.525C288.112 305.855 278.436 301.484 268.131 299.876C221.074 291.527 199.949 312.188 199.949 312.188Z" fill="#A2AAAD"/>
<path d="M103.474 286.509C94.6558 288.848 85.3912 288.935 76.5304 286.762C69.2357 291.822 42.7979 303.08 25.9316 331.457C26.775 341.071 27.7869 353.383 31.7505 360.13C47.8578 385.429 75.9822 376.153 75.9822 376.153C75.9822 376.153 33.2263 357.178 78.9338 329.518C93.5231 320.705 133.749 314.043 157.994 321.801C160.018 322.56 162.59 324.374 162.211 324.837C159.723 337.065 149.561 371.22 132.695 381.171C123.419 367.636 147.875 336.559 122.955 335.379C126.824 342.223 128.083 350.237 126.497 357.937C123.139 369.974 123.79 382.777 128.352 394.411C153.823 376.704 171.444 349.818 177.517 319.398C178.523 314.74 180.095 310.223 182.197 305.947C134.044 325.132 103.474 286.509 103.474 286.509ZM88.8006 303.164C85.3009 304.218 77.7953 305.272 81.3794 299.917C81.3794 299.917 85.8912 297.472 91.963 294.309C95.5079 297.091 99.8963 298.579 104.402 298.526L88.8006 303.164Z" fill="#A2AAAD"/>
<path d="M81.3377 299.917C77.7536 305.272 85.2591 304.134 88.7588 303.164L104.36 298.61C99.8546 298.663 95.4661 297.175 91.9213 294.394C85.8916 297.472 81.3377 299.917 81.3377 299.917Z" fill="black"/>
</g>
<defs>
<clipPath id="clip0_37_7162">
<rect width="500" height="344.24" fill="white" transform="translate(0 78)"/>
</clipPath>
</defs>
</svg>
