<svg width="500" height="500" viewBox="0 0 500 500" fill="none" xmlns="http://www.w3.org/2000/svg">
<g clip-path="url(#clip0_37_7165)">
<path d="M469.028 114.755C401.665 72.2336 247.387 39.7131 132.34 13L0 154.954L113.563 152.502C57.0397 243.868 68.396 458.735 211.576 487.255C204.22 473.124 191.444 447.25 208.027 415.116C219.77 392.275 285.456 266.71 285.456 266.71H301.2C322.429 266.71 329.462 274.711 320.041 286.068C376.694 285.358 411.537 263.936 427.152 240.9C415.215 219.091 377.403 193.475 362.047 183.151H441.412C464.124 183.151 469.286 192.636 463.931 203.025C500.968 196.12 519.938 146.888 469.028 114.755Z" fill="#A6AEB0"/>
<path d="M459.995 119.078C368.241 67.4587 141.115 33.3898 141.115 33.3898L43.5542 137.597H144.406C69.9447 235.997 86.3339 434.409 196.026 475.963C191.048 465.388 188.663 453.778 189.067 442.097C189.471 430.416 192.652 418.999 198.348 408.793C214.157 378.015 239.257 326.331 275.326 257.29H304.685C329.139 257.29 336.947 267.549 333.592 275.55C353.659 275.55 390.373 273.55 417.022 241.288C394.825 210.251 321.461 174.182 321.461 174.182H447.284C465.738 174.182 475.029 180.635 472.448 191.862C504.775 176.182 496.451 139.532 459.995 119.078Z" fill="white"/>
<path d="M311.072 177.537L313.395 184.442C307.911 195.088 288.295 233.996 281.52 247.546H332.43C333.303 252.219 335.581 256.513 338.959 259.856C342.337 263.2 346.655 265.433 351.336 266.258C349.09 263.613 347.922 260.219 348.065 256.751C348.209 253.284 349.653 249.997 352.11 247.546H376.177C382.63 247.546 380.759 255.612 369.725 263.936C384.701 261.192 398.19 253.154 407.73 241.288C391.986 217.22 311.072 177.537 311.072 177.537Z" fill="black"/>
<path d="M456.51 126.047C379.081 83.7189 134.985 47.9077 134.985 47.9077L143.825 59.1349L87.1724 120.175L286.424 135.403L285.327 137.597H151.181L161.569 147.34C153.103 159.362 145.821 172.177 139.824 185.603L251.71 162.697L249.903 165.407L116.66 209.864L128.339 216.317C122.886 234.645 119.276 253.472 117.563 272.517L230.675 203.928L229.707 207.09L104.917 305.618L116.466 308.522C117.046 329.29 120.012 349.923 125.306 370.014L226.997 250.192C227.122 251.151 227.316 252.1 227.578 253.031L126.855 400.792L136.34 401.437C146.438 426.245 163.603 447.538 185.701 462.671C182.003 453.096 180.438 442.829 181.118 432.587C181.798 422.345 184.706 412.375 189.637 403.373C197.832 386.597 304.555 174.053 304.555 174.053L286.747 164.503H452.574C469.609 164.503 479.029 171.601 478.836 181.215C489.289 172.311 491.676 145.469 456.51 126.047Z" fill="black"/>
<path d="M422.377 122.692C435.285 127.615 447.102 135.025 457.156 144.501H443.605C437.438 136.398 430.31 129.075 422.377 122.692ZM464.898 141.081L467.028 150.502C452.51 153.212 426.829 155.405 419.602 155.986L418.505 158.18H456.51C471.674 158.18 478.126 165.342 479.416 169.472C480.526 163.797 479.699 157.914 477.066 152.766C474.434 147.618 470.149 143.503 464.898 141.081Z" fill="white"/>
<path d="M403.149 133.209L138.599 96.6236L154.73 79.1376C243.838 92.8813 350.303 114.626 404.375 130.37C404.117 131.338 403.665 132.241 403.149 133.209ZM363.273 236.448L305.523 227.802L299.652 239.158H361.918L363.273 236.448ZM134.211 330.331L207.769 248.321C207.769 247.095 207.769 245.933 207.769 244.772L131.953 309.296C132.34 316.459 133.178 323.492 134.211 330.396V330.331ZM222.609 298.714L221.061 295.811L154.859 395.63C158.16 402.032 161.934 408.179 166.151 414.019L222.609 298.714ZM172.022 152.115C168.473 157.019 165.118 162.181 162.021 167.472L241.709 153.212L243.838 150.502L172.022 152.115ZM135.63 240.384L217.06 195.862C217.512 194.765 217.964 193.669 218.48 192.572L140.341 220.769C138.276 227.286 136.856 233.803 135.63 240.449V240.384Z" fill="#A30D2D"/>
</g>
<defs>
<clipPath id="clip0_37_7165">
<rect width="500" height="474.513" fill="white" transform="translate(0 13)"/>
</clipPath>
</defs>
</svg>
