<svg width="500" height="500" viewBox="0 0 500 500" fill="none" xmlns="http://www.w3.org/2000/svg">
<g clip-path="url(#clip0_37_7154)">
<path d="M499.918 360.977V59.2852H416.078V234.93C416.078 237.065 416.078 239.118 416.078 241.17C416.078 243.223 416.078 242.813 416.078 243.634C415.652 246.753 414.512 249.733 412.746 252.339C410.98 254.946 408.636 257.109 405.896 258.661C402.566 260.549 398.802 261.539 394.974 261.535C389.557 261.713 384.288 259.74 380.319 256.048C376.35 252.356 374.003 247.244 373.789 241.827V59.4493H257.924V127.851H279.274C282.018 127.851 284.65 128.941 286.59 130.882C288.531 132.822 289.621 135.454 289.621 138.198V176.217V226.143V271.964C290.307 282.433 293.49 292.585 298.905 301.571C304.319 310.557 311.807 318.116 320.742 323.614C337.165 336.835 378.223 342.911 399.984 335.192C405.502 333.443 410.816 331.103 415.832 328.213V345.128C415.974 348.451 415.472 351.769 414.354 354.9C412.523 358.112 409.786 360.713 406.486 362.378C403.185 364.043 399.467 364.698 395.796 364.261H38.2656V443.831H425.768C436.657 443.443 447.475 441.902 458.039 439.233C470.767 435.291 500 421.66 500 378.385C500 377.564 500 361.634 499.918 360.977Z" fill="#A71930"/>
<path d="M326.408 313.432L327.147 313.842L327.886 314.335C341.682 325.339 378.059 330.758 396.124 324.107C400.609 322.712 404.931 320.84 409.016 318.523L427 306.452V345.046C427.158 349.651 426.462 354.244 424.947 358.595V359.17V359.663C421.662 366.725 414.025 375.265 395.878 376.086H50.1724V432.499H425.686C435.544 432.189 445.343 430.84 454.919 428.475C467.564 424.534 488.75 412.955 488.75 378.631C488.75 378.631 488.75 92.5415 488.75 71.1916H427.903V242.238V245.194C427.224 250.078 425.436 254.742 422.674 258.827C419.913 262.913 416.252 266.311 411.972 268.761C405.568 272.416 398.143 273.873 390.832 272.909C383.521 271.945 376.728 268.614 371.49 263.424C365.813 257.762 362.597 250.091 362.539 242.073C362.539 242.073 362.539 91.1458 362.539 70.8633H269.502V116.191H279.274C285.082 116.212 290.646 118.529 294.753 122.636C298.86 126.743 301.177 132.307 301.199 138.115V176.135V226.061V271.389C301.782 279.889 304.371 288.131 308.753 295.439C313.134 302.747 319.185 308.912 326.408 313.432Z" fill="#0B2265"/>
<path d="M253.818 266.544C251.074 266.544 248.443 265.454 246.502 263.513C244.562 261.573 243.472 258.941 243.472 256.197V112.249C242.671 102.677 239.45 93.4652 234.111 85.4798C224.943 71.8861 210.882 62.3552 194.859 58.8743C182.153 55.485 168.857 54.9345 155.914 57.2619C142.971 59.5894 130.7 64.7378 119.97 72.3413V59.4491H0V128.015H27.9192C30.685 128.015 33.3374 129.114 35.2932 131.07C37.2489 133.026 38.3477 135.678 38.3477 138.444V333.057H120.053V149.119C120.458 143.985 122.77 139.188 126.535 135.674C130.299 132.159 135.243 130.182 140.393 130.13C145.543 130.079 150.526 131.957 154.36 135.395C158.194 138.834 160.603 143.583 161.11 148.708V297.009C161.124 301.212 161.874 305.381 163.327 309.326C165.815 316.043 170.292 321.843 176.16 325.951C182.029 330.059 189.01 332.28 196.173 332.318H272.787V266.626H253.818V266.544Z" fill="#A71930"/>
<path d="M231.894 256.525V112.823L231.072 107.157C229.921 101.719 227.718 96.5583 224.585 91.9661C216.947 80.6213 205.146 72.744 191.739 70.0415C180.722 67.0444 169.178 66.5208 157.934 68.5083C146.691 70.4958 136.026 74.9451 126.704 81.5375L108.146 95.6614V71.0268H11.5781V116.601H28.0012C30.8804 116.568 33.7379 117.103 36.4104 118.175C39.0829 119.247 41.5182 120.835 43.577 122.848C45.6358 124.861 47.2778 127.26 48.4095 129.908C49.5411 132.555 50.1402 135.4 50.1724 138.279V321.314H108.803V148.872C109.164 140.622 112.681 132.826 118.629 127.097C124.576 121.368 132.498 118.143 140.756 118.09C149.013 118.038 156.976 121.161 162.996 126.813C169.016 132.466 172.633 140.217 173.099 148.461V296.762C173.102 299.572 173.631 302.357 174.659 304.973C176.358 309.511 179.395 313.426 183.37 316.198C187.344 318.969 192.067 320.467 196.912 320.493H262.03V277.793H253.818C248.122 277.775 242.654 275.549 238.565 271.582C234.476 267.616 232.085 262.219 231.894 256.525Z" fill="#0B2265"/>
</g>
<defs>
<clipPath id="clip0_37_7154">
<rect width="500" height="387.666" fill="white" transform="translate(0 56)"/>
</clipPath>
</defs>
</svg>
