<?xml version="1.0" encoding="UTF-8"?>
<svg id="Layer_1" data-name="Layer 1" xmlns="http://www.w3.org/2000/svg" version="1.1" viewBox="0 0 500 500">
  <defs>
    <style>
      .cls-1 {
        fill: #115740;
      }

      .cls-1, .cls-2 {
        stroke-width: 0px;
      }

      .cls-2 {
        fill: #fff;
      }
    </style>
  </defs>
  <path class="cls-2" d="M250,399.1c-35.1,0-93.6-9.2-143.1-35.2-48.4-25.4-83.5-54.9-99-83.1C2.7,271.3,0,260.6,0,250c0-10.6,2.7-21.3,7.9-30.8,15.5-28.2,50.7-57.7,99-83.1,49.4-26,108-35.2,143.1-35.2s93.6,9.2,143.1,35.2c48.4,25.4,83.5,54.9,99,83.1,5.2,9.5,8,20.2,7.9,30.8,0,10.6-2.7,21.3-7.9,30.8-15.5,28.2-50.7,57.7-99,83.1-49.4,26-108,35.2-143.1,35.2"/>
  <path class="cls-1" d="M485.9,250c0-8.5-2.1-17-6.3-24.5-13.9-25.3-47.6-53.5-93.4-77.6-47.1-24.8-102.7-33.6-136.3-33.6s-89.2,8.8-136.3,33.6c-45.8,24.1-79.4,52.2-93.4,77.6-4.1,7.5-6.3,15.9-6.3,24.5,0,8.5,2.1,17,6.3,24.5,13.9,25.3,47.6,53.5,93.4,77.6,47.1,24.8,102.7,33.6,136.3,33.6s89.2-8.8,136.3-33.6c45.8-24.1,79.4-52.2,93.4-77.6,4.1-7.5,6.3-15.9,6.3-24.5Z"/>
  <path class="cls-2" d="M361.8,225.3l-15.4,26.7c-1.6,2.8-.4,6.4,2.7,7.6l28.1,11.1h-60.3l-9.3,16h90.5c1.9,0,3.7-1,4.6-2.7l15.4-26.7c1.6-2.8.4-6.4-2.7-7.6l-34.9-13.8h49.9l7.7-13.4h-71.8c-1.9,0-3.7,1-4.6,2.7h0Z"/>
  <path class="cls-2" d="M345,236l7.7-13.4h-85.6l-7.7,13.4h21.4l-29.3,50.8h42.8l29.3-50.8h21.4Z"/>
  <path class="cls-2" d="M248.7,236l7.7-13.4h-69.5l-37,64.2h88.2l9.3-16h-45.4l6.2-10.7h24l7.7-13.4h-24.1l6.2-10.7h26.7Z"/>
  <path class="cls-2" d="M428.8,206.4s-6.3-1.3-25-2.6l-65.3-6.4c-35.9-3.2-67.4-11.4-96.6-31.9h-1l24.6,39.8h-124.8l-36.3,62.8c-1,1.7-2.7,2.7-4.6,2.7h-39.7l-9.3,16h79.4c3.8,0,7.3-2,9.3-5.3l40.1-69.5h264.7c-3.3-1.9-8.6-4.3-15.6-5.6h0Z"/>
</svg>