<svg xmlns="http://www.w3.org/2000/svg" viewBox="0 0 500 500">
  <g fill="none" fill-rule="evenodd">
    <path fill="#FFF" d="M281.474 63.09v83.488l-80.01-83.488H-.001v101.082l35.354 7.435V335.52l-33.988 8.437v95.653h231.027v-82.69l81.798 82.742h154.688V171.115l30.433-7.188V63.09H281.474Zm43.136 93.65-24.659-7.472V81.569h180.885v67.735l-30.435 7.186v264.67H321.903L184.878 282.714v67.328l29.035 8.517v62.573H19.843V358.41l33.987-8.441V156.607l-35.354-7.433V81.569h175.1L324.61 218.297v-61.556Z"/>
    <path fill="#003B66" d="m311.453 292.764 9.06 28.603-24.453-18.517-24.44 17.554 9.46-27.962-23.018-18.517h28.613l9.385-26.761 9.351 26.761h29.751l-23.709 18.839Zm57.283 23.764 9.366 26.834H407.9l-23.74 18.733 9.06 28.671-24.485-18.567-24.433 17.578 9.533-27.942-23.052-18.473h28.598l9.354-26.834Zm-145.43-83.11-24.472 17.578 9.47-27.937-22.972-18.498h28.581l9.394-26.805 9.28 26.805h29.83l-23.725 18.736 8.998 28.666-24.383-18.544Zm-57.368-79.512 9.07 28.661-24.465-18.516-24.44 17.606 9.486-28.029-23.01-18.464h28.59l9.374-26.756 9.322 26.756h29.845l-23.772 18.742Zm134.013-4.638 24.659 7.473v61.554L193.579 81.567H18.476v67.607l35.354 7.433v193.364l-33.988 8.44v62.721h194.071V358.56l-29.035-8.517v-67.328L321.903 421.16H450.4V156.49l30.435-7.186V81.567H299.951v67.701Z"/>
    <path fill="#FFF" d="m159.865 135.163-9.322-26.756-9.374 26.756h-28.59l23.01 18.464-9.485 28.029 24.439-17.606 24.465 18.516-9.07-28.661 23.772-18.742zm102.552 69.399h-29.829l-9.282-26.806-9.392 26.806h-28.581l22.973 18.496-9.471 27.939 24.471-17.578 24.385 18.542-9-28.663zm33.642 42.602-9.383 26.761h-28.613l23.019 18.517-9.462 27.962 24.439-17.554 24.454 18.517-9.061-28.603 23.71-18.839h-29.749zm57.777 114.67-9.534 27.942 24.433-17.578 24.486 18.567-9.061-28.671 23.743-18.732h-29.8l-9.368-26.833-9.353 26.833h-28.599z"/>
  </g>
</svg>
