<svg width="500" height="500" viewBox="0 0 500 500" fill="none" xmlns="http://www.w3.org/2000/svg">
<g clip-path="url(#clip0_37_7197)">
<path d="M248.675 86C113.735 86 0 161.566 0 251.012C0 344.072 106.94 414.289 248.675 414.289C331.422 414.289 409.879 385.373 458.554 336.506C485.301 309.711 500.048 279.301 500 251.012C500 206.916 474.024 165.518 426.988 134.386C379.952 103.253 316.482 86.1928 248.675 86.1928" fill="#FFC20E"/>
<path d="M74.7953 360.313C31.4218 331.398 7.71094 292.843 7.71094 251.012C7.71094 167.205 120.337 93.7591 248.675 93.7109C382.94 93.7109 492.241 164.265 492.337 251.012C492.337 277.277 478.41 305.711 453.109 331.06C405.831 378.337 329.446 406.578 248.675 406.578C181.205 406.578 119.47 390.145 74.7953 360.313" fill="#2A433A"/>
<path d="M356.578 207.783C337.301 178.867 294.843 158.964 244.916 158.964C176.385 158.964 120.867 196.65 120.867 243.108C120.867 289.566 160.048 330.385 244.916 330.337C295.855 330.337 336.819 308.313 355.759 279.446L211.181 279.687L210.747 242.096H461.976C462.372 245.085 462.597 248.094 462.65 251.108C462.65 323.397 366.843 382.096 248.626 382.096C130.409 382.096 34.6987 323.205 34.6987 250.916C34.6987 178.626 136.193 117.662 248.675 117.229C342.313 116.891 421.928 155.542 451.084 207.638L356.578 207.783Z" fill="white"/>
</g>
<defs>
<clipPath id="clip0_37_7197">
<rect width="500" height="328.241" fill="white" transform="translate(0 86)"/>
</clipPath>
</defs>
</svg>
