<?xml version="1.0" encoding="UTF-8"?>
<svg width="500px" height="500px" viewBox="0 0 500 500" version="1.1" xmlns="http://www.w3.org/2000/svg" xmlns:xlink="http://www.w3.org/1999/xlink">
    <!-- Generator: Sketch 63.1 (92452) - https://sketch.com -->
    <title>Team Logos / NFL / Dark / LAR</title>
    <desc>Created with Sketch.</desc>
    <defs>
        <linearGradient x1="0.000461548054%" y1="50%" x2="100.014666%" y2="50%" id="linearGradient-1">
            <stop stop-color="#FFA300" offset="0%"></stop>
            <stop stop-color="#FFA300" stop-opacity="0.98" offset="5%"></stop>
            <stop stop-color="#FFA300" stop-opacity="0.93" offset="11%"></stop>
            <stop stop-color="#FFA300" stop-opacity="0.84" offset="17%"></stop>
            <stop stop-color="#FFA300" stop-opacity="0.71" offset="24%"></stop>
            <stop stop-color="#FFA300" stop-opacity="0.54" offset="31%"></stop>
            <stop stop-color="#FFA300" stop-opacity="0.34" offset="38%"></stop>
            <stop stop-color="#FFA300" stop-opacity="0.11" offset="45%"></stop>
            <stop stop-color="#FFA300" stop-opacity="0" offset="48%"></stop>
        </linearGradient>
    </defs>
    <g id="Team-Logos-/-NFL-/-Dark-/-LAR" stroke="none" stroke-width="1" fill="none" fill-rule="evenodd">
        <g id="Asset-1" transform="translate(0.000000, 70.000000)" fill-rule="nonzero">
            <path d="M438.994801,61.8197574 C370.554648,-6.66076233 263.919736,-18.8747059 181.767764,32.3570191 L181.767764,32.3570191 C159.558059,46.897747 139.679376,66.4991334 123.916811,88.864818 L123.752166,89.0554593 L80.8925477,89.0554593 L0,272.097054 L104.939341,272.097054 C120.117203,300.389415 143.114517,323.717625 171.187175,339.298094 C224.732232,368.754315 290.155058,366.292004 341.334489,332.894281 C347.297024,329.036281 350.025462,321.725767 348.048607,314.904621 C346.071753,308.083474 339.857099,303.364781 332.755633,303.292894 C331.15583,303.29847 329.565204,303.534875 328.032929,303.994801 C317.573672,307.137758 306.70983,308.728941 295.788562,308.717504 C264.356534,308.818825 234.37662,295.49512 213.388215,272.097054 L311.386482,272.097054 L328.214905,248.64818 L393.535529,248.64818 C393.535529,248.64818 391.551127,253.700173 390.459272,256.17851 L383.440208,272.097054 L490.34662,272.097054 L492.62565,263.72617 C512.264714,191.676328 491.798726,114.627125 438.994801,61.8197574 Z M253.64818,204.913345 L187.357019,204.913345 C187.357019,204.679376 187.357019,204.462738 187.357019,204.228769 C187.357019,148.613518 232.461005,102.772964 290.043328,99.8786828 C291.967071,99.7746967 293.890815,99.7312856 295.771231,99.7312856 C305.95883,99.7192162 316.104692,101.032964 325.953206,103.639515 L253.64818,204.913345 Z M397.391681,151.793761 C400.277446,161.763233 402.138612,172.001098 402.946274,182.348354 L375.589255,182.348354 L397.391681,151.793761 Z" id="Shape" fill="#FFFFFF"></path>
            <path d="M291.837088,12.2095613 C255.036387,12.1650594 218.968666,22.4967239 187.772964,42.0190641 C207.572847,33.9084125 228.767977,29.7488681 250.164645,29.7746967 C340.84922,29.7746967 414.384749,103.102253 414.809359,193.691508 L353.414211,193.691508 L393.708839,137.253033 C393.708839,137.253033 386.031196,120.155979 373.457539,108.951473 C360.883882,97.7469671 345.389948,97.6863085 344.07279,97.7383016 L227.738302,260.727903 L305.563258,260.727903 L322.305026,237.279029 L409.107452,237.279029 C406.951102,245.297786 404.18451,253.139843 400.831889,260.736568 L481.681109,260.736568 C486.280345,243.867978 488.613518,226.461814 488.613518,208.97747 C488.604853,100.303293 400.511265,12.2095613 291.837088,12.2095613 Z" id="Path" fill="#003594"></path>
            <path d="M250.961872,40.355286 C249.844021,40.355286 248.72617,40.355286 247.608319,40.355286 C199.558059,41.4124783 156.845754,64.8093588 129.220104,100.398614 C77.270364,173.05026 111.889081,260.710572 111.889081,260.710572 C125.796696,289.766592 148.433968,313.752042 176.637782,329.315425 L176.637782,329.315425 C226.503094,356.751149 287.432574,354.458713 335.095321,323.353553 C336.799386,322.225604 337.590729,320.133948 337.060024,318.16051 C336.529318,316.187072 334.795594,314.774469 332.755633,314.65338 C332.261768,314.654495 331.770925,314.730459 331.299827,314.878683 C319.774895,318.339677 307.804615,320.091425 295.771231,320.07799 C263.944941,320.178405 233.351009,307.781514 210.571924,285.554593 L210.571924,285.554593 C203.04882,278.18844 196.554586,269.840376 191.265165,260.736568 C184.465059,246.619545 179.558427,231.666557 176.672444,216.265165 C176.244143,212.270243 176.030088,208.255251 176.031196,204.237435 C176.031196,142.409012 226.377816,91.7331023 289.4974,88.5528596 C291.577123,88.4488735 293.682842,88.3882149 295.797227,88.3882149 C312.362538,88.2968349 328.782871,91.4772437 344.116118,97.7469671 C364.071194,105.950083 381.280658,119.661151 393.734835,137.279029 L393.734835,137.279029 C371.455806,79.5667244 316.490468,40.355286 250.961872,40.355286 Z" id="Path" fill="#FFD100"></path>
            <path d="M250.961872,40.355286 C249.844021,40.355286 248.72617,40.355286 247.608319,40.355286 C199.558059,41.4124783 156.845754,64.8093588 129.220104,100.398614 C123.154246,106.299827 60.4419411,206.005199 132.859619,293.266898 C145.111658,307.8876 159.962982,320.115337 176.663778,329.332756 C164.341787,313.827873 155.24647,296.014371 149.913345,276.941075 L149.913345,276.941075 C149.913345,276.941075 141.403813,247.954939 146.091854,216.282496 C156.317158,146.091854 216.282496,91.5511265 289.428076,88.5701906 C291.507799,88.4662045 293.613518,88.4055459 295.727903,88.4055459 C312.293214,88.314166 328.713547,91.4945748 344.046794,97.7642981 C364.00187,105.967414 381.211334,119.678482 393.665511,137.29636 L393.665511,137.29636 C371.455806,79.5667244 316.490468,40.355286 250.961872,40.355286 Z" id="Path" fill="url(#linearGradient-1)"></path>
            <path d="M111.915078,260.727903 C117.500379,272.411897 124.537458,283.344552 132.859619,293.266898 C137.200363,286.57538 143.038963,280.985989 149.913345,276.941075 C148.451218,271.606837 147.293945,266.19369 146.44714,260.727903 L111.915078,260.727903 Z" id="Path" fill="#FF8200"></path>
            <path d="M191.221837,260.727903 L146.44714,260.727903 C147.293945,266.19369 148.451218,271.606837 149.913345,276.941075 L149.913345,276.941075 C167.131716,276.143847 192.071057,277.62565 210.5026,285.554593 C202.99041,278.18201 196.505216,269.831412 191.221837,260.727903 L191.221837,260.727903 Z" id="Path" fill="#FFA300"></path>
            <path d="M409.116118,237.279029 C412.876653,223.294385 414.776338,208.874844 414.766073,194.393414 L414.766073,193.691508 L397.937608,193.691508 C401.814811,207.988906 401.622735,223.084908 397.383016,237.279029 L409.116118,237.279029 Z" id="Path" fill="#0C2340"></path>
            <path d="M344.090121,97.7469671 L317.339688,135.181976 C318.656846,135.112652 319.982669,135.07799 321.317158,135.07799 C342.714554,135.056388 363.208881,143.699892 378.12825,159.038128 L393.72617,137.235702 C381.261949,119.630587 364.046557,105.934612 344.090121,97.7469671 Z" id="Path" fill="#0C2340"></path>
            <path d="M155.771231,100.398614 L104.454073,216.256499 L245.363951,216.256499 L224.896014,245.051993 C218.440208,253.717504 209.878683,260.727903 196.828423,260.727903 L17.4176776,260.727903 L88.2755633,100.415945 L155.771231,100.398614 Z" id="Path" fill="#003594"></path>
        </g>
    </g>
</svg>