<svg width="500" height="500" viewBox="0 0 500 500" fill="none" xmlns="http://www.w3.org/2000/svg">
<g clip-path="url(#clip0_2_131)">
<path fill-rule="evenodd" clip-rule="evenodd" d="M499.387 278.236C497.366 265.934 489.242 247.867 462.003 231.612C460.164 230.517 458.231 229.448 456.244 228.396C461.336 226.685 466.603 224.92 466.603 224.92L436.416 213.168C433.837 212.165 431.123 211.256 428.38 210.375C430.375 208.354 432.48 206.22 432.48 206.22L409.338 202.983C399.331 201.583 391.442 201.26 385.397 201.348C385.342 200.375 385.263 199.478 385.162 198.673C385.162 198.669 381.297 169.742 381.297 169.742C381.297 169.742 372.341 181.948 371.45 183.159C369.547 179.994 367.388 177.017 364.91 174.216L339.944 146.036C339.944 146.036 340.94 154.329 341.738 160.946C333.643 155.306 324.741 150.271 314.895 146.057C274.73 128.866 223.93 125.29 175.523 136.242C135.036 145.411 76.577 169.302 28.0238 231.075L0 266.735L42.1806 249.96C42.5166 249.83 75.0773 237.159 101.337 233.465C111.129 232.086 118.627 231.972 112.54 245.364C107.743 255.93 96.846 271.347 96.7326 271.507L75.6108 302.165L110.843 289.955C127.789 284.077 143.001 281.175 150.692 280.907C153.44 280.953 153.944 282.764 153.078 284.739C152.831 285.418 152.688 285.779 150.785 288.693L128.693 320.164L164.929 307.209C191.226 297.792 225.799 291.594 238.166 296.311C239.174 296.689 242.443 298.42 239.204 303.163L224.971 325.766C224.971 325.766 245.984 322.58 248.971 322.123C250.622 342.76 260.994 354.009 262.271 355.313L277.536 370.936L282.897 349.774C286.745 334.55 293.995 326.248 300.465 321.728C300.465 321.737 301.708 330.424 301.708 330.424L315.861 325.33C327.762 321.037 337.176 315.884 343.956 309.997C352.925 309.288 374.836 307.988 395.882 310.068C432.157 313.645 456.488 308.831 463.083 307.272C471.905 305.188 479.345 308.944 479.42 308.986L490.204 314.84L496.022 303.938C496.711 302.63 500 295.825 500 285.737C500 283.238 499.798 280.718 499.387 278.236Z" fill="white"/>
<path d="M499.387 278.236C497.366 265.934 489.242 247.867 462.003 231.612C460.164 230.517 458.231 229.448 456.244 228.396C461.336 226.685 466.603 224.92 466.603 224.92L436.416 213.168C433.837 212.165 431.123 211.256 428.38 210.375C430.375 208.354 432.48 206.22 432.48 206.22L409.338 202.983C399.331 201.583 391.442 201.26 385.397 201.348C385.342 200.375 385.263 199.478 385.162 198.673C385.162 198.669 381.297 169.742 381.297 169.742C381.297 169.742 372.341 181.948 371.45 183.159C369.547 179.994 367.388 177.017 364.91 174.216L339.944 146.036C339.944 146.036 340.94 154.329 341.738 160.946C333.643 155.306 324.741 150.271 314.894 146.057C274.73 128.866 223.93 125.29 175.523 136.242C135.036 145.411 76.577 169.302 28.0238 231.075L0 266.735L42.1806 249.96C42.5166 249.83 75.0773 237.159 101.337 233.465C111.129 232.086 118.627 231.972 112.54 245.364C107.743 255.93 96.846 271.347 96.7326 271.507L75.6108 302.165L110.843 289.955C127.789 284.077 143.001 281.175 150.692 280.907C153.44 280.953 153.944 282.764 153.078 284.739C152.831 285.418 152.688 285.779 150.785 288.693L128.693 320.164L164.929 307.209C191.226 297.792 225.799 291.595 238.166 296.311C239.174 296.689 242.443 298.42 239.204 303.163L224.971 325.766C224.971 325.766 245.984 322.58 248.971 322.123C250.622 342.76 260.994 354.009 262.271 355.313L277.536 370.936L282.897 349.774C286.745 334.55 293.995 326.248 300.465 321.728C300.465 321.737 301.708 330.424 301.708 330.424L315.861 325.33C327.762 321.037 337.176 315.884 343.956 309.997C352.925 309.288 374.836 307.988 395.882 310.068C432.157 313.645 456.488 308.831 463.083 307.272C471.905 305.188 479.345 308.944 479.42 308.986L490.204 314.84L496.022 303.938C496.711 302.63 500 295.825 500 285.737C500 283.238 499.798 280.718 499.387 278.236" stroke="white" stroke-width="3.0184"/>
<path fill-rule="evenodd" clip-rule="evenodd" d="M494.333 280.328C492.539 269.431 485.15 253.327 460.096 238.367C453.396 234.379 446.12 230.97 438.756 228.073L447.628 225.1L435.441 220.35C429.405 217.998 423.061 216.061 416.521 214.488C417.777 213.222 419.138 211.83 419.138 211.83L409.799 210.518C395.416 208.509 385.485 208.74 379.642 209.289C379.696 208.031 379.738 206.698 379.738 205.356C379.738 203.478 379.667 201.629 379.469 200.136L377.902 188.447C377.902 188.447 372.227 196.191 371.404 197.31C369.526 192.103 366.451 185.65 360.826 179.298L350.736 167.902L351.878 177.415C342.813 169.004 330.257 160.158 313.054 152.795C274.016 136.082 224.522 132.632 177.287 143.323C137.699 152.279 80.5296 175.667 33.0014 236.136L21.0206 251.381L39.0548 244.203C39.3909 244.073 72.9345 230.815 100.202 227.176C110.897 225.754 118.274 227.021 120.975 230.74C123.5 234.228 122.685 241.13 118.774 249.222C113.41 260.32 102.454 276.249 102.345 276.416L93.3128 289.519L108.377 284.303C128.23 277.419 153.254 272.324 159.052 276.106C160.392 276.983 161.114 278.014 161.396 279.456C162.324 284.27 158.178 291.569 156.645 293.754L147.188 307.2L162.69 301.666C187.453 292.806 231.856 282.643 245.576 293.142C251.924 298.001 245.992 307.603 245.727 308.005L239.636 317.682L250.945 315.959C250.945 315.959 253.73 315.527 256.477 315.104C256.444 315.988 256.385 316.89 256.385 317.733C256.385 339.582 267.458 351.196 267.992 351.749L274.524 358.433L276.818 349.376C283.245 323.938 298.456 315.137 306.938 312.148C307.169 313.833 308.349 322.072 308.349 322.072L314.398 319.892C329.236 314.546 337.545 308.685 342.111 304.282C348.933 303.682 373.941 301.796 397.957 304.165C433.316 307.661 456.819 303.016 463.184 301.511C474.908 298.743 484.44 303.804 484.536 303.85L489.191 306.391L491.69 301.716C491.85 301.418 494.862 295.574 494.862 286.727C494.862 284.743 494.707 282.601 494.333 280.328Z" fill="#9E7C0C"/>
<path fill-rule="evenodd" clip-rule="evenodd" d="M456.984 243.643C446.524 236.26 432.435 230.884 418.761 227.048C424.457 225.211 430.158 225.333 430.158 225.333C421.399 221.991 412.254 219.903 403.747 218.587L406.931 215.736C391.351 213.082 380.475 213.287 374.022 213.958C374.829 210.771 375.492 205.903 374.656 199.404C374.656 199.404 372.77 205.006 368.187 208.486C367.582 201.216 365.255 190.7 357.349 183.564L358.815 196.398C351.85 185.925 338.592 172.541 313.539 160.843C245.422 129.065 125.392 141.111 59.51 226.046C59.51 226.046 85.1267 213.262 120.628 212.419C139.221 211.983 143.745 222.377 136.969 239.895C130.155 257.5 118.208 272.947 118.208 272.947C118.208 272.947 198.541 244.536 173.176 283.999C173.176 283.999 233.819 265.878 252.009 287.135C260.465 297.005 250.618 310.804 250.618 310.804L267.821 307.085C262.242 328.892 272.009 342.825 272.009 342.825C279.109 314.318 303.864 306.724 312.627 305.286L314.522 313.005C329.208 307.71 336.114 302.07 340.063 297.425C371.161 292.544 392.279 296.716 416.253 298.02C451.175 299.919 469.226 293.852 474.993 293.89C479.228 293.928 484.248 297.613 484.248 297.613C484.248 297.613 498.762 273.161 456.984 243.643Z" fill="black"/>
<path fill-rule="evenodd" clip-rule="evenodd" d="M428.317 290.02C445.708 289.924 458.723 288.36 468.96 285.974C431.174 269.811 357.193 262.897 345.733 263.832C345.733 263.832 339.469 265.593 346.678 272.502C336.596 268.54 326.535 260.989 325.838 257.165C325.098 253.102 332.462 251.962 349.9 254.012C415.198 261.71 471.712 272.62 479.349 288.586C479.349 288.586 483.335 268.599 450.779 249.563C422.923 231.027 380.125 227.995 380.125 227.995L390.938 236.696L370.824 234.956L386.75 246.448C369.657 240.872 323.628 225.819 285.489 235.337C285.489 235.337 327.342 234.868 346.443 246.247C275.747 234.729 238.985 259.236 238.985 259.236C278.751 247.903 310.488 251.031 320.906 252.582C304.182 256.565 323.872 268.788 335.903 275.173C337.268 278.523 340.566 285.366 337.34 291.127C337.34 291.127 340.965 286.523 343.607 279.752L353.391 287.592C382.595 283.995 404.137 290.133 428.317 290.02Z" fill="white"/>
<path fill-rule="evenodd" clip-rule="evenodd" d="M294.624 163.568C217.325 140.545 136.66 162.817 91.8922 205.61C91.8922 205.61 136.959 191.455 150.477 205.362C166.201 221.534 142.378 259.559 142.378 259.559L157.959 257.123C156.837 257.257 156.194 257.337 156.194 257.337C168.364 214.83 179.354 199.924 186.709 192.637C191.082 187.312 198.812 183.702 205.012 181.597C163.353 183.58 122.852 192.138 122.852 192.138C149.049 171.849 209.776 157.673 244.786 161.237C279.791 164.805 277.409 178.977 273.809 187.06C270.898 193.593 256.594 202.448 243.147 205.312C257.073 207.119 264.958 217.844 259.967 228.553C259.539 229.471 259.043 230.36 258.514 231.215C243.656 234.737 230.473 240.322 219.648 246.423C219.274 246.645 218.9 246.863 218.518 247.077C218.014 247.37 217.51 247.664 217.006 247.961C216.627 248.188 216.241 248.41 215.855 248.649C215.388 248.93 214.922 249.219 214.464 249.504C214.082 249.748 213.691 249.982 213.317 250.23C212.872 250.502 212.439 250.787 212.007 251.072C211.637 251.307 211.255 251.555 210.885 251.802C210.477 252.091 210.066 252.368 209.658 252.645C200.765 258.745 194.308 264.854 190.96 269.592C190.96 269.592 282.005 251.186 266.231 296.95L289.747 290.519C288.088 293.412 285.462 296.716 281.892 300.69C270.776 313.017 271.541 324.732 271.541 324.732C271.541 324.732 274.805 311.91 295.838 303.122C315.019 295.122 319.443 281.521 319.443 281.521C319.443 281.521 325.837 290.946 320.607 304.145C320.607 304.145 329.437 301.944 337.343 291.118C340.565 285.366 337.267 278.523 335.902 275.173C323.871 268.787 304.181 256.569 320.905 252.582C310.487 251.031 278.754 247.903 238.984 259.236C238.984 259.236 275.746 234.729 346.442 246.246C327.34 234.867 285.488 235.337 285.488 235.337C300.052 231.702 315.759 231.655 330.571 233.286C324.618 231.634 316.523 229.71 307.008 228.268C292.469 226.549 278.594 227.32 265.79 229.676C280.178 214.775 306.378 216.733 306.378 216.733C288.907 204.981 266.118 208.742 266.118 208.742C291.663 195.547 320.069 200.012 320.069 200.012C311.138 188.243 290.045 185.652 290.045 185.652C331.852 183.962 346.5 205.89 346.5 205.89C336.074 201.358 328.655 202.041 328.655 202.041C328.655 202.041 338.7 203.668 345.501 216.356C352.705 229.798 358.813 229.416 358.813 229.416C358.813 229.416 370.269 186.1 294.624 163.568Z" fill="#241773"/>
<path fill-rule="evenodd" clip-rule="evenodd" d="M212.007 251.073C212.439 250.788 214.082 249.748 214.464 249.505C214.922 249.22 215.388 248.93 215.855 248.645C216.241 248.41 216.628 248.188 217.006 247.962C217.51 247.664 218.014 247.371 218.518 247.077C218.9 246.863 219.27 246.645 219.648 246.423C230.469 240.322 243.656 234.738 258.514 231.216C259.043 230.36 259.539 229.471 259.967 228.553C264.954 217.845 257.073 207.119 243.147 205.308C256.594 202.449 270.898 193.593 273.809 187.057C277.409 178.977 279.791 164.805 244.786 161.237C209.776 157.673 149.049 171.849 122.852 192.138C122.852 192.138 163.353 183.581 205.012 181.598C198.812 183.702 191.082 187.312 186.709 192.637C179.354 199.924 168.364 214.826 156.194 257.337C156.194 257.337 156.837 257.257 157.959 257.123C163.18 256.461 178.879 254.578 188.179 254.104L203.849 253.203C205.546 253.203 207.293 253.144 209.066 253.048C209.263 252.918 209.465 252.775 209.658 252.645C210.066 252.368 210.477 252.092 210.885 251.802C211.255 251.555 211.637 251.308 212.007 251.073Z" fill="white"/>
<path fill-rule="evenodd" clip-rule="evenodd" d="M232.543 198.177C231.997 199.351 231.417 200.349 230.825 201.213C235.832 199.72 239.714 196.957 241.617 193.657C245.809 186.349 242.6 181.104 235.832 180.391L228.805 180.412C228.805 180.412 227.59 181.406 225.372 184.764C233.543 184.831 236.866 188.907 232.543 198.177Z" fill="black"/>
<path fill-rule="evenodd" clip-rule="evenodd" d="M220.404 233.071C219.081 235.922 217.3 238.111 215.292 239.809C220.594 238.496 226.323 235.331 229.478 228.551C234.679 217.39 230.045 212.71 221.715 212.71H211.36C210.583 214.22 209.835 215.733 209.125 217.235H212.633C220.972 217.235 225.597 221.91 220.404 233.071Z" fill="black"/>
<path fill-rule="evenodd" clip-rule="evenodd" d="M215.293 239.807C217.297 238.113 219.078 235.92 220.406 233.069C225.598 221.912 220.973 217.232 212.634 217.232H209.126C203.35 229.438 199.759 240.616 199.759 240.616H208.706C210.634 240.616 212.924 240.406 215.293 239.807Z" fill="#241773"/>
<path fill-rule="evenodd" clip-rule="evenodd" d="M230.824 201.211C231.421 200.352 231.996 199.35 232.542 198.176C236.869 188.905 233.546 184.834 225.372 184.763C223.217 188.008 220.112 193.459 216.222 202.389H222.502C225.489 202.389 228.295 201.958 230.824 201.211Z" fill="#241773"/>
<path fill-rule="evenodd" clip-rule="evenodd" d="M270.617 175.872C267.345 170.513 259.355 167.335 245.169 166.614C245.169 166.614 230.806 164.669 212.633 167.1C205.442 168.056 170.482 171.608 140.715 186.111C166.748 179.784 197.515 177.469 216.994 176.761C225.19 176.471 234.184 176.731 234.184 176.731C240.01 176.731 245.412 178.45 247.484 181.838C249.63 185.352 250.222 189.557 246.185 194.702C243.963 197.536 241.354 200.517 233.78 203.599L242.51 201.737C255.558 198.953 267.4 191.641 270.122 185.964C272.109 181.821 272.222 178.505 270.617 175.872Z" fill="#9E7C0C"/>
<path fill-rule="evenodd" clip-rule="evenodd" d="M207.47 209.081H221.845C229.264 209.081 232.675 212.116 234.238 214.678C236.687 218.678 236.25 224.074 233.217 230.837C227.365 243.869 213.187 245.043 208.936 245.043L192.62 245.667C199.69 223.274 207.47 209.081 207.47 209.081ZM214.947 249.194C225.323 242.804 238.308 236.72 253.133 232.598C254.074 231.353 254.876 230.037 255.519 228.645C257.01 225.454 257.183 221.487 256.12 218.351C254.519 213.592 251.331 210.422 241.282 208.075C228.058 204.993 208.747 206.351 208.747 206.351C213.187 195.58 216.506 189.282 219.829 183.823C216.976 183.639 202.567 185.165 191.507 195.701C181.874 204.196 171.473 226.276 163.193 252.56C177.434 251.068 190.335 250.393 190.335 250.393L203.87 249.81C207.428 249.81 211.171 249.617 214.947 249.194Z" fill="#9E7C0C"/>
<path fill-rule="evenodd" clip-rule="evenodd" d="M335.505 213.259C337.673 218.383 334.686 224.077 328.83 225.976C322.978 227.88 316.471 225.255 314.304 220.127C312.136 214.999 315.123 209.306 320.979 207.41C326.826 205.511 333.333 208.132 335.505 213.259Z" fill="#C60C30"/>
<path fill-rule="evenodd" clip-rule="evenodd" d="M320.449 220.798C318.815 216.944 321.176 212.622 325.7 211.15C327.448 210.58 329.258 210.517 330.914 210.886C328.653 209.46 325.591 209.016 322.722 209.947C318.185 211.414 315.828 215.733 317.471 219.607C318.466 221.984 320.756 223.632 323.419 224.202C322.109 223.376 321.054 222.219 320.449 220.798Z" fill="white"/>
<path fill-rule="evenodd" clip-rule="evenodd" d="M334.972 216.383C336.152 219.453 334.463 222.887 331.199 224.061C327.935 225.218 324.343 223.683 323.163 220.601C321.983 217.536 323.684 214.107 326.94 212.945C330.199 211.771 333.795 213.31 334.972 216.383Z" fill="black"/>
</g>
<defs>
<clipPath id="clip0_2_131">
<rect width="500" height="500" fill="white"/>
</clipPath>
</defs>
</svg>
