<svg width="500" height="500" viewBox="0 0 500 500" fill="none" xmlns="http://www.w3.org/2000/svg">
<path fill-rule="evenodd" clip-rule="evenodd" d="M411.997 198.032C375.202 176.656 338.985 181.602 311.519 193.836C310.307 184.808 307.951 174.898 304.017 163.302C298.193 146.054 291.808 129.571 286.183 115.022C278.785 95.9167 273.155 79.5463 270.066 68.5965L250.048 0L229.265 68.6417C226.09 79.5463 220.61 96.0026 213.253 115.126C207.659 129.684 201.319 146.185 195.531 163.433C191.642 175.047 189.291 184.966 188.106 194.008C160.608 181.828 124.374 176.955 87.6281 198.411C57.5888 215.975 41.5042 246.492 45.6418 278.066C49.4176 306.792 69.0655 329.361 96.9027 337.01L117.636 342.702L122.709 321.82C123.437 318.985 130.917 292.841 154.467 293.315C170.805 293.654 184.366 308.09 191.149 317.426C188.956 324.026 187.789 331.938 188.906 340.46L179.682 328.163L163 340.596C147.978 351.78 126.164 379.426 139.644 412.054C145.523 426.281 158.162 435.974 175.227 439.374C185.664 441.449 197.521 440.965 208.509 438.551C212.832 452.426 220.714 469.212 235.048 484.204L250.17 500L265.241 484.168C279.549 469.14 287.381 452.326 291.69 438.447C302.683 440.821 314.531 441.282 324.967 439.18C342.024 435.753 354.636 426.024 360.487 411.783C373.895 379.119 352 351.523 336.964 340.374L320.251 327.991L311.058 340.302C312.161 331.78 310.967 323.877 308.761 317.263C315.526 307.923 329.051 293.451 345.384 293.08C368.939 292.551 376.468 318.678 377.255 321.662L382.369 342.535C382.337 342.377 403.052 336.64 403.052 336.64C430.885 328.936 450.465 306.309 454.173 277.564C458.238 245.999 442.077 215.514 411.997 198.032Z" fill="#0A0B09"/>
<path fill-rule="evenodd" clip-rule="evenodd" d="M243.147 71.576C240.61 83.5204 234.072 100.519 226.497 120.217C220.949 134.639 214.668 150.982 208.984 167.936C203.53 184.225 201.306 196.364 201.306 207.684C201.306 211.305 201.722 214.845 202.147 218.403C181.178 204.008 139.861 184.329 94.8001 210.659C69.7711 225.293 56.3273 250.403 59.7097 276.213C62.7214 299.17 78.4125 317.236 100.665 323.348L107.267 325.157L108.909 318.493C109.32 316.861 119.232 278.433 154.752 279.147C183.34 279.721 202.025 307.507 207.071 316.047C204.67 320.486 202.676 326.608 202.676 333.633C202.676 341.165 205.24 349.733 211.783 358.322C209.174 361.858 204.901 366.193 199.913 366.605C192.8 367.188 185.601 359.701 180.817 353.309L176.824 347.983L171.483 351.966C160.558 360.108 142.57 382.008 152.749 406.642C156.823 416.489 165.551 422.995 177.99 425.468C190.851 428.018 207.085 425.698 218.616 420.445C220.85 433.452 227.176 455.464 245.304 474.403L250.143 479.461L254.968 474.394C273.051 455.401 279.327 433.37 281.53 420.354C293.079 425.581 309.335 427.868 322.196 425.273C334.613 422.773 343.322 416.24 347.365 406.394C357.471 381.741 339.456 359.878 328.513 351.762L323.168 347.798L319.184 353.141C314.409 359.534 307.223 367.048 300.106 366.474C295.123 366.067 290.84 361.749 288.222 358.227C294.72 349.651 297.266 341.116 297.266 333.602C297.266 326.536 295.254 320.392 292.83 315.938C297.858 307.394 316.489 279.545 345.063 278.907C380.578 278.112 390.59 316.522 390.997 318.158L392.657 324.795L399.259 322.987C421.489 316.825 437.139 298.732 440.096 275.765C443.425 249.946 429.927 224.859 404.866 210.288C359.714 184.039 318.415 203.859 297.497 218.308C297.886 214.845 298.288 211.409 298.288 207.878C298.288 196.436 296.077 184.098 290.578 167.827C284.858 150.905 278.541 134.589 272.965 120.19C265.341 100.506 258.766 83.5069 256.202 71.5625L249.636 40.9375L243.147 71.576Z" fill="#FFFFFE"/>
<path fill-rule="evenodd" clip-rule="evenodd" d="M250.169 469.787C275.74 442.932 276.048 409.061 276.048 409.061C287.362 420.336 331.329 427.877 341.186 403.862C351.998 377.496 324.537 357.124 324.537 357.124C297.92 392.795 280.063 357.884 280.063 357.884C300.331 335.984 285.123 316.241 285.123 316.241C286.448 312.276 308.927 273.043 344.917 272.239C386.397 271.303 397.48 316.558 397.48 316.558C440.977 304.505 449.379 243.879 401.514 216.061C340.775 180.753 287.854 234.543 287.854 234.543C292.779 214.411 294.181 199.365 284.25 169.966C270.789 130.104 254.288 94.4882 249.676 72.9639C245.104 94.4927 228.676 130.168 215.313 170.056C205.46 199.483 206.907 214.529 211.859 234.642C211.859 234.642 158.816 180.983 98.1631 216.427C50.357 244.362 58.9035 304.957 102.427 316.91C102.427 316.91 113.402 271.633 154.886 272.478C190.886 273.193 213.446 312.371 214.78 316.327C214.78 316.327 199.618 336.115 219.939 357.961C219.939 357.961 202.154 392.93 175.47 357.319C175.47 357.319 148.036 377.749 158.92 404.088C168.841 428.081 212.781 420.436 224.068 409.133C224.068 409.133 224.457 443.004 250.078 469.796" fill="#0A0B09"/>
<path fill-rule="evenodd" clip-rule="evenodd" d="M358.972 214.168C309.543 214.217 269.013 270.341 269.013 270.341C270.772 261.159 291.903 219.842 272.78 170.459C253.656 121.081 249.754 101.189 249.754 101.189L249.663 101.754V101.203C249.663 101.203 245.797 121.099 226.791 170.531C207.781 219.959 229.016 261.231 230.789 270.395C230.789 270.395 190.127 214.376 140.698 214.439C91.2774 214.493 50.1276 270.729 95.7994 303.94C95.7994 303.94 109.166 262.447 155.231 262.361C189.11 262.289 223.052 298.624 224.49 316.631C224.49 316.631 208.979 338.526 230.544 356.849C230.544 356.849 207.247 405.847 174.947 370.552C174.947 370.552 150.108 401.62 182.589 409.143C208.36 415.102 233.742 388.966 233.742 388.966C233.742 388.966 230.974 430.251 250.061 452.816V452.612L250.156 452.807C269.194 430.202 266.327 388.912 266.327 388.912C266.327 388.912 291.772 414.993 317.542 408.967C350.001 401.372 325.085 370.358 325.085 370.358C292.875 405.725 269.474 356.79 269.474 356.79C290.98 338.413 275.416 316.558 275.416 316.558C276.809 298.565 310.655 262.14 344.547 262.131C390.622 262.131 404.083 303.579 404.083 303.579C449.678 270.264 408.393 214.104 358.972 214.168Z" fill="#D3BC8D"/>
</svg>
