<svg width="500" height="500" viewBox="0 0 500 500" fill="none" xmlns="http://www.w3.org/2000/svg">
<g clip-path="url(#clip0_37_7158)">
<path d="M419.019 320.404C397.44 316.663 375.586 314.737 353.686 314.643H53.0432C34.3221 314.643 14.9768 314.644 5.04018 299.331C-4.89645 284.018 0.239882 268.561 17.425 238.031L70.2284 138.904C73.4104 142.791 76.9457 146.375 80.789 149.609C86.0213 153.737 91.4457 155.897 105.799 155.897L297.331 155.561C330.693 155.561 364.535 159.018 386.281 182.971C397.609 184.171 434.284 189.02 464.382 203.42C481.999 211.869 493.663 224.446 497.984 239.855C499.282 244.545 499.944 249.389 499.952 254.256C499.152 271.335 493.544 287.842 483.775 301.875C461.117 337.397 440.236 349.878 439.276 350.454C431.836 355.859 423.084 359.174 413.93 360.054C420.444 352.522 425.535 343.869 428.955 334.517C432.796 321.94 419.019 320.404 419.019 320.404Z" fill="white"/>
<path d="M460.59 211.292C426.219 194.875 382.057 191.323 382.057 191.323C362.855 167.754 330.213 164.249 297.283 164.249C297.283 164.249 131.529 164.633 105.751 164.633C75.701 164.633 72.6768 152.729 72.6768 152.729L32.4502 228.093H136.953C169.835 228.093 171.467 224.781 193.309 208.892C216.446 191.851 234.975 185.659 256.865 185.659C278.754 185.659 293.203 190.459 317.588 201.404C341.974 212.348 354.887 217.437 369.384 211.244C369.384 211.244 357.959 226.653 323.445 212.156C288.931 197.659 279.666 194.587 258.689 194.587C237.711 194.587 214.334 204.524 184.668 234.142L219.998 262.607C219.998 262.607 211.838 275.232 206.461 283.297C201.085 291.361 201.661 296.738 204.445 300.674C207.229 304.61 210.926 306.434 224.03 306.434L353.639 306.194C376.167 306.262 398.648 308.238 420.843 312.099C453.917 318.723 432.556 346.613 432.556 346.613C432.556 346.613 454.685 332.212 476.623 297.65C501.008 259.151 494.816 227.757 460.59 211.292Z" fill="#002244"/>
<path d="M399.866 217.485C384.217 213.74 397.562 204.668 397.562 204.668C390.175 206.194 383.295 209.565 377.562 214.467C371.83 219.369 367.431 225.642 364.776 232.702C364.392 233.422 364.055 234.142 363.671 234.91C351.191 259.919 340.006 258.575 318.741 258.575H282.306C252.832 258.575 239.104 273.216 224.703 298.13H241.36C256.577 275.425 268.097 269.328 298.195 267.648C351.09 267.291 403.346 279.221 450.845 302.498C492.272 233.278 431.116 221.805 399.866 217.485Z" fill="white"/>
<path d="M271.794 297.842C279.474 286.225 295.123 282.241 320.373 283.729C363.458 285.451 405.966 294.257 446.189 309.795C411.914 289.729 350.807 275.28 308.324 275.376C287.587 275.376 269.441 279.073 258.785 297.842H271.794Z" fill="white"/>
<path d="M338.614 229.149C330.501 240.478 319.797 244.366 289.507 242.302C254.225 239.902 263.345 225.021 267.425 217.725C268.529 215.613 270.45 212.108 272.226 208.604C245.2 206.924 225.471 227.805 225.471 227.805C245.584 247.727 259.073 249.791 277.266 249.791H311.3C342.982 249.791 350.663 235.39 353.543 229.197C348.587 229.845 343.566 229.828 338.614 229.149Z" fill="white"/>
<path d="M323.204 225.79L321.236 224.973C319.461 226.718 317.308 228.033 314.945 228.815C312.581 229.597 310.07 229.827 307.604 229.486C300.787 228.622 296.803 223.677 298.771 218.397C299.061 217.631 299.448 216.905 299.923 216.237C296.419 214.845 292.915 213.549 289.506 212.349C282.498 223.725 278.37 231.214 302.707 233.278C317.876 234.574 321.908 231.982 325.173 226.51L323.204 225.79Z" fill="#69BE28"/>
<path d="M200.941 268.944C188.364 290.738 183.372 295.73 192.204 306.099H53.1873C32.642 306.099 19.2971 305.331 12.4327 294.722C5.56825 284.113 7.15235 274.657 25.1055 242.303H143.433C163.834 242.303 169.067 243.455 180.107 251.903C191.148 260.352 200.941 268.944 200.941 268.944Z" fill="#A5ACAF"/>
</g>
<defs>
<clipPath id="clip0_37_7158">
<rect width="500" height="221.246" fill="white" transform="translate(0 139)"/>
</clipPath>
</defs>
</svg>
