<svg width="500" height="500" viewBox="0 0 500 500" fill="none" xmlns="http://www.w3.org/2000/svg">
<g clip-path="url(#clip0_5_2343)">
<path d="M-0.224939 249.972C-0.236062 299.425 14.4184 347.771 41.8851 388.895C69.3518 430.02 108.397 462.075 154.083 481.008C199.768 499.94 250.042 504.9 298.547 495.259C347.051 485.618 391.607 461.809 426.58 426.845C461.553 391.88 485.371 347.329 495.023 298.827C504.675 250.325 499.727 200.049 480.804 154.359C461.882 108.669 429.835 69.617 388.717 42.1411C347.599 14.6652 299.256 1.25091e-06 249.803 0C183.524 0.074394 119.98 26.4326 73.1086 73.2937C26.237 120.155 -0.135636 183.693 -0.224939 249.972Z" fill="black"/>
<path d="M250.028 494.545C298.398 494.534 345.678 480.18 385.89 453.3C426.103 426.419 457.442 388.218 475.944 343.527C494.447 298.836 499.282 249.662 489.839 202.223C480.395 154.785 457.098 111.211 422.891 77.0125C388.685 42.8139 345.106 19.5262 297.665 10.0938C250.224 0.661468 201.051 5.50819 156.365 24.021C111.678 42.5338 73.4844 73.8814 46.6128 114.1C19.7412 154.319 5.39871 201.602 5.39871 249.972C5.39871 282.094 11.7266 313.902 24.0211 343.579C36.3156 373.255 54.3357 400.22 77.0524 422.931C99.7691 445.642 126.737 463.656 156.417 475.944C186.096 488.232 217.906 494.552 250.028 494.545Z" fill="#A5ACAF"/>
<path d="M250.028 454.561C290.374 454.561 329.815 442.595 363.36 420.178C396.905 397.76 423.048 365.898 438.483 328.621C453.918 291.343 457.95 250.326 450.071 210.757C442.192 171.187 422.754 134.843 394.217 106.322C365.68 77.8007 329.326 58.3833 289.752 50.5257C250.178 42.6682 209.163 46.7235 171.894 62.1788C134.625 77.6341 102.777 103.795 80.3784 137.353C57.9793 170.91 46.0356 210.357 46.0578 250.703C46.0877 304.78 67.5904 356.632 105.839 394.859C144.088 433.087 195.951 454.561 250.028 454.561Z" fill="white"/>
<path d="M251.097 250.703C253.459 167.135 332.359 147.509 352.323 149.477C303.453 146.834 255.202 126.195 251.434 48.8696C245.81 120.796 216.736 141.21 150.208 149.758C197.672 152.176 245.81 170.959 251.153 250.984" fill="#FFB612"/>
<path d="M352.491 354.29C354.853 270.723 432.347 250.084 452.199 251.883C403.161 250.084 355.922 226.802 352.21 149.477C346.305 221.403 317.568 242.323 250.984 250.703C298.448 253.121 346.98 274.21 352.21 354.122" fill="#C60C30"/>
<path d="M252.334 453.718C254.64 370.15 332.64 352.492 352.491 354.291C303.622 351.648 254.808 328.197 251.265 250.872C245.36 322.742 217.523 344.337 150.939 352.885C198.403 355.304 247.048 373.805 252.503 453.718" fill="#00539B"/>
<path d="M194.241 232.989V263.581H202.227V245.867C202.227 244.011 201.833 241.593 208.694 242.099V232.764H206.726C204.026 233.382 203.295 234.676 202.058 236.756V232.932L194.241 232.989Z" fill="black"/>
<path d="M230.345 242.998C230.559 241.246 230.281 239.469 229.542 237.867C228.803 236.264 227.633 234.898 226.161 233.923C224.69 232.948 222.977 232.402 221.212 232.347C219.448 232.291 217.704 232.727 216.174 233.607C214.44 234.093 212.929 235.166 211.9 236.644C211.018 238.02 210.55 239.62 210.55 241.255C210.255 243.159 210.663 245.105 211.698 246.729C212.733 248.354 214.324 249.547 216.174 250.084C218.704 250.703 221.797 251.04 222.922 253.065C223.174 253.418 223.309 253.84 223.309 254.274C223.309 254.707 223.174 255.13 222.922 255.483C222.416 256.664 219.773 256.664 218.704 256.27C218.184 256.031 217.75 255.64 217.458 255.147C217.167 254.655 217.033 254.085 217.073 253.515H210.213C210.104 255.66 210.509 257.8 211.393 259.757C212.42 261.612 214.138 262.986 216.174 263.581C217.932 264.175 219.796 264.397 221.645 264.233C223.494 264.068 225.289 263.52 226.915 262.625C227.99 261.851 228.906 260.877 229.614 259.757C230.264 258.635 230.666 257.387 230.792 256.097C230.918 254.806 230.766 253.504 230.345 252.277C230.173 251.506 229.928 250.753 229.614 250.028C229.016 248.889 228.17 247.898 227.138 247.129C226.107 246.361 224.916 245.833 223.653 245.585L221.741 245.079C217.917 244.685 217.636 242.492 218.142 241.03C218.332 240.487 218.705 240.026 219.198 239.729C219.691 239.431 220.272 239.315 220.841 239.399C221.341 239.391 221.831 239.538 222.244 239.82C222.657 240.102 222.973 240.505 223.147 240.974C223.208 241.61 223.208 242.25 223.147 242.886L230.345 242.998Z" fill="black"/>
<path d="M98.3016 233.157C98.5256 230.57 97.9985 227.972 96.7833 225.677C95.1095 223.051 92.5223 221.138 89.521 220.307C86.5196 219.476 83.3169 219.787 80.5309 221.178C78.4516 222.163 76.7527 223.803 75.6945 225.846C74.6392 227.543 74.0208 229.475 73.8949 231.47C73.7792 233.92 74.3171 236.357 75.4535 238.531C76.5899 240.705 78.2841 242.538 80.3622 243.842C83.1967 245.104 85.8763 246.689 88.3478 248.566C88.9195 249.371 89.2938 250.3 89.4403 251.277C89.5869 252.254 89.5015 253.251 89.1913 254.189C88.8853 254.631 88.487 255.001 88.0239 255.274C87.5609 255.547 87.0442 255.716 86.5094 255.769C85.9746 255.823 85.4346 255.759 84.9267 255.584C84.4188 255.408 83.9551 255.124 83.5676 254.752C82.7146 253.169 82.3617 251.365 82.5554 249.578H74.0074C73.5675 252.564 73.9365 255.613 75.0759 258.407C75.5578 259.495 76.2545 260.474 77.1242 261.286C77.994 262.098 79.0188 262.725 80.1372 263.131C82.6565 264.36 85.4857 264.808 88.2615 264.417C91.0372 264.026 93.6327 262.815 95.7148 260.938C96.3912 260.296 96.9107 259.507 97.2331 258.632C98.7902 255.48 99.2835 251.909 98.639 248.453C98.3583 246.766 97.7261 245.157 96.7833 243.729C95.052 241.152 92.5533 239.184 89.6413 238.106L88.3478 237.487C83.7926 236.025 81.9368 233.213 83.3427 230.232C83.6003 229.817 83.9383 229.458 84.337 229.176C84.7357 228.894 85.1869 228.695 85.664 228.59C86.141 228.485 86.6343 228.477 87.1145 228.566C87.5948 228.655 88.0524 228.839 88.4602 229.108C89.2828 230.23 89.6994 231.598 89.6413 232.988H98.3016V233.157Z" fill="black"/>
<path d="M102.801 233.044H99.5388V240.074H102.576V256.327C102.576 264.931 109.999 263.637 113.823 263.694V254.527C110.505 254.527 110.786 253.965 110.786 252.277V240.243H113.935V232.988H110.786V225.509L102.576 230.064L102.801 233.044Z" fill="black"/>
<path d="M168.991 220.785H160.724V263.862H168.991V220.785Z" fill="black"/>
<path d="M178.158 254.921C178.158 257.676 184.175 258.239 184.344 254.921V254.021H190.98V257.62C191.038 259.093 190.573 260.539 189.667 261.702C188.761 262.865 187.473 263.67 186.031 263.975C182.938 264.95 179.62 264.95 176.527 263.975C174.984 263.431 173.658 262.405 172.746 261.047C171.834 259.689 171.385 258.073 171.466 256.439V241.536C171.45 240.103 171.824 238.692 172.547 237.455C173.27 236.217 174.315 235.198 175.571 234.507C177.2 233.674 178.996 233.216 180.825 233.167C182.655 233.119 184.472 233.48 186.143 234.226C187.566 234.804 188.784 235.792 189.645 237.063C190.506 238.334 190.97 239.832 190.98 241.368V250.703H178.045L178.158 254.921ZM178.495 244.348H184.569C184.732 243.866 184.777 243.352 184.702 242.848C184.627 242.345 184.433 241.867 184.136 241.453C183.839 241.04 183.448 240.702 182.995 240.47C182.543 240.238 182.041 240.117 181.532 240.117C181.023 240.117 180.521 240.238 180.068 240.47C179.615 240.702 179.224 241.04 178.928 241.453C178.631 241.867 178.437 242.345 178.362 242.848C178.286 243.352 178.332 243.866 178.495 244.348Z" fill="black"/>
<path d="M145.316 254.921C145.316 257.676 151.333 258.239 151.502 254.921V254.021H158.194V257.62C158.238 259.098 157.761 260.545 156.846 261.707C155.931 262.869 154.636 263.672 153.189 263.975C150.096 264.95 146.778 264.95 143.685 263.975C142.147 263.424 140.826 262.395 139.915 261.039C139.004 259.683 138.552 258.071 138.623 256.439V241.536C138.632 240.101 139.022 238.694 139.753 237.458C140.484 236.223 141.53 235.204 142.785 234.507C144.414 233.674 146.21 233.216 148.039 233.167C149.869 233.119 151.686 233.48 153.357 234.226C154.771 234.816 155.981 235.807 156.841 237.075C157.7 238.344 158.17 239.836 158.194 241.368V250.703H145.259L145.316 254.921ZM145.597 244.348H151.614C151.792 243.864 151.851 243.343 151.784 242.831C151.718 242.319 151.529 241.831 151.234 241.408C150.939 240.984 150.545 240.639 150.088 240.4C149.63 240.161 149.121 240.037 148.605 240.037C148.089 240.037 147.581 240.161 147.123 240.4C146.665 240.639 146.272 240.984 145.977 241.408C145.681 241.831 145.492 242.319 145.426 242.831C145.36 243.343 145.419 243.864 145.597 244.348Z" fill="black"/>
<path d="M122.933 254.921C122.933 257.676 128.951 258.239 129.119 254.921V254.021H135.811V257.62C135.856 259.098 135.379 260.545 134.464 261.707C133.549 262.869 132.254 263.672 130.806 263.975C127.713 264.95 124.395 264.95 121.302 263.975C119.765 263.424 118.444 262.395 117.533 261.039C116.622 259.683 116.169 258.071 116.241 256.439V241.536C116.249 240.101 116.639 238.694 117.371 237.458C118.102 236.223 119.148 235.204 120.403 234.507C122.032 233.674 123.828 233.216 125.657 233.167C127.487 233.119 129.304 233.48 130.975 234.226C132.389 234.816 133.599 235.807 134.458 237.075C135.317 238.344 135.788 239.836 135.811 241.368V250.703H122.877L122.933 254.921ZM123.215 244.348H129.119C129.387 243.86 129.522 243.311 129.512 242.754C129.503 242.198 129.349 241.654 129.065 241.175C128.781 240.696 128.378 240.3 127.894 240.024C127.411 239.749 126.864 239.604 126.307 239.604C125.751 239.604 125.204 239.749 124.721 240.024C124.237 240.3 123.834 240.696 123.55 241.175C123.266 241.654 123.112 242.198 123.102 242.754C123.093 243.311 123.228 243.86 123.496 244.348H123.215Z" fill="black"/>
</g>
<defs>
<clipPath id="clip0_5_2343">
<rect width="500" height="500" fill="white"/>
</clipPath>
</defs>
</svg>
