<?xml version="1.0" encoding="UTF-8" standalone="no"?>
<svg width="500px" height="500px" viewBox="0 0 500 500" version="1.1" xmlns="http://www.w3.org/2000/svg" xmlns:xlink="http://www.w3.org/1999/xlink">
    <!-- Generator: Sketch 39.1 (31720) - http://www.bohemiancoding.com/sketch -->
    <title>TEN</title>
    <desc>Created with Sketch.</desc>
    <defs></defs>
    <g id="Page-1" stroke="none" stroke-width="1" fill="none" fill-rule="evenodd">
        <g id="TEN">
            <g transform="translate(0.000000, 73.000000)">
                <path d="M161.409091,206.596495 C161.89899,212.465685 163.984848,224.143453 170.737374,237.174873 C179.080808,253.267161 196.560606,274.723546 232.611111,286.876102 C238.328283,295.85667 245.065657,304.251329 252.686869,311.84794 C280.090909,339.173514 316.494949,354.195003 355.191919,354.134392 C393.893939,354.078832 430.252525,338.956324 457.575758,311.544883 C484.89899,284.143545 499.924242,247.736384 499.863636,209.031047 C499.80303,170.325709 484.681818,133.964007 457.282828,106.638433 C435.570707,84.9850616 408.333333,71.0545747 378.368687,66.2208271 C337.80303,29.4853554 290.444444,42.6480997 288.409091,43.2390594 C287.732323,43.4309951 286.717172,43.7239495 285.454545,44.1078208 C270.878788,48.9567212 263.343434,43.3956385 258.459596,39.5720785 C253.050505,35.3292906 247.146465,31.0208405 241.449495,27.8185459 C222.10101,16.9337746 194.60101,16.5448524 171.439394,25.8840366 C156.181818,31.0814518 148.489899,24.3586534 143.939394,21.21697 C113.722222,0.366698095 76.5707071,-4.60847579 37.1565657,4.06903561 C10.6161616,9.91802176 0,15.3174744 0,15.3174744 C0,15.3174744 18.1818182,17.954064 37.1767677,25.8941385 C52.7727273,32.4098485 65.1717172,40.7742017 74.5606061,55.7956912 C74.5606061,55.7956912 80.469697,64.4732026 76.6313131,67.0340281 C72.3333333,69.8979099 67.8585859,62.8872081 67.8585859,62.8872081 C67.7121212,67.9330951 67.7121212,72.9537274 68.0454545,76.7671855 C70.2272727,116.836276 78.3989899,140.903996 97.7222222,159.294461 C106.515152,167.658814 121.348485,175.795875 144.267677,184.801697 C154.722222,188.983874 160.378788,194.342919 161.409091,206.596495" id="Fill-1" fill="#FFFFFF"></path>
                <path d="M450.75,113.183943 C429.729798,92.2225506 403.04798,78.999195 374.164141,74.9382409 C336.512626,38.9099005 290.987374,52.1130523 290.987374,52.1130523 C300.633838,53.5475187 307.042929,59.300537 304.568182,65.6748207 C302.931818,69.887303 295.921717,70.1095442 292.719697,70.1449008 C282.55303,70.2560214 273.770202,64.0130621 266.760101,58.3156041 C259.467172,52.385803 247.573232,41.8646992 236.921717,35.8742868 C217.083333,24.7167649 185.583333,26.1057728 162.780303,40.662576 C176.411616,41.5868976 192.815657,45.5114764 202.603535,53.6131809 C208.063131,58.1388213 215.027778,67.2355605 209.330808,71.4833994 C204.325758,75.2210934 192.022727,73.2916351 185.775253,69.6701126 C175.830808,63.9170943 166.881313,55.1991754 161.512626,48.8754011 C125.431818,6.35660541 74.3055556,3.98266457 32.1489899,14.3976986 C59.8156566,22.1660412 78.280303,37.9300185 89.6843434,65.1040647 C101.093434,92.2781109 109.957071,103.844759 128.75,111.209026 C140.517677,115.815482 143.699495,116.66909 142.775253,121.886709 C141.421717,129.523727 127.487374,125.856746 116.85101,121.704875 C103.901515,116.648887 86.8358586,102.683043 76.6691919,76.4888789 C78.5176768,110.380673 84.9873737,134.413035 104.088384,152.596412 C112.199495,160.314245 127.108586,168.299778 150.431818,177.275295 C165.320707,183.008109 177.108586,186.478104 188.194444,196.41835 C201.133838,208.00015 195.623737,215.652321 187.042929,214.202702 C177.335859,212.566198 170.406566,202.651207 170.406566,202.651207 C170.406566,202.651207 170.421717,257.868061 238.664141,279.127459 C244.34596,288.547458 251.219697,297.33609 259.214646,305.301419 C284.871212,330.889471 318.95202,344.946231 355.179293,344.890671 C391.406566,344.83511 425.44697,330.682382 451.037879,305.018566 C476.613636,279.359802 490.679293,245.276072 490.623737,209.045694 C490.573232,172.810266 476.406566,138.766944 450.75,113.183943" id="Fill-4" fill="#002244"></path>
                <path d="M443.539394,120.054734 C423.180808,99.699454 397.049495,87.2185863 368.847475,84.1324633 C344.579798,59.9435214 320.367677,61.0749315 320.367677,61.0749315 C330.993939,67.7421696 325.514141,82.5717234 301.882828,85.8396803 C278.468687,89.0722806 248.736364,81.1372571 234.256566,64.2671243 C219.332323,46.8817959 208.064646,46.0887986 208.064646,46.0887986 C221.009091,54.1753503 221.933333,63.883253 229.786869,78.6723993 C237.645455,93.4615457 253.822222,98.7751324 267.913131,99.699454 C282.756566,100.674285 283.120202,107.392033 271.150505,114.493651 C258.094949,122.231688 246.539394,114.91793 238.140404,106.644494 C224.882828,93.5625644 211.670707,91.0572992 193.418182,91.2896423 C175.165657,91.5219855 151.039394,93.921181 130.670707,86.2993156 C110.30202,78.6723993 96.8727273,51.8670716 96.8727273,51.8670716 C106.943434,87.4559804 129.327273,104.326113 150.094949,108.397169 C177.534343,113.781469 196.50404,120.312332 208.110101,129.712127 C219.443434,138.904834 225.478788,148.072287 229.736364,160.724886 C233.024242,170.478248 233.610101,183.428852 230.367677,184.201646 C226.589899,185.105764 225.807071,179.893196 221.347475,170.801508 C216.423232,160.760243 210.544444,152.88078 198.685859,146.557005 C182.615152,137.985564 166.887879,138.480556 150.852525,138.702797 C138.150505,138.87958 130.70101,137.42491 130.70101,137.42491 C130.70101,137.42491 131.236364,139.137178 151.928283,143.78404 C174.993939,148.961252 197.30202,161.962366 212.145455,193.651951 C224.776768,220.608807 218.185859,239.585181 190.20101,230.998586 C190.20101,230.998586 203.271717,260.056632 245.963636,270.406004 C251.473737,280.093703 258.322222,289.099525 266.413131,297.191128 C290.069697,320.849721 321.519192,333.87609 354.973737,333.87609 C388.428283,333.87609 419.872727,320.849721 443.539394,297.191128 C467.19596,273.532535 480.216162,242.075293 480.216162,208.61788 C480.216162,175.165518 467.19596,143.713327 443.539394,120.054734" id="Fill-6" fill="#4B92DB"></path>
                <path d="M354.975758,89.4879728 C386.788889,89.4879728 416.708081,101.877924 439.208081,124.379852 C461.708081,146.881781 474.09697,176.798486 474.09697,208.619395 C474.09697,274.311894 420.662626,327.76092 354.975758,327.76092 C323.157576,327.76092 293.238384,315.365918 270.738384,292.863989 C248.238384,270.362061 235.849495,240.445355 235.849495,208.619395 C235.849495,176.798486 248.238384,146.881781 270.738384,124.379852 C293.238384,101.877924 323.157576,89.4879728 354.975758,89.4879728" id="Fill-8" fill="#FFFFFF"></path>
                <path d="M355.128283,317.480746 C295.022222,317.571663 246.214141,268.905875 246.123232,208.784561 C246.032323,148.668297 294.69899,99.861084 354.810101,99.7701672 C414.921212,99.6843012 463.729293,148.355139 463.820202,208.471403 C463.911111,268.587666 415.249495,317.39488 355.128283,317.480746" id="Fill-10" fill="#002244"></path>
                <polygon id="Fill-12" fill="#FFFFFF" points="328.357071 186.600336 296.099495 186.600336 285.473232 205.556507 271.175253 165.017679 438.468182 165.017679 424.195455 205.556507 413.65 186.600336 381.937879 186.600336 355.079293 304.110408"></polygon>
                <polygon id="Fill-14" fill="#A5ACAF" points="438.469192 165.015153 271.176263 165.015153 273.883333 172.69763 353.661111 172.69763 328.358081 186.597811 355.080303 304.09273 355.080303 172.69763 435.767172 172.69763"></polygon>
                <path d="M272.845455,70.9934584 C248.582828,70.3014799 238.693939,60.6794431 223.628283,48.5773957 C205.188889,33.7629947 184.734343,37.889611 184.734343,37.889611 C196.981818,30.8789092 221.067677,30.5910057 238.416162,45.8044308 C253.916162,59.3965048 261.522222,66.7708742 272.845455,70.9934584" id="Fill-16" fill="#C60C30"></path>
                <path d="M65.770202,17.5540298 C65.770202,17.5540298 88.4671717,17.0085285 108.310606,52.6075391 C124.987374,82.5343465 156.795455,88.5247589 180.078283,81.9332849 C180.078283,81.9332849 149.411616,81.1352367 132.633838,51.400365 C115.492424,21.0088713 92.8106061,12.5536012 65.770202,17.5540298" id="Fill-18" fill="#C60C30"></path>
                <path d="M194.271717,189.939511 C194.271717,189.939511 191.059596,156.855868 143.908081,147.259086 C96.4434343,137.601692 90.3272727,112.897555 90.3272727,112.897555 C90.3272727,112.897555 90.6454545,148.52182 131.488889,159.472254 C160.014141,167.114323 180.943434,171.508639 194.271717,189.939511" id="Fill-20" fill="#C60C30"></path>
                <polygon id="Fill-22" fill="#C60C30" points="371.323232 154.548094 364.909091 135.465651 381.136364 123.712118 361.010101 123.712118 354.681818 104.629675 348.646465 123.712118 328.520202 123.949512 344.919192 135.62223 338.80303 154.800641 354.974747 142.809715"></polygon>
                <polygon id="Fill-24" fill="#C60C30" points="299.50404 222.015998 286.180808 237.108201 267.751515 229.021649 277.983838 246.356468 264.6 261.39311 284.246465 257.013947 294.408081 274.389174 296.312121 254.347052 315.983838 250.058806 297.509091 242.053069"></polygon>
                <polygon id="Fill-26" fill="#C60C30" points="393.833333 250.491671 413.570707 254.481912 415.782828 274.488677 425.676768 256.956871 445.383838 261.032978 431.772727 246.203425 441.732323 228.717077 423.434343 237.086482 409.883838 222.196316 412.181818 242.198031"></polygon>
            </g>
        </g>
    </g>
</svg>