<svg width="500" height="500" viewBox="0 0 500 500" fill="none" xmlns="http://www.w3.org/2000/svg">
<g clip-path="url(#clip0_37_7192)">
<path d="M252.405 344.989C255.664 332.143 264.54 321.707 266.62 320.061C266.62 320.061 252.873 338.401 256.843 367.23C260.411 350.195 267.796 334.192 278.443 320.425C296.281 297.299 313.356 286.396 327.484 269.078C334.195 261.039 339.302 251.788 342.531 241.827C344.381 236.411 345.585 230.796 346.12 225.098C342.288 225.445 338.631 225.913 334.956 226.277C334.937 226.406 334.908 226.534 334.869 226.658C331.177 239.018 324.017 247.911 312.663 253.112C297.824 268.246 275.687 278.768 263.344 286.673C241.536 300.645 237.948 328.277 237.948 328.277C240.357 285.979 266.291 280.536 294.617 259.734C295.206 259.301 296.627 258.486 297.2 258L296.333 258.382C291.597 258.294 286.876 257.807 282.222 256.926C279.35 258.918 276.376 260.758 273.312 262.438C263.722 267.967 255.212 275.185 248.193 283.743C252.215 270.36 261.593 264.674 275.652 254.811C270.031 252.481 264.88 249.151 260.449 244.982C252.163 249.263 233.857 260.375 221.67 271.886C211.928 281.108 193.83 294.179 172.455 304.268C189.253 293.139 217.527 268.176 227.529 258.711C227.529 258.711 190.276 280.224 179.615 287.453C179.615 287.453 193.483 272.146 210.627 262.698C210.627 262.698 172.698 278.3 150.89 293.139C139.605 300.836 122.322 316.541 112.319 327.237C116.428 326.353 132.012 323.198 136.155 322.782C164.204 319.887 194.835 322.071 221.705 289.741L222.97 288.216C220.63 296.225 219.624 307.423 220.092 319.905C221.063 346.913 242.022 357.557 250.134 363.243C249.944 359.966 249.476 356.655 252.405 344.989Z" fill="#FFC62F"/>
<path d="M189.825 320.754H189.288C189.288 320.754 197.227 324.914 203.815 324.914C207.91 324.884 211.972 324.163 215.828 322.782C215.828 322.782 214.736 307.319 216.192 302.257C216.192 302.309 203.676 317.287 189.825 320.754Z" fill="#FFC62F"/>
<path d="M255.179 204.92C255.179 204.92 268.666 208.872 276.813 215.148C276.813 215.148 267.972 213.414 258.941 212.235C261.844 216.575 265.655 220.234 270.111 222.958C274.566 225.682 279.559 227.406 284.746 228.013C289.932 228.619 295.189 228.093 300.152 226.471C305.115 224.848 309.668 222.168 313.495 218.615C312.184 219.549 310.798 220.372 309.351 221.076C306.707 222.331 303.848 223.072 300.926 223.261C297.133 224.364 293.14 224.601 289.243 223.954L289.572 223.867C305.174 221.18 319.597 209.306 317.967 191.19C317.274 183.442 314.899 175.173 310.027 169.955C314.739 173.93 318.174 179.206 319.903 185.122C321.633 191.039 321.581 197.334 319.753 203.221C321.789 198.878 322.877 194.15 322.942 189.353C324 193.911 323.82 198.669 322.422 203.134C324.009 199.185 324.855 194.978 324.918 190.722C325.022 191.242 325.074 191.71 325.161 192.213V192.126C325.164 189.562 324.891 187.005 324.346 184.499V184.135C323.115 177.207 320.236 170.677 315.952 165.096C311.668 159.514 306.104 155.045 299.73 152.065C285.061 145.498 268.883 143.042 252.925 144.957C249.632 145.304 246.407 145.72 243.27 146.119C226.368 148.286 210.333 150.331 193.327 140.745C172.143 130.066 156.472 106.23 153.456 80.0716L153.126 77.2113C152.693 73.6055 152.537 69.7918 152.329 66.0994C152.034 62.8404 151.427 61.0722 151.358 61.4882C151.341 61.748 151.341 62.0085 151.358 62.2683C151.218 65.0553 150.853 67.8265 150.266 70.5545C149.763 73.7962 149.105 79.9676 149.053 79.7595C148.992 79.4679 148.952 79.1725 148.931 78.8754C148.799 77.9802 148.735 77.0761 148.741 76.1712C148.741 74.3336 148.74 72.5134 148.584 70.6932C148.359 66.1167 147.579 52.7513 147.232 51.0524C147.128 50.619 146.955 49.0935 146.487 48.8335C146.487 50.3937 146.487 51.9712 146.4 53.5487C146.227 57.6398 145.308 62.4936 144.892 66.5674C144.476 70.6412 143.8 74.6976 143.159 78.7021C142.985 79.8289 142.743 82.0651 142.708 81.7011C142.708 81.7011 142.708 81.5451 142.708 81.4584C142.483 78.9621 141.858 70.9359 141.91 61.8176V59.9454C141.91 60.2921 141.806 60.6561 141.737 61.0028C139.704 72.2801 138.545 83.6975 138.27 95.1532C138.27 95.5173 138.27 96.6267 138.27 97.2161C138.261 110.849 140.77 124.366 145.672 137.087C156.819 165.656 178.401 184.62 209.813 193.427C225.449 197.934 242.975 201.227 255.179 204.92Z" fill="white"/>
<path d="M279.899 389.644C273.087 384.368 265.986 379.478 258.628 374.996C250.481 370.471 241.571 365.496 238.104 362.428C238.104 362.428 238.104 376.747 245.038 387.668C250.238 395.815 264.54 403.269 273.814 408.817C274.629 405.8 276.778 398.034 279.899 389.644Z" fill="#FFC62F"/>
<path d="M262.512 371.667C269.255 375.863 277.42 380.942 281.91 384.513C283.002 381.895 284.181 379.312 285.377 376.833C292.588 362.618 299.678 357.557 302.469 342.735C303.515 337.056 303.189 331.21 301.519 325.683C299.848 320.156 296.882 315.108 292.866 310.959C292.866 310.959 276.727 328.624 270.33 342.995C264.783 355.84 262.806 366.172 262.512 371.667Z" fill="#FFC62F"/>
<path d="M231.343 204.417L227.546 203.464C224.998 202.822 222.346 202.216 219.849 201.609C216.989 200.95 214.129 200.291 211.32 199.615C211.164 200.309 211.026 201.019 210.887 201.713C210.488 204.226 210.142 206.775 209.864 209.323C216.278 207.589 223.871 205.856 231.187 204.59H231.707L231.343 204.417Z" fill="#FFC62F"/>
<path d="M249.684 110.945C225.83 96.2279 219.902 82.2383 216.296 62.2161C215.732 59.1082 214.991 56.0349 214.077 53.0111C214.453 57.8982 214.453 62.807 214.077 67.6941C213.158 60.3613 208.582 47.5332 208.582 47.5332C209.863 54.6513 210.627 61.8526 210.87 69.0809C209.931 63.2812 208.552 57.5613 206.744 51.971C207.299 55.6808 207.75 59.1478 208.114 61.9908C209.327 71.8719 206.969 89.5191 213.973 108.016C218.497 119.994 228.344 128.818 234.238 133.187C239.178 126.304 245.436 117.446 249.684 110.945Z" fill="white"/>
<path d="M420.054 238.36C412.756 241.255 395.785 236.089 385.106 235.326C378.787 234.855 372.475 236.337 367.026 239.573C364.131 232.275 367.476 222.411 367.476 222.411C365.258 222.411 357.266 223.434 355.012 223.555C354.345 223.822 353.633 223.957 352.915 223.954C352.915 224.197 352.915 224.439 352.915 224.682C352.915 224.925 349.552 250.477 337.313 267.309C340.52 269.043 348.581 271.487 351.441 274.087C353.354 275.964 354.826 278.243 355.75 280.758C356.673 283.274 357.025 285.963 356.781 288.632C356.263 294.496 355.201 300.299 353.608 305.967C353.608 305.967 352.984 291.943 351.736 287.817C350.488 283.691 345.773 279.877 341.335 278.508C339.289 277.867 335.545 276.861 331.385 275.942C323.324 285.165 315.211 291.544 307.566 298.305C308.358 299.644 309.638 300.626 311.137 301.044C315.713 302.24 321.538 299.501 321.538 299.501C321.538 299.501 317.846 316.559 327.64 331.103C334.938 341.938 349.049 339.164 349.049 339.164C349.049 339.164 352.065 317.738 365.431 300.576C377.756 284.749 392.786 276.549 403.274 273.463C402.892 271.522 402.251 267.5 402.996 265.541C403.601 264.074 404.623 262.818 405.936 261.927C407.249 261.036 408.795 260.551 410.381 260.531C412.979 260.688 415.525 261.329 417.887 262.421C416.015 262.04 411.144 261.797 408.63 264.414C406.706 266.443 407.59 270.516 408.11 272.302C414.794 271.081 421.64 271.034 428.34 272.163C430.161 272.614 431.807 272.302 432.449 270.031C433.09 267.76 433.056 265.021 431.842 264.102C430.629 263.184 428.652 262.889 426.642 261.363C424.631 259.838 423.001 256.163 423.175 250.962C423.348 245.762 420.054 238.36 420.054 238.36ZM395.23 242.503C396.759 244.244 397.984 246.231 398.853 248.379C398.869 248.668 398.869 248.957 398.853 249.246C398.853 249.246 398.853 249.367 398.853 249.541C398.697 251.274 397.865 259.318 396.01 261.571C395.729 262.024 395.403 262.448 395.039 262.837C392.907 264.83 389.18 266.72 382.142 271.609C374.376 276.982 368.274 288.008 368.274 288.008C368.274 288.008 370.475 277.607 375.208 271.643C380.336 265.559 386.608 260.541 393.67 256.874L395.82 247.27C394.098 246.046 392.155 245.169 390.099 244.687C385.938 243.959 378.935 244.063 374.653 242.659V242.572C379.854 241.948 382.783 240.44 390.428 239.192C394.945 238.432 399.578 238.777 403.932 240.197C400.904 240.347 397.94 241.126 395.23 242.485V242.503Z" fill="#E9BF9B"/>
<path d="M374.879 222.758C371.134 225.254 372.001 232.76 372.001 232.76C372.001 232.76 375.017 229.64 382.402 227.75C389.787 225.861 399.564 227.265 399.564 227.265C396.5 227.796 393.54 228.808 390.792 230.264C401.315 231.633 403.187 235.014 417.194 234.008C431.201 233.003 432.969 219.759 432.969 219.759C429.571 221.12 426.054 222.164 422.464 222.879C415.2 224.509 400.552 222.255 396.166 221.752C391.78 221.25 378.64 220.175 374.879 222.758Z" fill="#FFC62F"/>
<path d="M235.694 141.282C237.947 141.022 240.218 140.727 242.541 140.433C245.731 140.034 248.973 139.6 252.336 139.254C259.05 138.428 265.836 138.358 272.566 139.046C282.425 139.993 292.075 142.473 301.169 146.396C316.164 152.741 328.004 168.03 330.084 184.013C330.171 184.464 330.258 184.897 330.327 185.348C330.327 185.521 330.327 185.677 330.327 185.851C330.414 186.423 330.483 186.995 330.552 187.584C343.706 186.015 356.935 185.165 370.181 185.036C381.462 185.115 392.724 185.995 403.88 187.671C396.506 170.763 385.907 155.454 372.677 142.599C338.96 110.633 297.269 95.3783 262.477 93.7661C261.821 98.711 260.369 103.517 258.178 107.998C256.731 111.167 254.977 114.186 252.942 117.013C249.666 121.416 243.113 130.465 237.081 139.548C236.838 139.86 235.694 141.282 235.694 141.282Z" fill="#FFC62F"/>
<path d="M279.778 437.974C279.778 437.974 283.245 431.751 287.249 424.782C284.138 422.158 280.836 419.771 277.368 417.64C273.641 415.317 267.244 412.145 261.766 408.973C261.62 414.962 263.249 420.861 266.447 425.927C269.967 430.86 274.515 434.97 279.778 437.974Z" fill="#FFC62F"/>
<path d="M256.982 240.232C256.427 239.469 255.872 238.706 255.352 237.891L254.225 236.903C250.36 237.683 198.597 244.479 135.999 286.551C115.197 300.42 89.8354 325.226 77.2847 339.025C82.6586 336.685 94.2558 331.814 103.426 328.988C112.787 319.367 128.164 303.783 142.257 293.902C174.934 271.036 230.771 247.391 256.982 240.232Z" fill="#FFC62F"/>
<path d="M408.96 307.961C418.227 301.76 428.379 296.997 439.071 293.832C439.071 293.832 438.516 285.165 429.693 276.826C429.693 276.826 416.31 273.065 399.547 280.692C382.784 288.32 366.783 303.557 359.901 319.332C353.019 335.108 352.482 351.784 351.736 364.057C350.991 376.331 353.019 394.654 348.269 411.157C348.269 411.157 356.174 399.456 359.034 366.432C361.635 336.477 369.054 315.865 382.818 306.227C382.818 306.227 371.81 321.499 368.049 346.531C364.287 371.563 365.05 381.323 360.421 402.091L359.277 405.991C359.277 405.991 370.285 391.239 376.265 352.789C381.466 319.176 391.33 304.095 404.851 296.207C404.851 296.207 386.753 315.883 382.61 344.035C382.558 343.966 392.821 318.587 408.96 307.961Z" fill="#FFC62F"/>
<path d="M319.25 332.247C314.205 324.827 310.721 310.006 310.721 310.006C308.78 309.89 306.884 309.367 305.158 308.471C303.432 307.575 301.913 306.326 300.701 304.805C300.077 305.429 299.453 306.053 298.829 306.729C298.829 306.729 304.515 314.617 307.982 329.456C310.617 340.741 303.562 359.116 303.562 359.116C306.007 365.728 307.75 372.579 308.762 379.555L309.438 379.156C309.438 379.156 329.131 368.755 339.706 364.3C341.439 363.589 343.467 362.826 345.842 362.046C346.079 356.643 346.593 351.257 347.385 345.907C345.357 345.907 343.485 345.994 341.907 345.994C331.09 345.976 324.312 339.666 319.25 332.247Z" fill="#E9BF9B"/>
<path d="M427.3 345.734C421.926 345.578 400.864 344.902 387.776 344.902H387.62C386.193 347.196 385.03 349.645 384.153 352.2C387.811 351.489 391.33 350.865 394.554 350.38C412.392 347.693 427.058 347.225 429.432 346.913C431.807 346.601 436.055 346.757 437.632 345.491C437.597 345.491 432.657 345.838 427.3 345.734Z" fill="#E9BF9B"/>
<path d="M268.024 445.706C268.52 447.154 269.317 448.481 270.363 449.598C271.409 450.716 272.68 451.599 274.091 452.19C275.721 446.989 277.801 441.372 277.801 441.372C275.111 439.919 272.588 438.175 270.278 436.172C268.856 437.992 266.36 440.124 268.024 445.706Z" fill="#FFC62F"/>
<path d="M433.576 324.047C430.29 323.097 426.866 322.716 423.452 322.92C423.452 322.92 428.323 311.029 427.821 304.528C427.821 304.528 399.495 316.749 391.417 339.198C391.417 339.198 408.405 339.649 417.922 340.758C427.439 341.868 433.61 341.937 435.743 342.059C437.875 342.18 442.243 342.44 440.943 334.674C439.643 326.908 437.338 325.555 433.576 324.047Z" fill="#E9BF9B"/>
<path d="M265.822 477.984C263.586 480.741 262.581 486.323 263.985 487.987C264.255 488.342 264.604 488.631 265.004 488.829C265.403 489.028 265.844 489.131 266.29 489.131C266.737 489.131 267.177 489.028 267.577 488.829C267.977 488.631 268.326 488.342 268.596 487.987C269.297 487.158 269.672 486.102 269.65 485.017C269.627 483.932 269.209 482.892 268.475 482.093C267.516 480.773 266.63 479.402 265.822 477.984Z" fill="#FFC62F"/>
<path d="M299.002 366.9C297.806 368.807 295.899 371.771 294.773 373.279C291.306 378.064 282.551 397.011 278.824 411.867C279.934 412.561 280.956 413.202 281.806 413.792C284.669 415.718 287.308 417.956 289.676 420.466C291.41 417.311 294.877 414.104 296.333 411.573C301.533 402.298 305.364 391.343 304.082 381.357C303.301 376.265 301.579 371.362 299.002 366.9Z" fill="#FFC62F"/>
<path d="M271.665 469.299C269.874 468.094 268.238 466.673 266.793 465.069C262.824 471.865 264.748 473.442 270.26 477.499C271.307 478.173 272.144 479.126 272.68 480.249C273.216 481.373 273.428 482.623 273.294 483.861C273.294 483.861 278.408 481.26 278.061 477.967C277.767 475.852 274.629 471.31 271.665 469.299Z" fill="#FFC62F"/>
<path d="M284.961 436.779C282.061 442.303 279.586 448.04 277.559 453.94L278.408 454.46C280.974 456.597 283.247 459.063 285.169 461.793C290.114 456.094 293.985 449.545 296.593 442.464C299.904 432.202 295.951 419.929 295.951 419.929C291.976 425.336 288.306 430.961 284.961 436.779Z" fill="#FFC62F"/>
<path d="M274.403 456.887C272.032 455.79 269.918 454.207 268.197 452.241C267.484 453.275 266.982 454.44 266.72 455.669C266.458 456.897 266.442 458.166 266.672 459.401C267.573 463.284 271.179 464.965 275.01 466.907C277.354 468.21 279.188 470.269 280.211 472.749C281.573 471.982 282.594 470.729 283.07 469.24C283.546 467.751 283.441 466.137 282.776 464.723C280.966 461.228 278.01 458.462 274.403 456.887Z" fill="#FFC62F"/>
<path d="M406.758 193.288C394.686 191.272 382.471 190.234 370.232 190.185C357.067 190.294 343.916 191.069 330.83 192.507C330.83 216.499 310.166 233.609 290.958 233.904C261.922 234.337 251.226 210.935 251.001 209.635C248.938 209.028 246.719 208.421 244.431 207.815C240.582 208.283 236.457 208.872 232.123 209.635C224.131 211.056 215.862 213.102 209.136 214.835C208.807 218.302 208.304 224.092 208.269 224.578C207.316 244.773 208.599 243.369 208.599 243.369C214.441 241.081 236.04 235.534 236.04 235.534C242.368 234.06 249.909 232.483 258.68 230.853C262.195 237.982 267.868 243.822 274.892 247.542C281.917 251.261 289.935 252.671 297.807 251.571C305.679 250.471 313.004 246.916 318.739 241.414C324.475 235.911 328.33 228.74 329.755 220.92C370.302 216.517 389.457 216.395 414.489 219.724C412.706 210.699 410.119 201.851 406.758 193.288Z" fill="#4F2683"/>
<path d="M403.985 240.232C399.63 238.812 394.997 238.467 390.48 239.226C382.836 240.474 379.837 241.983 374.705 242.607V242.693C378.987 244.097 385.991 243.993 390.151 244.721C392.207 245.204 394.15 246.081 395.872 247.304L393.722 256.908C386.661 260.575 380.388 265.593 375.26 271.678C374.798 272.229 374.369 272.808 373.977 273.411C373.784 273.676 373.61 273.954 373.457 274.243C373.238 274.602 373.03 274.966 372.833 275.335C372.591 275.769 372.365 276.22 372.14 276.688C371.914 277.156 371.706 277.589 371.516 278.04C370.736 279.808 370.059 281.62 369.488 283.466C369.488 283.656 369.366 283.847 369.314 284.02C368.933 285.286 368.655 286.326 368.482 287.037C368.476 287.129 368.476 287.222 368.482 287.314V287.522C368.482 287.661 368.482 287.782 368.482 287.851C368.475 287.88 368.475 287.91 368.482 287.938C368.586 287.765 369.123 286.794 370.025 285.39L370.684 284.384C372.871 281.046 375.386 277.933 378.19 275.093C378.623 274.659 379.074 274.226 379.525 273.827C380.422 273.022 381.365 272.269 382.35 271.574C389.388 266.685 393.115 264.796 395.248 262.802C395.612 262.413 395.937 261.989 396.218 261.537C398.073 259.283 398.905 251.135 399.061 249.506C399.061 249.333 399.061 249.211 399.061 249.211C399.061 248.917 399.061 248.674 399.061 248.518V248.345C398.192 246.196 396.968 244.209 395.438 242.468C398.105 241.148 401.013 240.387 403.985 240.232ZM403.985 240.232C399.63 238.812 394.997 238.467 390.48 239.226C382.836 240.474 379.837 241.983 374.705 242.607V242.693C378.987 244.097 385.991 243.993 390.151 244.721C392.207 245.204 394.15 246.081 395.872 247.304L393.722 256.908C386.661 260.575 380.388 265.593 375.26 271.678C374.798 272.229 374.369 272.808 373.977 273.411C373.784 273.676 373.61 273.954 373.457 274.243C373.238 274.602 373.03 274.966 372.833 275.335C372.591 275.769 372.365 276.22 372.14 276.688C371.914 277.156 371.706 277.589 371.516 278.04C370.736 279.808 370.059 281.62 369.488 283.466C369.488 283.656 369.366 283.847 369.314 284.02C368.933 285.286 368.655 286.326 368.482 287.037C368.476 287.129 368.476 287.222 368.482 287.314V287.522C368.482 287.661 368.482 287.782 368.482 287.851C368.475 287.88 368.475 287.91 368.482 287.938C368.586 287.765 369.123 286.794 370.025 285.39L370.684 284.384C372.871 281.046 375.386 277.933 378.19 275.093C378.623 274.659 379.074 274.226 379.525 273.827C380.422 273.022 381.365 272.269 382.35 271.574C389.388 266.685 393.115 264.796 395.248 262.802C395.612 262.413 395.937 261.989 396.218 261.537C398.073 259.283 398.905 251.135 399.061 249.506C399.061 249.333 399.061 249.211 399.061 249.211C399.061 248.917 399.061 248.674 399.061 248.518V248.345C398.192 246.196 396.968 244.209 395.438 242.468C398.105 241.148 401.013 240.387 403.985 240.232ZM403.985 240.232C399.63 238.812 394.997 238.467 390.48 239.226C382.836 240.474 379.837 241.983 374.705 242.607V242.693C378.987 244.097 385.991 243.993 390.151 244.721C392.207 245.204 394.15 246.081 395.872 247.304L393.722 256.908C386.661 260.575 380.388 265.593 375.26 271.678C374.798 272.229 374.369 272.808 373.977 273.411C373.784 273.676 373.61 273.954 373.457 274.243C373.238 274.602 373.03 274.966 372.833 275.335C372.591 275.769 372.365 276.22 372.14 276.688C371.914 277.156 371.706 277.589 371.516 278.04C370.736 279.808 370.059 281.62 369.488 283.466C369.488 283.656 369.366 283.847 369.314 284.02C368.933 285.286 368.655 286.326 368.482 287.037C368.476 287.129 368.476 287.222 368.482 287.314V287.522C368.482 287.661 368.482 287.782 368.482 287.851C368.475 287.88 368.475 287.91 368.482 287.938C368.586 287.765 369.123 286.794 370.025 285.39L370.684 284.384C372.871 281.046 375.386 277.933 378.19 275.093C378.623 274.659 379.074 274.226 379.525 273.827C380.422 273.022 381.365 272.269 382.35 271.574C389.388 266.685 393.115 264.796 395.248 262.802C395.612 262.413 395.937 261.989 396.218 261.537C398.073 259.283 398.905 251.135 399.061 249.506C399.061 249.333 399.061 249.211 399.061 249.211C399.061 248.917 399.061 248.674 399.061 248.518V248.345C398.192 246.196 396.968 244.209 395.438 242.468C398.105 241.148 401.013 240.387 403.985 240.232ZM403.985 240.232C399.63 238.812 394.997 238.467 390.48 239.226C382.836 240.474 379.837 241.983 374.705 242.607V242.693C378.987 244.097 385.991 243.993 390.151 244.721C392.207 245.204 394.15 246.081 395.872 247.304L393.722 256.908C386.661 260.575 380.388 265.593 375.26 271.678C374.798 272.229 374.369 272.808 373.977 273.411C373.784 273.676 373.61 273.954 373.457 274.243C373.238 274.602 373.03 274.966 372.833 275.335C372.591 275.769 372.365 276.22 372.14 276.688C371.914 277.156 371.706 277.589 371.516 278.04C370.736 279.808 370.059 281.62 369.488 283.466C369.488 283.656 369.366 283.847 369.314 284.02C368.933 285.286 368.655 286.326 368.482 287.037C368.476 287.129 368.476 287.222 368.482 287.314V287.522C368.482 287.661 368.482 287.782 368.482 287.851C368.475 287.88 368.475 287.91 368.482 287.938C368.586 287.765 369.123 286.794 370.025 285.39L370.684 284.384C372.871 281.046 375.386 277.933 378.19 275.093C378.623 274.659 379.074 274.226 379.525 273.827C380.422 273.022 381.365 272.269 382.35 271.574C389.388 266.685 393.115 264.796 395.248 262.802C395.612 262.413 395.937 261.989 396.218 261.537C398.073 259.283 398.905 251.135 399.061 249.506C399.061 249.333 399.061 249.211 399.061 249.211C399.061 248.917 399.061 248.674 399.061 248.518V248.345C398.192 246.196 396.968 244.209 395.438 242.468C398.105 241.148 401.013 240.387 403.985 240.232ZM403.985 240.232C399.63 238.812 394.997 238.467 390.48 239.226C382.836 240.474 379.837 241.983 374.705 242.607V242.693C378.987 244.097 385.991 243.993 390.151 244.721C392.207 245.204 394.15 246.081 395.872 247.304L393.722 256.908C386.661 260.575 380.388 265.593 375.26 271.678C374.798 272.229 374.369 272.808 373.977 273.411C373.784 273.676 373.61 273.954 373.457 274.243C373.238 274.602 373.03 274.966 372.833 275.335C372.591 275.769 372.365 276.22 372.14 276.688C371.914 277.156 371.706 277.589 371.516 278.04C370.736 279.808 370.059 281.62 369.488 283.466C369.488 283.656 369.366 283.847 369.314 284.02C368.933 285.286 368.655 286.326 368.482 287.037C368.476 287.129 368.476 287.222 368.482 287.314V287.522C368.482 287.661 368.482 287.782 368.482 287.851C368.475 287.88 368.475 287.91 368.482 287.938C368.586 287.765 369.123 286.794 370.025 285.39L370.684 284.384C372.871 281.046 375.386 277.933 378.19 275.093C378.623 274.659 379.074 274.226 379.525 273.827C380.422 273.022 381.365 272.269 382.35 271.574C389.388 266.685 393.115 264.796 395.248 262.802C395.612 262.413 395.937 261.989 396.218 261.537C398.073 259.283 398.905 251.135 399.061 249.506C399.061 249.333 399.061 249.211 399.061 249.211C399.061 248.917 399.061 248.674 399.061 248.518V248.345C398.192 246.196 396.968 244.209 395.438 242.468C398.105 241.148 401.013 240.387 403.985 240.232ZM403.985 240.232C399.63 238.812 394.997 238.467 390.48 239.226C382.836 240.474 379.837 241.983 374.705 242.607V242.693C378.987 244.097 385.991 243.993 390.151 244.721C392.207 245.204 394.15 246.081 395.872 247.304L393.722 256.908C386.661 260.575 380.388 265.593 375.26 271.678C374.798 272.229 374.369 272.808 373.977 273.411C373.784 273.676 373.61 273.954 373.457 274.243C373.238 274.602 373.03 274.966 372.833 275.335C372.591 275.769 372.365 276.22 372.14 276.688C371.914 277.156 371.706 277.589 371.516 278.04C370.736 279.808 370.059 281.62 369.488 283.466C369.488 283.656 369.366 283.847 369.314 284.02C368.933 285.286 368.655 286.326 368.482 287.037C368.476 287.129 368.476 287.222 368.482 287.314V287.522C368.482 287.661 368.482 287.782 368.482 287.851C368.475 287.88 368.475 287.91 368.482 287.938C368.586 287.765 369.123 286.794 370.025 285.39L370.684 284.384C372.871 281.046 375.386 277.933 378.19 275.093C378.623 274.659 379.074 274.226 379.525 273.827C380.422 273.022 381.365 272.269 382.35 271.574C389.388 266.685 393.115 264.796 395.248 262.802C395.612 262.413 395.937 261.989 396.218 261.537C398.073 259.283 398.905 251.135 399.061 249.506C399.061 249.333 399.061 249.211 399.061 249.211C399.061 248.917 399.061 248.674 399.061 248.518V248.345C398.192 246.196 396.968 244.209 395.438 242.468C398.105 241.148 401.013 240.387 403.985 240.232ZM445.26 329.837C444.838 327.958 443.976 326.205 442.743 324.725C441.51 323.245 439.942 322.08 438.17 321.326C436.037 320.858 430.594 319.436 430.594 319.436C432.879 313.527 434.236 307.299 434.616 300.974C438.17 299.085 445.26 296.242 445.26 296.242C443.45 288.063 439.718 280.433 434.373 273.983C435.361 271.126 436.137 268.2 436.696 265.229C436.696 263.496 433.611 260.739 430.299 258.607C426.988 256.475 426.52 252.696 426.52 248.206C426.52 243.716 424.631 238.03 423.92 237.805C423.209 237.579 432.362 234.684 435.205 226.623C436.896 221.936 437.878 217.022 438.118 212.045C434.339 217.557 419.534 219.828 419.534 219.828C418.356 207.277 408.284 166.8 367.529 130.118C326.773 93.4369 257.467 86.7802 257.467 86.7802C257.534 89.1843 257.278 91.5865 256.705 93.9223C256.162 97.6787 255.039 101.328 253.376 104.739L252.995 105.398C243.426 100.198 233.371 93.2635 228.725 85.0987C219.798 69.3236 220.907 55.7501 216.175 44.6209C211.256 32.7173 203.671 22.1014 194.003 13.5908C192.096 11.8573 191.455 11.3719 190.536 12.1694C189.617 12.9668 190.207 14.0762 191.004 15.255C196.276 25.518 199.764 36.6031 201.318 48.036C203.919 66.2553 200.469 95.0144 208.998 113.476C213.871 123.324 220.654 132.104 228.951 139.306L229.558 139.843L231.464 141.733C219.33 142.877 207.975 142.444 195.945 135.683C176.598 125.94 161.759 103.283 159.038 79.3087L158.708 76.431C157.946 69.861 158.258 63.291 157.963 56.7036C157.701 50.7212 157.046 44.7624 156.004 38.8656C155.553 36.2653 155.016 33.6651 154.392 31.1341C154.384 31.1058 154.384 31.0757 154.392 31.0474C154.099 29.4825 153.711 27.9368 153.231 26.4189C152.936 25.4135 152.606 24.408 152.277 23.3853C151.517 21.1345 150.506 18.977 149.261 16.9539C147.748 14.4851 146.007 12.1636 144.06 10.0198C142.917 8.73052 141.638 7.56813 140.246 6.55274C140.246 6.55274 138.946 5.73799 138.062 6.20605C138.062 6.20605 136.901 7.02079 138.062 9.55173C138.32 9.99156 138.546 10.4492 138.738 10.9212C138.983 11.487 139.198 12.0657 139.38 12.6548C139.58 13.3199 139.736 13.9974 139.848 14.683C140.819 19.8835 141.581 31.0821 137.403 52.4564C137.039 55.5594 136.641 58.6624 136.103 61.7481C134.097 72.6945 132.886 83.7718 132.48 94.8931C132.48 95.4131 132.48 96.9386 132.48 97.2507C132.359 107.652 134.37 176.49 205.462 198.142C205.132 199.615 204.82 201.037 204.595 202.406C199.793 232.725 201.561 245.502 201.561 245.502C201.561 245.502 201.561 245.623 201.561 245.814C184.872 252.112 168.711 259.729 153.231 268.592C131.004 280.782 110.482 295.849 92.1932 313.404C88.3274 317.131 84.7044 320.788 81.272 324.429L78.7757 327.064C78.7331 327.129 78.6805 327.188 78.6197 327.237C69.5018 336.988 61.1394 347.42 53.605 358.441C85.8485 335.437 136.034 328.503 151.376 327.532C167.463 326.596 183.758 323.839 183.758 323.839C188.186 326.088 192.873 327.788 197.713 328.901C203.577 329.953 209.603 329.669 215.343 328.069C217.861 339.735 224.207 350.224 233.371 357.868C232.574 362.878 233.371 379.416 239.023 388.604C243.283 395.1 248.743 400.724 255.11 405.176C255.11 405.176 254.416 414.139 256.843 420.553C258.735 425.056 261.385 429.202 264.679 432.809C263.075 435.727 262.111 438.954 261.853 442.274C261.725 443.762 261.911 445.261 262.398 446.673C262.884 448.085 263.661 449.38 264.679 450.473C263.153 452.416 262.017 454.635 261.333 457.009C261.242 459.472 261.685 461.927 262.633 464.203C261.668 465.967 260.917 467.841 260.397 469.785C260.197 471.651 260.521 473.536 261.333 475.228C260.172 477.499 256.722 488.16 261.801 492.442C266.88 496.724 273.173 488.732 273.173 488.732C276.124 487.6 278.675 485.622 280.506 483.046C281.767 481.139 282.502 478.932 282.638 476.65C284.801 474.987 286.542 472.837 287.717 470.374C288.851 468.553 289.451 466.452 289.451 464.307C289.451 464.307 300.459 452.744 302.747 438.304C303.872 430.425 303.555 422.407 301.811 414.641C301.811 414.641 310.08 402.056 309.698 387.668C320.93 379.893 333.01 373.42 345.704 368.374C346.189 378.081 347.714 386.489 344.681 402.091C340.884 421.506 323.601 435.704 323.601 435.704C347.749 433.103 363.854 411.798 370.233 396.405C375.434 383.854 380.201 366.103 382.368 358.059C405.926 353.483 427.439 352.269 434.581 351.125C444.046 349.704 446.421 347.658 446.716 344.035C446.668 339.268 446.181 334.515 445.26 329.837ZM426.59 261.433C428.566 262.958 430.542 263.27 431.79 264.172C433.038 265.073 433.004 267.829 432.397 270.1C431.79 272.371 430.109 272.683 428.289 272.232C421.588 271.103 414.743 271.15 408.058 272.371C407.538 270.638 406.654 266.512 408.578 264.484C411.075 261.883 415.877 262.109 417.783 262.473C415.438 261.388 412.909 260.753 410.329 260.6C408.743 260.62 407.197 261.105 405.884 261.996C404.571 262.887 403.549 264.144 402.944 265.61C402.199 267.569 402.84 271.591 403.222 273.533C392.734 276.618 377.704 284.818 365.379 300.645C352.014 317.807 348.997 339.233 348.997 339.233C348.997 339.233 334.886 342.007 327.588 331.172C317.794 316.628 321.486 299.57 321.486 299.57C321.486 299.57 315.679 302.309 311.085 301.113C309.586 300.695 308.307 299.713 307.514 298.374C315.159 291.596 323.272 285.234 331.333 276.012C335.493 276.93 339.238 277.936 341.283 278.577C345.79 279.947 350.488 283.778 351.684 287.886C352.88 291.995 353.608 305.967 353.608 305.967C355.201 300.299 356.263 294.496 356.781 288.632C357.027 285.969 356.679 283.284 355.762 280.772C354.844 278.26 353.381 275.982 351.476 274.105C348.616 271.504 340.555 269.095 337.348 267.327C349.569 250.494 352.95 224.699 352.95 224.699C352.95 224.699 352.95 224.214 352.95 223.971C353.668 223.975 354.38 223.839 355.047 223.572C357.301 223.451 365.292 222.463 367.511 222.428C367.511 222.428 364.166 232.292 367.061 239.59C372.51 236.354 378.821 234.872 385.141 235.343C395.768 236.106 412.791 241.272 420.089 238.377C420.089 238.377 423.279 245.675 423.123 250.997C422.967 256.319 424.562 259.924 426.59 261.433ZM422.447 222.758C426.037 222.043 429.553 220.998 432.952 219.637C432.952 219.637 431.218 232.899 417.177 233.887C403.135 234.875 401.298 231.512 390.775 230.143C393.523 228.686 396.483 227.674 399.547 227.144C399.547 227.144 389.77 225.757 382.385 227.629C375 229.501 371.984 232.639 371.984 232.639C371.984 232.639 371.117 225.133 374.861 222.636C378.606 220.14 391.763 221.128 396.132 221.631C400.5 222.134 415.183 224.491 422.447 222.758ZM414.455 219.585C389.423 216.257 370.268 216.378 329.72 220.781C328.295 228.601 324.441 235.772 318.705 241.275C312.969 246.778 305.645 250.332 297.773 251.432C289.901 252.533 281.882 251.123 274.858 247.403C267.833 243.684 262.16 237.844 258.646 230.715C249.857 232.344 242.334 233.922 236.006 235.395C236.006 235.395 214.407 240.942 208.565 243.231C208.565 243.231 207.282 244.635 208.235 224.439C208.235 223.954 208.773 218.233 209.102 214.697C215.828 212.963 224.097 210.97 232.088 209.496C236.422 208.734 240.548 208.144 244.396 207.676C246.685 208.283 248.904 208.89 250.967 209.496C251.192 210.883 261.888 234.286 290.924 233.766C310.149 233.471 330.795 216.43 330.795 192.369C343.882 190.931 357.033 190.155 370.198 190.046C382.452 190.14 394.679 191.224 406.758 193.288C410.103 201.825 412.678 210.643 414.455 219.637V219.585ZM209.899 209.271C210.177 206.723 210.523 204.174 210.922 201.661C211.061 200.967 211.2 200.257 211.356 199.563C214.164 200.239 217.024 200.898 219.884 201.557C222.45 202.163 225.085 202.77 227.581 203.412L231.378 204.365L231.742 204.452H231.222C223.872 205.873 216.279 207.659 209.865 209.323L209.899 209.271ZM258.282 107.981C260.473 103.5 261.925 98.6939 262.581 93.7489C297.373 95.3611 339.064 110.616 372.781 142.582C386.012 155.436 396.61 170.746 403.985 187.654C392.828 185.978 381.566 185.097 370.285 185.019C357.039 185.148 343.81 185.998 330.657 187.567C330.657 186.995 330.518 186.423 330.431 185.834C330.431 185.66 330.431 185.504 330.431 185.331C330.431 184.88 330.275 184.447 330.189 183.996C328.108 168.013 316.32 152.793 301.273 146.379C292.182 142.448 282.53 139.968 272.67 139.029C265.94 138.341 259.154 138.411 252.44 139.237C249.077 139.583 245.835 140.017 242.646 140.415C240.323 140.71 238.052 141.005 235.798 141.265C235.798 141.265 236.942 139.826 237.133 139.531C243.166 130.413 249.718 121.364 252.995 116.995C255.033 114.186 256.792 111.184 258.247 108.033L258.282 107.981ZM214.077 107.981C207.143 89.4845 209.431 71.8372 208.218 61.9561C207.854 59.1132 207.403 55.6461 206.848 51.9364C208.656 57.5267 210.035 63.2465 210.974 69.0462C210.731 61.8303 209.972 54.6409 208.703 47.5332C208.963 48.296 213.297 60.552 214.181 67.6594C214.558 62.7724 214.558 57.8636 214.181 52.9765C215.095 56.0002 215.836 59.0735 216.4 62.1815C220.006 82.2037 225.934 96.1932 249.788 110.911C245.541 117.412 239.283 126.27 234.411 133.152C228.413 128.766 218.567 119.994 214.042 108.016L214.077 107.981ZM145.759 137.139C140.857 124.418 138.348 110.901 138.357 97.268C138.357 96.6786 138.357 95.5345 138.357 95.2051C138.632 83.7494 139.791 72.332 141.824 61.0547C141.824 60.708 141.945 60.344 141.997 59.9973V61.8695C141.997 70.9878 142.569 79.014 142.795 81.5103C142.795 81.5103 142.795 81.6663 142.795 81.753C142.795 82.117 143.072 79.8808 143.245 78.754C143.852 74.6975 144.546 70.6584 144.979 66.6193C145.412 62.5802 146.314 57.6917 146.487 53.6006C146.487 52.023 146.626 50.4455 146.574 48.8854C147.042 49.1454 147.215 50.6189 147.319 51.1043C147.666 52.8378 148.446 66.1686 148.671 70.7451C148.775 72.5653 148.81 74.3855 148.827 76.223C148.796 77.1085 148.831 77.9951 148.931 78.8753C148.968 79.1324 149.02 79.3871 149.087 79.6381C149.087 79.6381 149.798 73.6227 150.301 70.4331C150.888 67.705 151.253 64.9339 151.393 62.1468C151.376 61.8871 151.376 61.6265 151.393 61.3667C151.393 60.9507 152.069 62.7189 152.364 65.9779C152.572 69.6703 152.728 73.4841 153.161 77.0898L153.491 79.9501C156.472 106.109 172.143 129.945 193.362 140.623C210.454 150.21 226.403 148.164 243.304 145.997C246.442 145.599 249.666 145.183 252.96 144.836C268.918 142.92 285.096 145.377 299.765 151.943C306.139 154.923 311.703 159.393 315.987 164.974C320.271 170.556 323.15 177.086 324.381 184.013V184.378C324.926 186.883 325.199 189.441 325.196 192.005V192.092C325.109 191.589 325.057 191.121 324.953 190.601C324.89 194.856 324.044 199.064 322.457 203.013C323.855 198.547 324.035 193.79 322.977 189.231C322.911 194.028 321.824 198.756 319.787 203.1C321.615 197.213 321.668 190.917 319.938 185.001C318.208 179.084 314.773 173.809 310.062 169.833C314.934 175.034 317.308 183.32 318.002 191.069C319.631 209.184 305.139 221.059 289.607 223.746L289.277 223.832C293.175 224.479 297.168 224.242 300.961 223.139C303.883 222.951 306.742 222.21 309.386 220.955C310.833 220.251 312.219 219.427 313.529 218.493C309.703 222.046 305.15 224.727 300.187 226.349C295.223 227.972 289.967 228.498 284.78 227.891C279.594 227.285 274.601 225.56 270.145 222.836C265.69 220.112 261.879 216.454 258.975 212.114C268.007 213.241 276.848 215.026 276.848 215.026C268.701 208.751 255.214 204.798 255.214 204.798C243.079 201.106 225.484 197.864 209.917 193.392C178.401 184.707 156.871 165.742 145.724 137.174L145.759 137.139ZM103.461 328.953C94.2907 331.779 82.6588 336.65 77.3196 338.99C89.8703 325.122 115.301 300.454 136.034 286.517C198.631 244.444 250.447 237.649 254.26 236.869L255.387 237.857C255.907 238.671 256.462 239.434 257.017 240.197C230.806 247.356 174.952 271.002 142.292 293.936C128.129 303.783 112.787 319.367 103.426 328.988L103.461 328.953ZM215.863 322.799C212.012 324.179 207.957 324.9 203.867 324.932C197.262 324.932 189.322 320.771 189.322 320.771H189.86C203.728 317.304 216.227 302.326 216.227 302.326C214.805 307.371 215.828 322.834 215.828 322.834L215.863 322.799ZM220.127 319.922C219.659 307.44 220.665 296.242 223.005 288.233L221.739 289.758C194.87 322.089 164.238 319.904 136.19 322.799C132.047 323.215 116.462 326.37 112.354 327.254C122.356 316.559 139.64 300.853 150.925 293.156C172.057 278.733 208.287 263.686 210.541 262.767C193.448 272.232 179.649 287.47 179.649 287.47C190.051 280.536 225.276 260.063 227.46 258.798C217.44 268.349 189.322 293.191 172.49 304.285C193.864 294.196 211.962 281.125 221.705 271.903C233.839 260.393 252.197 249.281 260.484 244.999C264.915 249.168 270.066 252.499 275.687 254.828C261.628 264.726 252.249 270.43 248.228 283.76C255.247 275.202 263.757 267.984 273.346 262.455C276.411 260.775 279.385 258.935 282.257 256.943C286.911 257.824 291.631 258.311 296.367 258.399L297.234 258.018C296.662 258.451 295.241 259.266 294.651 259.751C266.36 280.553 240.461 285.979 238 328.121C238.364 325.746 242.594 300.073 263.379 286.759C275.721 278.855 297.858 268.332 312.697 253.198C324.052 247.998 331.211 239.105 334.904 226.745C334.943 226.62 334.972 226.493 334.99 226.363C338.665 225.999 342.323 225.531 346.154 225.185C345.62 230.882 344.415 236.497 342.566 241.913C339.317 251.847 334.197 261.067 327.484 269.077C313.304 286.413 296.281 297.23 278.391 320.424C267.744 334.192 260.359 350.195 256.791 367.23C252.925 339.181 265.823 321.066 266.534 320.095C264.384 321.829 255.595 332.23 252.353 344.988C249.389 356.655 249.892 359.966 250.082 363.277C242.022 357.608 221.063 346.965 220.092 319.956L220.127 319.922ZM302.539 342.7C299.748 357.522 292.658 362.584 285.446 376.799C284.216 379.26 283.037 381.86 281.979 384.478C277.489 380.907 269.325 375.81 262.581 371.633C262.876 366.137 264.852 355.806 270.503 342.96C276.831 328.589 293.039 310.925 293.039 310.925C297.036 315.09 299.98 320.15 301.626 325.683C303.272 331.216 303.573 337.062 302.504 342.735L302.539 342.7ZM245.073 387.633C238.138 376.712 238.138 362.393 238.138 362.393C241.605 365.461 250.516 370.437 258.663 374.961C266.021 379.443 273.122 384.334 279.934 389.609C276.813 398 274.733 405.766 273.849 408.782C264.54 403.252 250.273 395.815 245.038 387.668L245.073 387.633ZM261.61 408.938C267.175 412.145 273.572 415.317 277.212 417.606C280.68 419.736 283.982 422.124 287.093 424.748C283.175 431.682 279.622 437.94 279.622 437.94C274.319 434.921 269.739 430.779 266.204 425.805C263.053 420.755 261.455 414.889 261.61 408.938ZM277.732 441.372C277.732 441.372 275.652 447.058 274.022 452.19C272.611 451.599 271.34 450.715 270.294 449.598C269.248 448.48 268.451 447.154 267.955 445.706C266.222 440.124 268.787 437.992 270.209 436.154C272.54 438.168 275.086 439.917 277.801 441.372H277.732ZM268.544 487.987C268.274 488.342 267.926 488.631 267.526 488.829C267.126 489.028 266.685 489.131 266.239 489.131C265.792 489.131 265.352 489.028 264.952 488.829C264.552 488.631 264.203 488.342 263.933 487.987C262.529 486.253 263.535 480.741 265.771 477.984C266.576 479.425 267.462 480.82 268.423 482.162C269.139 482.957 269.545 483.982 269.568 485.052C269.59 486.121 269.227 487.163 268.544 487.987ZM273.173 483.792C273.292 482.592 273.086 481.383 272.577 480.291C272.068 479.199 271.273 478.265 270.278 477.586C264.835 473.529 262.911 471.952 266.811 465.156C268.256 466.76 269.891 468.181 271.682 469.386C274.646 471.397 277.784 475.887 278.009 478.054C278.339 481.261 273.225 483.861 273.225 483.861L273.173 483.792ZM280.246 472.68C279.223 470.2 277.39 468.141 275.045 466.838C271.214 464.896 267.608 463.215 266.707 459.332C266.477 458.097 266.493 456.828 266.755 455.6C267.017 454.371 267.519 453.206 268.232 452.172C269.953 454.138 272.067 455.721 274.438 456.818C278.078 458.376 281.066 461.144 282.898 464.654C283.581 466.08 283.692 467.713 283.208 469.219C282.725 470.724 281.683 471.987 280.298 472.749L280.246 472.68ZM296.541 442.395C293.933 449.476 290.062 456.025 285.117 461.724C283.195 458.993 280.922 456.528 278.356 454.391L277.507 453.871C279.535 447.971 282.009 442.233 284.909 436.709C288.255 430.892 291.924 425.266 295.899 419.859C295.899 419.859 299.904 432.202 296.593 442.464L296.541 442.395ZM296.281 411.573C294.894 414.104 291.392 417.311 289.624 420.466C287.256 417.956 284.617 415.718 281.754 413.792C280.904 413.203 279.882 412.561 278.772 411.868C282.499 397.011 291.202 378.064 294.721 373.279C295.847 371.771 297.754 368.807 298.95 366.9C301.527 371.362 303.25 376.265 304.03 381.358C305.365 391.343 301.481 402.299 296.281 411.573ZM345.86 362.029C343.485 362.809 341.387 363.572 339.723 364.283C329.148 368.703 309.456 379.139 309.456 379.139L308.78 379.538C307.767 372.561 306.024 365.711 303.579 359.099C303.579 359.099 310.634 340.724 307.999 329.439C304.532 314.6 298.846 306.712 298.846 306.712C299.471 306.036 300.095 305.412 300.719 304.788C301.931 306.309 303.449 307.558 305.175 308.454C306.902 309.35 308.797 309.873 310.738 309.989C310.738 309.989 314.205 324.81 319.267 332.23C324.329 339.649 331.107 345.959 341.994 345.959C343.571 345.959 345.461 345.959 347.472 345.872C346.674 351.228 346.153 356.62 345.912 362.029H345.86ZM376.214 352.772C370.233 391.221 359.225 405.974 359.225 405.974L360.369 402.073C364.998 381.271 364.252 371.546 367.997 346.514C371.741 321.482 382.766 306.21 382.766 306.21C369.002 315.848 361.583 336.459 358.982 366.415C356.209 398.398 348.703 410.394 348.235 411.105C353.019 394.619 350.973 376.296 351.702 364.04C352.43 351.784 352.984 335.09 359.866 319.315C366.749 303.54 382.732 288.32 399.512 280.675C416.293 273.03 429.762 276.757 429.762 276.757C438.586 285.043 439.14 293.763 439.14 293.763C428.42 296.942 418.244 301.729 408.96 307.96C392.821 318.587 382.558 343.966 382.558 343.966C386.701 315.813 404.799 296.138 404.799 296.138C391.278 304.025 381.431 319.107 376.214 352.772ZM429.398 346.965C427.023 347.294 412.358 347.762 394.52 350.432C391.295 350.917 387.776 351.541 384.118 352.252C384.996 349.696 386.159 347.248 387.586 344.954H387.742C400.83 344.954 421.892 345.63 427.266 345.786C432.64 345.942 437.563 345.543 437.563 345.543C436.02 346.757 431.773 346.601 429.398 346.913V346.965ZM435.708 342.128C433.576 342.007 427.404 341.972 417.887 340.828C408.37 339.684 391.382 339.268 391.382 339.268C399.495 316.732 427.786 304.597 427.786 304.597C428.289 311.098 423.417 322.99 423.417 322.99C426.832 322.786 430.256 323.167 433.541 324.117C437.303 325.625 439.435 326.994 440.805 334.761C442.174 342.527 437.84 342.197 435.708 342.076V342.128ZM390.48 239.226C382.836 240.474 379.837 241.983 374.705 242.607V242.693C378.987 244.097 385.991 243.993 390.151 244.721C392.207 245.204 394.15 246.081 395.872 247.304L393.722 256.908C386.661 260.575 380.388 265.593 375.26 271.678C374.798 272.229 374.369 272.808 373.977 273.411C373.784 273.676 373.61 273.954 373.457 274.243C373.238 274.602 373.03 274.966 372.833 275.335C372.591 275.769 372.365 276.22 372.14 276.688C371.914 277.156 371.706 277.589 371.516 278.04C370.736 279.808 370.059 281.62 369.488 283.466C369.488 283.656 369.366 283.847 369.314 284.02C368.933 285.286 368.655 286.326 368.482 287.037C368.476 287.129 368.476 287.222 368.482 287.314V287.522C368.482 287.661 368.482 287.782 368.482 287.851C368.475 287.88 368.475 287.91 368.482 287.938C368.586 287.765 369.123 286.794 370.025 285.39L370.684 284.384C372.871 281.046 375.386 277.933 378.19 275.093C378.623 274.659 379.074 274.226 379.525 273.827C380.422 273.022 381.365 272.269 382.35 271.574C389.388 266.685 393.115 264.796 395.248 262.802C395.612 262.413 395.937 261.989 396.218 261.537C398.073 259.283 398.905 251.135 399.061 249.506C399.061 249.333 399.061 249.211 399.061 249.211C399.061 248.917 399.061 248.674 399.061 248.518V248.345C398.192 246.196 396.968 244.209 395.438 242.468C398.167 241.114 401.149 240.346 404.193 240.214C399.772 238.766 395.063 238.427 390.48 239.226ZM403.985 240.232C399.63 238.812 394.997 238.467 390.48 239.226C382.836 240.474 379.837 241.983 374.705 242.607V242.693C378.987 244.097 385.991 243.993 390.151 244.721C392.207 245.204 394.15 246.081 395.872 247.304L393.722 256.908C386.661 260.575 380.388 265.593 375.26 271.678C374.798 272.229 374.369 272.808 373.977 273.411C373.784 273.676 373.61 273.954 373.457 274.243C373.238 274.602 373.03 274.966 372.833 275.335C372.591 275.769 372.365 276.22 372.14 276.688C371.914 277.156 371.706 277.589 371.516 278.04C370.736 279.808 370.059 281.62 369.488 283.466C369.488 283.656 369.366 283.847 369.314 284.02C368.933 285.286 368.655 286.326 368.482 287.037C368.476 287.129 368.476 287.222 368.482 287.314V287.522C368.482 287.661 368.482 287.782 368.482 287.851C368.475 287.88 368.475 287.91 368.482 287.938C368.586 287.765 369.123 286.794 370.025 285.39L370.684 284.384C372.871 281.046 375.386 277.933 378.19 275.093C378.623 274.659 379.074 274.226 379.525 273.827C380.422 273.022 381.365 272.269 382.35 271.574C389.388 266.685 393.115 264.796 395.248 262.802C395.612 262.413 395.937 261.989 396.218 261.537C398.073 259.283 398.905 251.135 399.061 249.506C399.061 249.333 399.061 249.211 399.061 249.211C399.061 248.917 399.061 248.674 399.061 248.518V248.345C398.192 246.196 396.968 244.209 395.438 242.468C398.105 241.148 401.013 240.387 403.985 240.232ZM403.985 240.232C399.63 238.812 394.997 238.467 390.48 239.226C382.836 240.474 379.837 241.983 374.705 242.607V242.693C378.987 244.097 385.991 243.993 390.151 244.721C392.207 245.204 394.15 246.081 395.872 247.304L393.722 256.908C386.661 260.575 380.388 265.593 375.26 271.678C374.798 272.229 374.369 272.808 373.977 273.411C373.784 273.676 373.61 273.954 373.457 274.243C373.238 274.602 373.03 274.966 372.833 275.335C372.591 275.769 372.365 276.22 372.14 276.688C371.914 277.156 371.706 277.589 371.516 278.04C370.736 279.808 370.059 281.62 369.488 283.466C369.488 283.656 369.366 283.847 369.314 284.02C368.933 285.286 368.655 286.326 368.482 287.037C368.476 287.129 368.476 287.222 368.482 287.314V287.522C368.482 287.661 368.482 287.782 368.482 287.851C368.475 287.88 368.475 287.91 368.482 287.938C368.586 287.765 369.123 286.794 370.025 285.39L370.684 284.384C372.871 281.046 375.386 277.933 378.19 275.093C378.623 274.659 379.074 274.226 379.525 273.827C380.422 273.022 381.365 272.269 382.35 271.574C389.388 266.685 393.115 264.796 395.248 262.802C395.612 262.413 395.937 261.989 396.218 261.537C398.073 259.283 398.905 251.135 399.061 249.506C399.061 249.333 399.061 249.211 399.061 249.211C399.061 248.917 399.061 248.674 399.061 248.518V248.345C398.192 246.196 396.968 244.209 395.438 242.468C398.105 241.148 401.013 240.387 403.985 240.232ZM403.985 240.232C399.63 238.812 394.997 238.467 390.48 239.226C382.836 240.474 379.837 241.983 374.705 242.607V242.693C378.987 244.097 385.991 243.993 390.151 244.721C392.207 245.204 394.15 246.081 395.872 247.304L393.722 256.908C386.661 260.575 380.388 265.593 375.26 271.678C374.798 272.229 374.369 272.808 373.977 273.411C373.784 273.676 373.61 273.954 373.457 274.243C373.238 274.602 373.03 274.966 372.833 275.335C372.591 275.769 372.365 276.22 372.14 276.688C371.914 277.156 371.706 277.589 371.516 278.04C370.736 279.808 370.059 281.62 369.488 283.466C369.488 283.656 369.366 283.847 369.314 284.02C368.933 285.286 368.655 286.326 368.482 287.037C368.476 287.129 368.476 287.222 368.482 287.314V287.522C368.482 287.661 368.482 287.782 368.482 287.851C368.475 287.88 368.475 287.91 368.482 287.938C368.586 287.765 369.123 286.794 370.025 285.39L370.684 284.384C372.871 281.046 375.386 277.933 378.19 275.093C378.623 274.659 379.074 274.226 379.525 273.827C380.422 273.022 381.365 272.269 382.35 271.574C389.388 266.685 393.115 264.796 395.248 262.802C395.612 262.413 395.937 261.989 396.218 261.537C398.073 259.283 398.905 251.135 399.061 249.506C399.061 249.333 399.061 249.211 399.061 249.211C399.061 248.917 399.061 248.674 399.061 248.518V248.345C398.192 246.196 396.968 244.209 395.438 242.468C398.105 241.148 401.013 240.387 403.985 240.232ZM403.985 240.232C399.63 238.812 394.997 238.467 390.48 239.226C382.836 240.474 379.837 241.983 374.705 242.607V242.693C378.987 244.097 385.991 243.993 390.151 244.721C392.207 245.204 394.15 246.081 395.872 247.304L393.722 256.908C386.661 260.575 380.388 265.593 375.26 271.678C374.798 272.229 374.369 272.808 373.977 273.411C373.784 273.676 373.61 273.954 373.457 274.243C373.238 274.602 373.03 274.966 372.833 275.335C372.591 275.769 372.365 276.22 372.14 276.688C371.914 277.156 371.706 277.589 371.516 278.04C370.736 279.808 370.059 281.62 369.488 283.466C369.488 283.656 369.366 283.847 369.314 284.02C368.933 285.286 368.655 286.326 368.482 287.037C368.476 287.129 368.476 287.222 368.482 287.314V287.522C368.482 287.661 368.482 287.782 368.482 287.851C368.475 287.88 368.475 287.91 368.482 287.938C368.586 287.765 369.123 286.794 370.025 285.39L370.684 284.384C372.871 281.046 375.386 277.933 378.19 275.093C378.623 274.659 379.074 274.226 379.525 273.827C380.422 273.022 381.365 272.269 382.35 271.574C389.388 266.685 393.115 264.796 395.248 262.802C395.612 262.413 395.937 261.989 396.218 261.537C398.073 259.283 398.905 251.135 399.061 249.506C399.061 249.333 399.061 249.211 399.061 249.211C399.061 248.917 399.061 248.674 399.061 248.518V248.345C398.192 246.196 396.968 244.209 395.438 242.468C398.105 241.148 401.013 240.387 403.985 240.232Z" fill="black"/>
<path d="M451.223 329.005C450.131 322.4 444.15 316.628 439.487 315.588L438.256 315.31C439.213 311.936 439.914 308.493 440.354 305.013C443.041 303.782 446.178 302.5 447.531 301.962L452.124 300.107L451.206 295.254C449.475 287.146 446.016 279.506 441.065 272.856C441.995 270.443 442.579 267.91 442.798 265.333C442.798 261.484 439.712 257.549 433.645 253.649C433.16 253.337 432.605 252.453 432.605 248.275C432.519 245.586 432.153 242.914 431.513 240.301C435.826 237.534 439.137 233.457 440.961 228.669C442.533 224.184 443.569 219.529 444.046 214.801C444.139 212.976 444.139 211.148 444.046 209.323L443.422 201.869C443.422 201.869 439.678 204.85 437.598 206.445C437.043 206.861 436.627 207.173 436.401 207.312C436.1 207.536 435.788 207.744 435.465 207.936C433.94 208.855 432.241 209.583 431.513 209.964C429.332 211.059 427.043 211.925 424.683 212.547C420.678 192.334 406.325 156.884 371.62 125.68C329.876 88.0628 260.934 81.0941 258.022 80.7994L251.556 80.1926C251.534 84.352 251.285 88.5071 250.81 92.6393V92.9514C250.585 94.2862 250.325 95.5517 250.013 96.7305C242.16 91.8246 236.682 86.8494 234.03 82.1515C229.124 73.4839 227.529 65.527 226.004 57.8822C225.139 52.549 223.721 47.3202 221.774 42.2805C216.455 29.5376 208.296 18.1775 197.921 9.0662C196.066 7.47135 194.176 5.80719 191.264 5.80719C189.561 5.82943 187.919 6.44217 186.618 7.54071C185.37 8.56349 181.626 12.3426 185.803 18.5312C190.592 28.0872 193.778 38.3653 195.234 48.9546C196.02 55.8611 196.425 62.8057 196.447 69.7569C196.829 85.2719 197.279 102.832 203.381 116.146C206.025 121.719 209.324 126.957 213.21 131.748C213.574 132.198 214.944 133.654 215.204 133.949C215.828 134.677 216.469 135.405 217.093 136.099C210.696 135.618 204.485 133.724 198.909 130.551L198.666 130.413C181.053 121.537 167.463 100.77 165.036 78.7192L164.706 75.8415C164.308 71.844 164.122 67.8281 164.152 63.8109C164.152 61.4359 164.152 58.9917 163.996 56.5301C163.717 50.2921 163.034 44.0788 161.95 37.9294C161.499 35.3291 160.945 32.7288 160.338 30.1458V29.9552C160.013 28.2264 159.585 26.5187 159.055 24.8413C158.743 23.7491 158.396 22.6744 158.032 21.5996C157.139 18.9035 155.935 16.3205 154.444 13.9027C152.748 11.0767 150.78 8.42337 148.567 5.98053C147.14 4.39467 145.547 2.96515 143.817 1.71608L143.575 1.56004C142.142 0.634276 140.478 0.129717 138.773 0.103885C137.566 0.0917759 136.375 0.377581 135.306 0.935969L134.63 1.35202C131.977 3.22423 130.383 7.33269 132.775 12.2559L133 12.6719C133 12.7586 133.174 13.0013 133.33 13.348C133.486 13.6947 133.607 14.0761 133.746 14.5095C133.88 14.9702 133.984 15.4393 134.058 15.9136C134.855 20.1954 135.601 30.4059 131.717 50.8961L131.509 51.9536C131.076 55.594 130.695 58.3503 130.261 60.9159C128.201 72.154 126.962 83.527 126.551 94.9449C126.551 95.3263 126.551 96.1237 126.551 96.7825V97.3719C126.551 105.658 127.73 177.478 198.614 202.389L198.389 202.475C195.164 223.122 194.922 235.846 195.147 242.052C179.66 248.133 164.637 255.335 150.197 263.599C127.473 276.052 106.49 291.445 87.79 309.382C83.9935 313.039 80.3531 316.697 76.6781 320.58C75.8113 321.482 74.9445 322.314 74.2164 323.198L73.9738 323.458C64.9141 333.174 56.5768 343.539 49.0284 354.471C48.5969 355.111 48.2144 355.783 47.8842 356.482C47.0521 358.388 46.1507 362.046 47.8842 363.97C48.9243 365.132 50.9699 366.12 54.8183 364.473C55.2344 364.335 55.6399 364.167 56.0318 363.97C56.7772 363.554 57.8867 362.861 58.2507 362.584C81.7226 344.624 135.635 334.708 151.376 333.79C164.568 333.01 177.656 331.085 182.579 330.323C186.928 332.37 191.485 333.945 196.17 335.021C198.768 335.574 201.418 335.847 204.075 335.835C206.296 335.83 208.515 335.668 210.714 335.35C213.932 344.986 219.51 353.663 226.94 360.59C226.68 368.252 227.98 382.623 233.718 391.949C237.775 398.24 242.882 403.787 248.817 408.349C248.318 417.68 251.386 426.851 257.398 434.005C256.423 436.615 255.839 439.354 255.664 442.135C255.443 445.119 256.011 448.108 257.311 450.802C256.317 452.525 255.615 454.399 255.231 456.35C254.912 458.961 255.161 461.61 255.959 464.116C255.22 465.648 254.639 467.251 254.225 468.9C253.849 471.093 253.991 473.343 254.642 475.471C252.787 480.862 250.758 491.592 257.641 497.4C259.649 499.121 262.207 500.068 264.852 500.069C270.053 500.069 274.438 496.307 276.501 494.123C280.04 492.439 283.08 489.865 285.325 486.652C286.624 484.639 287.546 482.407 288.047 480.064C289.95 478.138 291.552 475.935 292.796 473.529C293.886 471.523 294.636 469.349 295.015 467.098C300.779 460.272 305.043 452.31 307.531 443.73L308.207 440.696C308.207 440.332 308.346 439.951 308.398 439.552C309.524 431.718 309.348 423.752 307.878 415.976C312.17 408.353 314.727 399.877 315.367 391.152C323.245 385.927 331.522 381.331 340.122 377.405C340.743 385.357 340.247 393.357 338.648 401.172C336.169 413.792 326.964 424.228 322.336 428.804C320.723 430.382 316.754 434.889 316.754 434.889C316.254 435.395 315.882 436.013 315.668 436.691C315.454 437.369 315.404 438.088 315.523 438.789C315.583 439.108 315.67 439.421 315.783 439.725C315.906 439.952 316.057 440.162 316.234 440.349C318.435 442.482 324.485 441.701 324.485 441.701C350.488 438.911 368.187 417.016 375.693 398.936C380.176 387.341 383.99 375.499 387.117 363.468C402.216 360.729 416.189 359.359 425.671 358.423C429.901 358.007 433.246 357.678 435.448 357.331C441.221 356.482 451.968 354.869 452.645 344.676C452.724 339.417 452.248 334.164 451.223 329.005ZM446.681 344.104C446.456 347.571 444.081 349.773 434.547 351.194C427.404 352.269 405.891 353.483 382.333 358.128C380.131 366.172 375.399 383.923 370.198 396.474C363.819 411.868 347.662 433.173 323.566 435.773C323.566 435.773 340.902 421.575 344.646 402.16C347.68 386.558 346.154 378.151 345.669 368.443C332.924 373.496 320.798 379.987 309.525 387.789C309.906 402.177 301.637 414.763 301.637 414.763C303.381 422.528 303.698 430.546 302.573 438.425C300.285 452.865 289.277 464.428 289.277 464.428C289.278 466.573 288.677 468.675 287.544 470.495C286.368 472.958 284.628 475.108 282.465 476.771C282.329 479.053 281.593 481.26 280.332 483.167C278.501 485.743 275.95 487.721 273 488.853C273 488.853 266.69 496.845 261.628 492.563C256.566 488.281 259.998 477.62 261.16 475.349C260.347 473.657 260.023 471.772 260.223 469.906C260.743 467.963 261.494 466.089 262.46 464.324C261.512 462.048 261.068 459.594 261.16 457.13C261.843 454.756 262.979 452.537 264.505 450.594C263.488 449.501 262.711 448.206 262.224 446.794C261.737 445.382 261.552 443.883 261.68 442.395C261.938 439.075 262.901 435.848 264.505 432.93C261.212 429.323 258.561 425.177 256.67 420.674C254.312 414.26 254.936 405.298 254.936 405.298C248.57 400.846 243.11 395.221 238.849 388.725C233.215 379.537 232.4 363 233.198 357.99C224.034 350.345 217.688 339.856 215.169 328.19C209.43 329.79 203.404 330.075 197.539 329.022C192.699 327.909 188.013 326.209 183.584 323.961C183.584 323.961 167.289 326.717 151.202 327.653C135.861 328.555 85.6751 335.506 53.5529 358.7C61.0873 347.68 69.4497 337.248 78.5676 327.497C78.6284 327.448 78.681 327.389 78.7236 327.324L81.3239 324.515C84.7909 320.875 88.3793 317.217 92.2451 313.49C110.533 295.936 131.056 280.869 153.282 268.679C168.763 259.815 184.924 252.199 201.613 245.9C201.613 245.709 201.613 245.588 201.613 245.588C201.613 245.588 199.88 232.812 204.647 202.493C204.872 201.123 205.184 199.702 205.514 198.228C134.439 176.577 132.411 107.825 132.532 97.3372C132.532 97.0251 132.532 95.4996 132.532 94.9796C132.938 83.8583 134.149 72.781 136.155 61.8346C136.693 58.749 137.091 55.646 137.455 52.543C141.564 31.1686 140.922 19.9701 139.9 14.7695C139.788 14.0839 139.632 13.4064 139.432 12.7413C139.249 12.1522 139.035 11.5735 138.79 11.0078C138.598 10.5358 138.372 10.0781 138.114 9.63826C136.883 7.10732 138.114 6.29257 138.114 6.29257C138.998 5.82452 140.298 6.63927 140.298 6.63927C141.69 7.65466 142.969 8.81704 144.112 10.1063C146.058 12.2501 147.8 14.5716 149.313 17.0404C150.558 19.0635 151.569 21.221 152.329 23.4718C152.658 24.4945 152.988 25.5 153.282 26.5054C153.763 28.0233 154.151 29.569 154.444 31.134C154.436 31.1623 154.436 31.1923 154.444 31.2206C155.068 33.7862 155.605 36.4212 156.056 38.9521C157.098 44.8489 157.753 50.8077 158.015 56.7901C158.31 63.3775 158.015 69.9475 158.76 76.5176L159.09 79.3952C161.811 103.37 176.65 126.027 195.996 135.769C208.027 142.53 219.347 142.964 231.516 141.819L229.609 139.93L229.003 139.392C220.679 132.192 213.872 123.405 208.981 113.546C200.452 95.0836 203.901 66.3245 201.301 48.1051C199.747 36.6723 196.259 25.5871 190.987 15.3242C190.189 14.1454 189.548 13.0186 190.518 12.2385C191.489 11.4585 192.148 11.9959 193.986 13.66C203.682 22.1563 211.298 32.7668 216.244 44.6728C220.976 55.802 219.867 69.3755 228.795 85.1505C233.406 93.2981 243.46 100.267 253.064 105.45L253.445 104.791C255.109 101.38 256.231 97.7306 256.774 93.9742C257.347 91.6384 257.603 89.2362 257.536 86.832C257.536 86.832 326.877 93.4714 367.598 130.17C408.318 166.869 418.373 207.329 419.604 219.88C419.604 219.88 434.408 217.609 438.187 212.096C437.947 217.074 436.965 221.988 435.275 226.675C432.432 234.736 423.279 237.631 423.989 237.857C424.7 238.082 426.59 243.785 426.59 248.258C426.59 252.73 427.058 256.544 430.369 258.659C433.68 260.774 436.765 263.617 436.765 265.281C436.189 268.253 435.396 271.179 434.391 274.035C439.736 280.485 443.468 288.115 445.277 296.294C445.277 296.294 438.187 299.137 434.633 301.026C434.253 307.351 432.896 313.578 430.611 319.488C430.611 319.488 436.055 320.91 438.187 321.378C439.959 322.132 441.527 323.297 442.76 324.777C443.993 326.257 444.856 328.01 445.277 329.889C446.182 334.574 446.652 339.333 446.681 344.104Z" fill="white"/>
</g>
<defs>
<clipPath id="clip0_37_7192">
<rect width="405.766" height="500" fill="white" transform="translate(47)"/>
</clipPath>
</defs>
</svg>
